<svg width="180" height="59" viewBox="0 0 180 59" fill="none" xmlns="http://www.w3.org/2000/svg">
<path d="M71.5467 6.35204L71.5229 8.64483C71.5225 8.66067 71.5186 8.67625 71.5115 8.69043C71.5043 8.70462 71.494 8.71704 71.4814 8.72679C71.2912 8.86858 71.1653 9.06812 71.1037 9.32541C70.8955 10.1858 70.7596 11.0531 70.696 11.9274C70.4346 15.4879 70.253 17.844 69.8463 20.8371C69.7274 21.7106 69.5921 22.5396 69.4407 23.3239C69.404 23.5162 69.3476 23.6974 69.2716 23.8675C69.2418 23.9339 69.2259 23.9675 69.2238 23.9682C69.1965 23.9791 69.1669 23.9829 69.1376 23.9792C69.1083 23.9755 69.0801 23.9644 69.0555 23.9468C69.0308 23.9293 69.0104 23.9059 68.996 23.8785C68.9816 23.8512 68.9737 23.8207 68.9728 23.7897L68.9468 22.9774L68.9375 0.189505C68.9375 0.172624 68.9442 0.156419 68.9563 0.144385C68.9683 0.132352 68.9847 0.125456 69.0018 0.125183L71.4492 0.115845C71.4715 0.115845 71.4929 0.124591 71.5086 0.140156C71.5244 0.15572 71.5332 0.17683 71.5332 0.198842L71.5467 6.35204Z" fill="white"/>
<path d="M38.8983 1.60254C38.9965 2.22433 38.8886 2.75032 38.5746 3.18052C38.3118 3.53395 37.9736 3.76634 37.56 3.8777C37.4085 3.93303 37.2504 3.96208 37.0858 3.96484C36.6888 3.98352 36.3212 3.89948 35.983 3.71274C35.7786 3.47412 35.5452 3.25211 35.4031 2.99274C35.134 2.50098 35.0445 1.94767 35.1344 1.3328C35.5328 0.259025 36.399 0.0370071 37.4759 0.126229C37.5111 0.128986 37.5452 0.135957 37.5776 0.146978C38.2983 0.389053 38.7385 0.87424 38.8983 1.60254Z" fill="white"/>
<path d="M97.3615 10.7799L97.3636 13.3497L97.4061 28.5257C97.4061 28.556 97.3942 28.585 97.373 28.6064C97.3518 28.6278 97.323 28.6399 97.293 28.6399H95.0604C95.0336 28.6399 95.0071 28.6345 94.9824 28.6241C94.9577 28.6137 94.9354 28.5984 94.9166 28.5792C94.8979 28.5599 94.8831 28.5371 94.8733 28.5121C94.8634 28.4871 94.8586 28.4603 94.8592 28.4334C94.8889 26.8703 94.9007 25.717 94.8944 24.9735C94.8944 24.9333 94.8865 24.9057 94.8706 24.8905C94.8613 24.8812 94.8501 24.8741 94.8376 24.8698C94.8251 24.8654 94.8118 24.864 94.7985 24.8654C94.7852 24.8669 94.7724 24.8713 94.7608 24.8784C94.7492 24.8854 94.7392 24.8948 94.7315 24.906C94.5047 25.238 94.2713 25.5482 94.0313 25.8366C92.8465 27.2607 91.3314 28.183 89.4861 28.6035C88.9411 28.728 88.4345 28.7917 87.9663 28.7944C87.046 28.7996 86.4038 28.8297 85.634 28.7031C84.4845 28.5123 83.3101 28.1917 82.2976 27.5941C81.0816 26.8776 80.0732 26.0078 79.2723 24.9849C78.3697 23.8326 77.7597 22.4649 77.4422 20.8817C76.9429 18.3959 77.1749 16.0143 78.1384 13.7367C78.7048 12.3963 79.6313 11.1773 80.6667 10.2436C81.0146 9.92956 81.4558 9.61935 81.9905 9.31296C82.9159 8.78316 83.9786 8.39342 85.1786 8.14374C86.0428 7.96322 86.908 7.98604 87.7235 7.99227C88.1073 7.99573 88.5251 8.03549 88.9767 8.11157C91.2398 8.49474 93.0847 9.61036 94.5116 11.4584C94.5649 11.5276 94.6257 11.5694 94.6942 11.584C94.6988 11.5849 94.7036 11.5848 94.7082 11.5836C94.7128 11.5825 94.717 11.5804 94.7207 11.5774C94.7243 11.5744 94.7273 11.5707 94.7294 11.5664C94.7314 11.5622 94.7325 11.5576 94.7326 11.5528V0.205067C94.7326 0.184706 94.7407 0.165179 94.7551 0.150781C94.7695 0.136384 94.789 0.128296 94.8094 0.128296H97.2432C97.271 0.128296 97.2977 0.139226 97.3173 0.158682C97.337 0.178139 97.348 0.204527 97.348 0.232042L97.3615 10.7799ZM85.9733 10.5029L84.5094 10.9024C84.5085 10.9026 84.5075 10.9033 84.5068 10.9042C84.5061 10.905 84.5057 10.9061 84.5057 10.907C84.5057 10.908 84.5061 10.9088 84.5068 10.9093C84.5075 10.9098 84.5085 10.9099 84.5094 10.9096C84.5136 10.9103 84.517 10.9103 84.5198 10.9096C84.5211 10.9097 84.5224 10.9102 84.5234 10.911C84.5244 10.9118 84.5251 10.9129 84.5255 10.9142C84.5258 10.9155 84.5258 10.9168 84.5253 10.918C84.5248 10.9193 84.524 10.9203 84.5229 10.921C83.2939 11.3927 82.2986 12.1238 81.5371 13.1142C80.8876 13.9594 80.4305 14.9083 80.1656 15.961C79.882 17.0905 79.7796 18.0972 79.8585 18.9811C79.9539 20.0427 80.1476 20.9823 80.4395 21.7999C80.6428 22.3698 80.9872 22.9611 81.4728 23.5739C82.1741 24.4589 83.0217 25.2484 83.9886 25.6374C84.6139 25.8892 85.0952 26.0586 85.4328 26.1458C87.3676 26.6469 89.5318 26.3689 91.2903 25.3521C92.2126 24.8178 92.9824 23.9391 93.5457 23.0957C93.8964 22.5714 94.1769 21.9593 94.3871 21.2593C95.2617 18.3555 94.8726 14.8883 92.749 12.6225C91.5503 11.3436 90.054 10.6139 88.2599 10.4334C87.7584 10.3511 87.3268 10.3155 86.9651 10.3266C86.6905 10.3349 86.3599 10.3936 85.9733 10.5029Z" fill="white"/>
<path d="M145.615 0.515747C146.587 0.547451 147.686 0.699738 148.908 0.967896C149.301 1.05397 149.692 1.16511 150.08 1.3009L150.824 1.53821C151.069 1.61476 151.322 1.69785 151.578 1.80969H151.577C152.148 2.05715 152.661 2.30746 153.114 2.56165C153.312 2.67282 153.493 2.79931 153.651 2.94153L153.917 3.17981L153.782 3.51086L153.074 5.26086C153.009 5.42232 152.896 5.62848 152.752 5.86438L152.476 6.31653L152.035 6.02258C150.064 4.70534 147.526 4.05431 145.162 4.03625C143.99 4.02754 142.871 4.27196 141.718 4.61438H141.717C140.899 4.8572 140.196 5.23286 139.601 5.7384C139.229 6.05443 138.9 6.50643 138.625 7.11633C138.407 7.60049 138.308 8.16111 138.345 8.81067L138.373 9.11047C138.454 9.69686 138.674 10.2117 139.036 10.6642L139.229 10.8859C139.847 11.5378 140.648 11.8683 141.783 12.1671H141.782C142.973 12.4793 143.639 12.6521 143.79 12.6886H143.789C146.285 13.2818 148.036 13.727 149.032 14.0226C149.526 14.169 150.269 14.4818 151.243 14.9445C151.867 15.2408 152.445 15.6184 152.977 16.0753C154.679 17.538 155.417 19.7195 155.237 21.9103L154.96 21.9083C154.884 22.3024 154.801 22.6897 154.706 23.0695V23.0704C154.457 24.0615 154.099 24.682 153.606 25.5236L153.76 25.67L153.467 26.0353C152.98 26.6404 152.404 27.138 151.74 27.5245C150.798 28.0731 149.798 28.4822 148.742 28.7511C146.216 29.3943 143.673 29.4403 141.122 28.8898L141.075 28.88L141.03 28.8605C140.341 28.5677 139.775 28.2712 139.348 27.9659L139.173 27.8341C138.508 27.3042 137.834 26.7687 137.151 26.2277L136.9 26.0167C136.703 25.8387 136.536 25.6553 136.411 25.4659L136.341 25.3517C136.033 24.8018 135.861 24.5116 135.804 24.4337H135.803C135.75 24.3611 135.698 24.3072 135.654 24.2726C135.637 24.2593 135.622 24.2524 135.611 24.2462C135.601 24.2573 135.587 24.2728 135.571 24.296C135.355 24.6151 135.162 24.993 134.994 25.4337L134.807 25.9288L134.319 25.7218C134.229 25.6834 134.084 25.6072 133.982 25.4562C133.854 25.2644 133.857 25.043 133.938 24.8654H133.937C134.24 24.1984 134.516 23.5038 134.766 22.7823C134.796 22.6936 134.848 22.6138 134.916 22.549L134.97 22.5031C135.026 22.4609 135.09 22.4292 135.158 22.4093L135.229 22.3937C135.275 22.3861 135.323 22.3839 135.37 22.3878L135.441 22.3976L135.511 22.4171C135.577 22.4397 135.639 22.474 135.693 22.5187C137.495 23.9938 139.656 25.0527 141.934 25.4347L142.737 25.5656C142.938 25.5966 143.073 25.6149 143.145 25.6222C144.412 25.7515 145.651 25.7237 146.861 25.5402L147.123 25.4972C148.428 25.2574 149.706 24.6988 150.459 23.7365L150.613 23.5275C150.957 23.0328 151.184 22.4933 151.299 21.9064C151.579 20.4686 150.96 19.1402 149.709 18.4113C149.344 18.1986 149.012 18.0315 148.714 17.9073L148.427 17.797C147.667 17.5339 147.333 17.4051 146.705 17.2491C145.965 17.0653 145.196 16.8753 144.398 16.6798L141.918 16.0763C141.326 15.9336 140.557 15.6809 140.079 15.5353H140.078C139.063 15.2248 138.115 14.7756 137.236 14.1876C135.48 13.013 134.755 11.3396 134.473 9.37903C134.138 7.05463 135.227 4.6481 136.951 3.16809C137.714 2.51238 138.539 2.00558 139.425 1.65149H139.426C141.34 0.887444 143.468 0.445795 145.615 0.515747Z" fill="#DEB254" stroke="#DEB254" stroke-width="1.01667"/>
<path d="M114.191 0.802856C116.273 0.437411 118.343 0.525016 120.395 1.0636C121.445 1.33925 122.52 1.74373 123.619 2.27551C124.479 2.69176 125.321 3.32453 125.988 3.80676L126.18 3.94934C126.625 4.29242 127.048 4.6974 127.45 5.16223C129.168 7.14699 130.42 9.53453 130.951 12.1378H130.95C131.035 12.5493 131.116 13.0842 131.192 13.7374L131.225 14.0441C131.516 17.2164 130.535 20.4405 128.783 23.004C128.505 23.4113 128.161 23.8727 127.754 24.3878L127.753 24.3888C126.584 25.8653 125.05 26.9852 123.354 27.799L123.353 27.7999C123.173 27.8856 122.798 28.0328 122.255 28.2355C119.147 29.3933 115.707 29.4551 112.523 28.6115C110.285 28.0186 107.937 26.7796 106.323 25.1622C105.914 24.7517 105.579 24.3591 105.17 23.8781V23.8771C105.064 23.7526 104.971 23.6433 104.895 23.549L104.712 23.3136C103.658 21.8641 102.922 20.307 102.511 18.6437L102.494 18.5773L102.496 18.5079C102.515 17.8001 102.49 17.1039 102.422 16.4191L102.34 15.7374C102.278 15.3083 102.241 14.9828 102.24 14.796L102.241 14.795C102.236 13.9339 102.364 13.0857 102.467 12.2589L102.527 11.838C102.688 10.8693 102.975 9.98522 103.348 9.13391C103.386 9.04522 103.389 8.98217 103.38 8.93176L103.347 8.75891L103.428 8.60266C104.126 7.25421 104.945 6.07998 105.888 5.08508C107.54 3.34037 109.583 2.08127 112.003 1.30579L112.454 1.17395C112.938 1.04422 113.518 0.920942 114.191 0.802856ZM120.98 4.91809C118.861 4.11412 116.685 3.87622 114.509 4.33118V4.3302C113.661 4.50754 112.946 4.71104 112.357 4.93665C110.576 5.6192 109.076 6.91991 107.871 8.50305L107.635 8.82336C107.365 9.19937 107.11 9.66173 106.875 10.2159C106.595 10.8758 106.443 11.2753 106.396 11.4474C105.592 14.418 105.694 17.2331 107.026 19.9757C107.618 21.1928 108.337 22.17 109.18 22.9191H109.181C110.066 23.7079 110.971 24.2913 111.896 24.6779L112.294 24.8322L112.864 25.0216C114.192 25.4354 115.502 25.637 116.793 25.63C118.522 25.621 120.512 25.2114 122.066 24.3331L122.371 24.1544C123.871 23.2453 125.029 22.0793 125.858 20.6573C126.455 19.6329 126.911 18.4124 127.219 16.9884L127.254 16.8029C127.322 16.3808 127.3 16.0263 127.343 15.4484L127.362 15.0822C127.425 13.3086 126.995 11.4445 126.266 9.80969C126.206 9.74538 126.164 9.66711 126.144 9.58118L126.142 9.58215C126.132 9.54173 126.098 9.45626 126.006 9.32043L126.001 9.31458C125.972 9.26996 125.922 9.17948 125.863 9.07336C125.762 8.89032 125.701 8.78898 125.674 8.74915C125.012 7.79263 124.227 6.95544 123.317 6.23645C122.615 5.68152 121.837 5.24263 120.981 4.91907L120.98 4.91809Z" fill="#DEB254" stroke="#DEB254" stroke-width="1.01667"/>
<path d="M35.9835 3.7127L35.4513 3.29668C35.0834 2.86855 34.9454 2.33737 35.0374 1.70314L35.1349 1.33276C35.045 1.94763 35.1345 2.50095 35.4036 2.9927C35.5457 3.25207 35.7791 3.47409 35.9835 3.7127Z" fill="white"/>
<path d="M30.5761 2.10886C30.5484 2.21053 30.5432 2.33365 30.5605 2.4782L30.5595 3.84661C30.5595 3.86214 30.5564 3.87752 30.5505 3.89187C30.5445 3.90622 30.5358 3.91926 30.5248 3.93024C30.5138 3.94123 30.5008 3.94994 30.4865 3.95588C30.4721 3.96182 30.4567 3.96488 30.4412 3.96488H15.1998C15.1766 3.96488 15.1543 3.97403 15.1378 3.99034C15.1213 4.00666 15.1119 4.02882 15.1116 4.05203L15.0774 7.0171L15.0401 9.26113C15.04 9.27127 15.0369 9.28118 15.0312 9.28966C15.0255 9.29814 15.0174 9.30481 15.0079 9.30886C14.7382 9.42298 14.4062 9.56407 14.1395 9.74978C13.7218 10.0396 13.4555 10.2187 13.3407 10.2872C12.7473 10.6389 12.6362 9.81618 12.5885 9.45929C12.4869 8.70194 12.3945 7.836 12.3115 6.86148L12.3364 1.50817C12.3364 1.49166 12.343 1.47583 12.3547 1.46415C12.3663 1.45248 12.3822 1.44592 12.3987 1.44592H30.4319C30.464 1.44589 30.4949 1.4583 30.5181 1.48053C30.5413 1.50277 30.555 1.53312 30.5564 1.56523L30.5761 2.10886Z" fill="white"/>
<path d="M153.584 2.89087C153.789 3.02146 153.917 3.22195 153.937 3.46021C153.952 3.64938 153.892 3.81787 153.861 3.90259L153.86 3.90454C153.635 4.51005 153.391 5.13284 153.127 5.77271C153.036 5.99329 152.849 6.16517 152.591 6.21313L152.59 6.21216C152.399 6.24758 152.242 6.18272 152.146 6.12231C152.051 6.06284 151.978 5.98643 151.925 5.92212L151.695 5.6438L151.884 5.33521C152.023 5.10683 152.099 4.9602 152.131 4.8811C152.363 4.30462 152.6 3.71986 152.84 3.12817L153.069 2.56372L153.584 2.89087Z" fill="#DEB254" stroke="#DEB254" stroke-width="1.01667"/>
<path d="M71.5471 6.35205L71.572 28.5019C71.572 28.5308 71.5606 28.5585 71.5401 28.5789C71.5197 28.5993 71.492 28.6108 71.4631 28.6108L69.107 28.6202C69.0877 28.6203 69.0686 28.6166 69.0507 28.6092C69.0329 28.6019 69.0166 28.5911 69.0029 28.5774C68.9892 28.5637 68.9784 28.5474 68.9709 28.5295C68.9635 28.5115 68.9597 28.4923 68.9597 28.4728L68.9473 22.9774L68.9732 23.7897C68.9741 23.8207 68.9821 23.8512 68.9965 23.8786C69.0109 23.9059 69.0313 23.9293 69.0559 23.9469C69.0806 23.9644 69.1087 23.9755 69.138 23.9792C69.1674 23.9829 69.1969 23.9791 69.2243 23.9682C69.2263 23.9675 69.2423 23.9339 69.272 23.8675C69.3481 23.6974 69.4044 23.5162 69.4411 23.3239C69.5926 22.5396 69.7278 21.7107 69.8467 20.8371C70.2534 17.844 70.435 15.488 70.6964 11.9274C70.7601 11.0531 70.896 10.1858 71.1041 9.32542C71.1657 9.06813 71.2916 8.86859 71.4818 8.7268C71.4944 8.71705 71.5047 8.70463 71.5119 8.69045C71.5191 8.67626 71.523 8.66068 71.5233 8.64485L71.5471 6.35205Z" fill="white"/>
<path d="M15.0778 7.01707L15.085 14.3343C15.085 14.3495 15.091 14.3642 15.1017 14.375C15.1123 14.3859 15.1269 14.3921 15.1421 14.3924L15.7729 14.3997C21.564 14.4183 25.9182 14.4187 28.8356 14.4007C28.9476 14.4 28.9991 14.4571 28.9901 14.5719L28.9414 16.7423C28.9406 16.7764 28.9265 16.8088 28.9023 16.8327C28.8781 16.8565 28.8456 16.8699 28.8117 16.8699L15.1877 16.9248C15.1572 16.9248 15.1279 16.937 15.1063 16.9586C15.0847 16.9802 15.0726 17.0095 15.0726 17.04L15.0197 28.4687C15.0194 28.5003 15.0066 28.5304 14.9841 28.5528C14.9616 28.5751 14.9312 28.5877 14.8993 28.588L12.4654 28.5973C12.4401 28.5975 12.4151 28.5926 12.3917 28.583C12.3683 28.5734 12.347 28.5593 12.329 28.5415C12.3111 28.5237 12.2969 28.5025 12.2872 28.4791C12.2775 28.4557 12.2725 28.4307 12.2725 28.4054L12.3015 20.3495L12.2901 17.8855L12.3119 6.86145C12.3949 7.83597 12.4872 8.70191 12.5889 9.45926C12.6366 9.81615 12.7476 10.6389 13.341 10.2872C13.4559 10.2187 13.7221 10.0395 14.1399 9.74975C14.4065 9.56404 14.7385 9.42295 15.0083 9.30883C15.0177 9.30478 15.0259 9.29811 15.0316 9.28963C15.0373 9.28115 15.0404 9.27124 15.0404 9.2611L15.0778 7.01707Z" fill="white"/>
<path d="M56.1719 8.14592C56.5225 8.29393 56.8514 8.47376 57.1585 8.6854C57.3805 8.83826 57.6202 8.95203 57.8774 9.02673C57.8839 9.02862 57.8909 9.02819 57.8971 9.0255C57.9033 9.02282 57.9084 9.01806 57.9114 9.01204C57.9145 9.00602 57.9154 8.99911 57.9139 8.99252C57.9125 8.98592 57.9087 8.98004 57.9034 8.97589C57.6475 8.77463 57.3722 8.60241 57.0776 8.45924C57.0499 8.4454 57.0496 8.44264 57.0765 8.45094C57.2501 8.50558 57.4279 8.54327 57.6098 8.56402C58.3823 8.86765 59.0117 9.18442 59.498 9.51434C61.9651 11.1878 63.4507 14.2794 63.5742 17.1905C63.6053 17.9112 63.6112 18.5015 63.5918 18.9615C63.5899 19.0045 63.5715 19.0451 63.5404 19.0749C63.5093 19.1047 63.4678 19.1213 63.4248 19.1212H46.6853C46.6787 19.1212 46.6722 19.1226 46.6661 19.1251C46.6601 19.1277 46.6546 19.1315 46.6501 19.1363C46.6455 19.141 46.642 19.1466 46.6396 19.1528C46.6373 19.1589 46.6363 19.1655 46.6365 19.1721C46.6455 19.4937 46.7019 19.8565 46.8056 20.2604C47.1719 21.69 47.7217 22.8945 48.7602 24.0212C49.89 25.2485 51.3653 25.9363 53.0356 26.2061C54.4348 26.4322 55.8696 26.3537 57.34 25.9706C57.8871 25.8288 58.3543 25.649 58.7417 25.4311L59.6235 24.9954C60.0814 24.8619 60.3836 24.6022 60.5302 24.2162L60.7585 23.8718L60.9172 23.7131C60.9301 23.7003 60.9454 23.6903 60.9623 23.6838C60.9793 23.6774 60.9973 23.6745 61.0153 23.6755C61.0334 23.6765 61.0509 23.6813 61.0669 23.6895C61.0829 23.6978 61.0969 23.7093 61.1081 23.7234L61.8395 24.6488C60.3663 24.7578 59.2832 25.6697 57.9636 26.1023C56.5229 26.5747 55.0255 26.7317 53.4713 26.5733C52.8641 26.5118 52.132 26.4236 51.275 26.3088C50.6204 26.2206 49.501 26.203 48.9428 26.6823C48.7353 26.8607 48.671 26.9199 48.4241 26.9811C47.4395 26.3244 46.5017 25.4664 45.8678 24.4642C45.6686 24.1481 45.505 23.8818 45.3771 23.6653C44.6626 22.4508 44.2286 21.0952 44.075 19.5985C43.8831 17.7207 44.1321 15.6727 44.8531 13.8914C45.1969 13.4508 45.4497 12.9912 45.6115 12.5126C45.745 12.2207 45.9328 11.9538 46.1749 11.7117C46.8416 11.0263 47.5371 10.3858 48.2612 9.7903C48.5766 9.53094 48.8508 9.34592 49.0839 9.23526C49.4809 9.04782 49.7852 8.87007 49.9969 8.702C51.8 7.91872 53.7193 7.78177 55.6199 8.0318C55.8087 8.0567 55.9927 8.09474 56.1719 8.14592ZM53.1622 10.2696C52.9402 10.2911 52.7171 10.3149 52.493 10.3412C52.2433 10.3702 52.0234 10.4131 51.8332 10.4698C51.3947 10.6019 50.9769 10.7773 50.5799 10.9958L49.9585 11.3517L50.7957 10.7728C50.8044 10.7672 50.8107 10.7587 50.8134 10.7487C50.8161 10.7388 50.815 10.7282 50.8104 10.719C50.8057 10.7099 50.7978 10.7027 50.7882 10.6991C50.7786 10.6954 50.768 10.6954 50.7584 10.6991C49.5826 11.1086 48.6399 11.8625 47.9303 12.9608C47.7221 13.2831 47.4295 13.8049 47.0526 14.5263C46.7507 15.1063 46.345 16.1697 46.6936 16.7548C46.6791 16.8329 46.6791 16.9007 46.6936 16.9581C46.6976 16.9734 46.7059 16.9874 46.7176 16.9985C46.7293 17.0097 46.744 17.0176 46.76 17.0214C46.8672 17.0456 46.9723 17.0401 47.0754 17.0048L54.1851 17.0152H61.0386C61.0529 17.0152 61.067 17.0122 61.08 17.0062C61.0929 17.0002 61.1045 16.9914 61.1137 16.9804C61.123 16.9695 61.1298 16.9566 61.1337 16.9427C61.1375 16.9289 61.1384 16.9143 61.1361 16.9C61.013 16.1254 60.8197 15.3667 60.5562 14.6238C59.8102 12.6495 58.2146 11.1566 56.1947 10.5414C55.963 10.3851 55.6317 10.3007 55.2008 10.2883C54.2733 10.2613 53.5938 10.2551 53.1622 10.2696Z" fill="white"/>
<path d="M38.3375 9.85347L38.3365 28.4614C38.3365 28.5012 38.3208 28.5394 38.2929 28.5678C38.2649 28.5961 38.2269 28.6123 38.1871 28.6129C37.3945 28.6267 36.5967 28.6264 35.7937 28.6118C35.6955 28.6098 35.6477 28.542 35.6505 28.4085L35.6526 8.19041C35.6526 8.15675 35.6659 8.12445 35.6896 8.10055C35.7133 8.07665 35.7455 8.06308 35.7791 8.06281L38.184 8.05347C38.2033 8.05333 38.2225 8.05701 38.2404 8.06429C38.2584 8.07156 38.2747 8.0823 38.2885 8.09588C38.3022 8.10947 38.3132 8.12563 38.3207 8.14345C38.3283 8.16128 38.3322 8.18041 38.3323 8.19975L38.3375 9.85347Z" fill="white"/>
<path d="M57.6088 8.56385C57.4269 8.5431 57.2492 8.50541 57.0756 8.45077C57.0486 8.44247 57.0489 8.44523 57.0766 8.45907C57.3712 8.60224 57.6465 8.77445 57.9024 8.97572C57.9078 8.97987 57.9115 8.98575 57.913 8.99234C57.9144 8.99894 57.9136 9.00585 57.9105 9.01187C57.9074 9.01789 57.9023 9.02265 57.8961 9.02533C57.8899 9.02801 57.883 9.02845 57.8765 9.02656C57.6192 8.95186 57.3795 8.83809 57.1575 8.68523C56.8504 8.47359 56.5216 8.29376 56.1709 8.14575C56.6668 8.23705 57.1461 8.37641 57.6088 8.56385Z" fill="white"/>
<path d="M49.9968 8.7019C49.7852 8.86997 49.4809 9.04773 49.0838 9.23516C48.8508 9.34582 48.5765 9.53084 48.2611 9.7902C47.537 10.3857 46.8415 11.0262 46.1748 11.7116C46.3076 11.4847 46.4591 11.2765 46.6292 11.087C47.343 10.2916 48.1692 9.63631 49.1077 9.12104C49.1409 9.10236 49.1745 9.08265 49.2083 9.0619C49.456 8.90905 49.7188 8.78905 49.9968 8.7019Z" fill="white"/>
<path d="M104.208 7.87415C104.356 7.87042 104.496 7.93067 104.596 8.03918C104.682 8.13316 104.715 8.23808 104.729 8.30579C104.757 8.43995 104.742 8.57674 104.721 8.67981C104.697 8.7927 104.658 8.91197 104.605 9.02844C104.518 9.22243 104.38 9.43815 104.186 9.61243C103.811 10.4874 103.541 11.3844 103.418 12.3771C103.323 13.1342 103.222 13.8158 103.201 14.4982L103.198 14.7911V14.7921C103.199 14.902 103.225 15.1617 103.288 15.6017L103.336 15.9777C103.438 16.8839 103.473 17.9809 103.45 18.8468L102.574 18.9806C102.297 18.1708 102.136 16.9878 102.066 16.0851C101.865 13.4738 101.936 11.4712 103.097 9.13489L103.098 9.13391C103.351 8.62778 103.564 8.29261 103.746 8.10657C103.794 8.05742 103.851 8.00689 103.917 7.96594C103.979 7.92735 104.08 7.87745 104.208 7.87415Z" fill="#DEB254" stroke="#DEB254" stroke-width="0.9"/>
<path d="M56.1946 10.5413C56.0217 10.5254 55.8485 10.4835 55.6748 10.4157C55.648 10.4054 55.6201 10.3981 55.5919 10.394C54.8566 10.2895 54.1169 10.2584 53.3727 10.3006C53.2946 10.3061 53.2244 10.2957 53.1621 10.2695C53.5937 10.2549 54.2732 10.2612 55.2007 10.2881C55.6316 10.3006 55.9629 10.385 56.1946 10.5413Z" fill="white"/>
<path d="M53.1613 10.2695C53.2236 10.2958 53.2938 10.3062 53.372 10.3007C52.9622 10.3608 52.5254 10.3826 52.1446 10.4791C51.6183 10.6133 51.0964 10.7855 50.5791 10.9958C50.9761 10.7772 51.3939 10.6019 51.8324 10.4698C52.0226 10.413 52.2425 10.3702 52.4922 10.3411C52.7163 10.3148 52.9393 10.291 53.1613 10.2695Z" fill="white"/>
<path d="M88.2602 10.4334C87.8535 10.4313 87.4434 10.4313 87.0298 10.4334C86.704 10.4355 86.3295 10.5008 85.9736 10.5029C86.3603 10.3936 86.6909 10.3349 86.9654 10.3266C87.3272 10.3155 87.7588 10.3511 88.2602 10.4334Z" fill="white"/>
<path d="M49.9578 11.3517L49.7586 11.4938C49.4681 11.5924 49.1195 11.7677 49.0241 12.0841C47.7501 13.3346 46.9837 14.8659 46.7251 16.678C46.7105 16.6946 46.6998 16.7202 46.6929 16.7548C46.3443 16.1696 46.75 15.1062 47.0519 14.5263C47.4288 13.8049 47.7214 13.2831 47.9296 12.9608C48.6392 11.8624 49.5819 11.1085 50.7577 10.6991C50.7673 10.6954 50.7779 10.6954 50.7875 10.699C50.7971 10.7027 50.805 10.7098 50.8097 10.719C50.8144 10.7282 50.8154 10.7388 50.8127 10.7487C50.81 10.7586 50.8037 10.7672 50.795 10.7728L49.9578 11.3517Z" fill="white"/>
<path d="M49.7589 11.4937L49.0244 12.084C49.1199 11.7675 49.4684 11.5922 49.7589 11.4937Z" fill="white"/>
<path d="M44.8525 13.8912C45.0476 13.4002 45.3004 12.9406 45.6109 12.5125C45.4491 12.9911 45.1963 13.4507 44.8525 13.8912Z" fill="white"/>
<path d="M54.1849 17.0151L47.0752 17.0047C49.4468 16.9591 51.8168 16.9625 54.1849 17.0151Z" fill="white"/>
<path d="M154.768 20.4762C154.836 20.4934 154.901 20.5239 154.958 20.566L155.037 20.6373L155.101 20.7223C155.145 20.7961 155.167 20.8801 155.173 20.9664L155.176 20.9655L155.238 21.8317L155.241 21.8834L155.235 21.9342C155.098 22.9928 154.75 24.0195 154.199 25.0123C153.97 25.4258 153.717 25.7819 153.436 26.0709L153.085 26.4313L152.721 26.0846C152.582 25.9527 152.508 25.7744 152.512 25.5826C152.515 25.4137 152.578 25.2704 152.639 25.1676H152.64C153.186 24.2333 153.496 23.7146 153.72 22.8229L153.83 22.36C153.935 21.8927 154.025 21.4132 154.102 20.9215L154.104 20.9225C154.122 20.799 154.18 20.6847 154.273 20.6002L154.358 20.5367C154.449 20.4823 154.555 20.4555 154.662 20.4606L154.768 20.4762Z" fill="#DEB254" stroke="#DEB254" stroke-width="1.01667"/>
<path d="M135.804 23.2391C136.166 23.3189 136.443 23.5871 136.622 23.8319C136.725 23.9726 136.934 24.3298 137.228 24.8544C137.286 24.9593 137.396 25.0948 137.576 25.2577L137.781 25.4296C138.465 25.9714 139.14 26.5082 139.806 27.0389L139.941 27.1415C140.28 27.3831 140.77 27.6451 141.428 27.9247L141.127 28.8905C139.604 28.5778 138.168 28.0901 136.821 27.4257C135.876 26.9597 134.995 26.3612 134.18 25.6327L133.919 25.4003L134.043 25.0731C134.234 24.5706 134.462 24.12 134.729 23.7255C134.85 23.5485 135.004 23.3972 135.198 23.3055C135.399 23.2111 135.609 23.1963 135.804 23.2391Z" fill="#DEB254" stroke="#DEB254" stroke-width="1.01667"/>
<path d="M60.758 23.8717L60.5298 24.2161L59.6231 24.9953L58.7412 25.431C59.4875 25.007 60.1598 24.4873 60.758 23.8717Z" fill="white"/>
<path d="M59.623 24.9953L60.5298 24.2162C60.3832 24.6021 60.0809 24.8618 59.623 24.9953Z" fill="white"/>
<path d="M61.8393 24.6487L62.3435 25.2307C62.3703 25.2614 62.3855 25.3005 62.3864 25.3413C62.3874 25.382 62.374 25.4218 62.3487 25.4538C61.8237 26.1205 61.2483 26.6458 60.6223 27.0297C59.7052 27.5947 58.7379 28.0446 57.7205 28.3794L55.9403 28.728L53.5375 28.7311C51.7593 28.5475 49.9209 27.9841 48.4238 26.9809C48.6707 26.9197 48.7351 26.8606 48.9426 26.6821C49.5007 26.2028 50.6201 26.2204 51.2748 26.3086C52.1317 26.4234 52.8638 26.5116 53.4711 26.5732C55.0252 26.7316 56.5226 26.5746 57.9633 26.1022C59.283 25.6695 60.3661 24.7576 61.8393 24.6487Z" fill="white"/>
<path d="M60.6225 27.0298C59.7545 27.6958 58.7872 28.1457 57.7207 28.3795C58.7381 28.0448 59.7054 27.5949 60.6225 27.0298Z" fill="white"/>
<path d="M55.9399 28.728C55.1424 28.8255 54.3415 28.8266 53.5371 28.7311L55.9399 28.728Z" fill="white"/>
<path d="M25.4292 40.9538C25.4218 40.9971 25.4071 41.0195 25.3851 41.021L24.9831 40.681C24.2509 40.1047 23.4426 39.676 22.5584 39.3951C21.9676 39.2302 21.3462 39.1009 20.6941 39.0073C20.46 38.9983 20.2164 38.9871 19.9634 38.9736C19.7073 38.9597 19.464 38.953 19.2333 38.9535C16.0228 38.9584 13.7535 38.9567 12.4255 38.9482C12.3438 38.9477 12.2982 38.9689 12.2887 39.0117L12.276 39.0327C12.2742 39.0357 12.2716 39.0383 12.2685 39.04C12.2653 39.0417 12.2618 39.0426 12.2582 39.0425C12.2547 39.0425 12.2512 39.0414 12.2481 39.0396C12.2451 39.0377 12.2426 39.0351 12.2409 39.0319C12.2294 39.01 12.2142 38.9978 12.1953 38.9953L12.2073 38.8944C12.2108 38.8651 12.2249 38.838 12.2469 38.8184C12.269 38.7989 12.2974 38.7881 12.3268 38.7883C15.8039 38.7968 18.0468 38.7995 19.0555 38.7966C20.3287 38.7936 21.321 38.8832 22.3843 39.206C23.4925 39.5423 24.5856 40.1505 25.4292 40.9538Z" fill="#DEB254"/>
<path d="M20.6944 39.0074C19.4949 39.3501 18.1776 39.5262 16.7424 39.5356C15.3028 39.5451 13.97 39.3553 12.7441 38.9663C12.6131 38.9244 12.4581 38.9438 12.2793 39.0245C12.2873 39.0285 12.295 39.0325 12.3025 39.0365C12.298 39.028 12.2935 39.0198 12.289 39.0118C12.2985 38.969 12.3441 38.9478 12.4258 38.9483C13.7538 38.9568 16.0231 38.9585 19.2336 38.9536C19.4643 38.9531 19.7076 38.9598 19.9637 38.9737C20.2167 38.9872 20.4603 38.9984 20.6944 39.0074Z" fill="#DEB254"/>
<path d="M20.6944 39.0074C21.3465 39.101 21.9679 39.2303 22.5587 39.3952C22.4008 39.448 22.2546 39.517 22.1201 39.6021C21.9094 39.7361 21.7739 39.8151 21.7136 39.839C21.3438 39.9847 21.012 40.1857 20.5973 40.3299C20.5884 40.333 20.5807 40.3389 20.5755 40.3467C20.5703 40.3546 20.5679 40.3639 20.5685 40.3733C20.5692 40.3827 20.573 40.3916 20.5793 40.3986C20.5856 40.4057 20.594 40.4104 20.6033 40.4121L21.2646 40.5414C20.8202 40.4861 20.4563 40.4587 20.1729 40.4592C18.6705 40.4617 17.0717 40.4525 15.3765 40.4315C14.9989 40.4266 14.6228 40.431 14.2482 40.445C14.2384 40.4454 14.229 40.4496 14.2222 40.4567C14.2154 40.4638 14.2116 40.4732 14.2116 40.4831V40.5048C14.2116 40.5109 14.2139 40.5169 14.218 40.5215C14.2222 40.526 14.2279 40.5289 14.234 40.5294L14.4836 40.5578L14.2221 40.5474C14.0786 40.5419 13.8343 40.5212 13.489 40.4853C12.8061 40.4129 13.0131 39.8652 13.0684 39.4198C13.0713 39.3952 13.0652 39.3703 13.0512 39.3496C12.8953 39.1239 12.638 39.0156 12.2793 39.0245C12.4581 38.9438 12.6131 38.9244 12.7441 38.9663C13.97 39.3553 15.3028 39.5451 16.7424 39.5356C18.1776 39.5262 19.4949 39.3501 20.6944 39.0074Z" fill="#DEB254"/>
<path d="M12.2894 39.0118C12.2939 39.0198 12.2984 39.028 12.3029 39.0365L12.2984 40.7947L12.2872 50.758C12.2875 50.7641 12.2856 50.7701 12.2818 50.7749C12.278 50.7797 12.2727 50.783 12.2667 50.7841C12.2607 50.7853 12.2545 50.7843 12.2492 50.7813C12.2439 50.7783 12.2399 50.7735 12.2379 50.7677C12.2199 50.7229 12.209 50.6664 12.205 50.5981C12.192 50.3421 12.1813 50.086 12.1729 49.83L12.196 38.9954C12.2149 38.9979 12.2301 39.0101 12.2416 39.032C12.2433 39.0351 12.2458 39.0378 12.2488 39.0396C12.2519 39.0415 12.2554 39.0425 12.2589 39.0426C12.2625 39.0427 12.266 39.0418 12.2692 39.0401C12.2723 39.0383 12.2749 39.0358 12.2767 39.0327L12.2894 39.0118Z" fill="#DEB254"/>
<path d="M14.2221 40.5474C14.1742 40.5504 14.1503 40.5882 14.1503 40.661C14.1493 42.1499 14.1575 43.6391 14.175 45.1286L14.1712 44.7004C14.1712 44.6956 14.1694 44.6911 14.166 44.6877C14.1626 44.6844 14.1581 44.6825 14.1533 44.6825H14.1526C14.1495 44.6826 14.1465 44.6833 14.1438 44.6845C14.141 44.6858 14.1385 44.6876 14.1364 44.6898C14.1343 44.692 14.1327 44.6946 14.1316 44.6975C14.1305 44.7003 14.13 44.7033 14.1301 44.7064C14.1451 44.9764 14.1406 45.2372 14.1167 45.4887C14.0629 46.0581 14.0935 46.3592 14.092 46.8845C14.0913 47.5323 14.0315 48.3565 14.0375 48.7832C14.0415 49.0806 14.0833 49.4542 14.163 49.904C14.165 49.9862 14.168 50.0681 14.172 50.1498C14.175 50.2016 14.2168 50.2206 14.2975 50.2066C14.2706 50.2246 14.2382 50.2323 14.2004 50.2298C14.0868 50.0512 13.6146 49.3742 13.4173 49.9175C13.2933 50.2597 13.3005 50.6059 13.439 50.9561C13.5625 51.2684 13.7762 51.453 14.0801 51.5098C14.7072 51.6268 15.1795 51.7384 15.4968 51.8445L14.1922 51.8527C14.178 51.8528 14.1641 51.8557 14.151 51.8612C14.138 51.8667 14.1262 51.8747 14.1163 51.8848C14.1064 51.8948 14.0985 51.9068 14.0932 51.9199C14.0879 51.9329 14.0852 51.947 14.0853 51.9611C14.0988 54.0234 14.0955 56.0601 14.0756 58.0711C14.0746 58.1373 14.028 58.1794 13.9359 58.1973L13.3254 58.1682C13.302 58.1672 13.2794 58.1594 13.2604 58.1458C12.8434 57.8484 12.7874 57.4038 12.836 56.9189C13.0033 55.2436 13.1431 53.7768 13.0766 52.4453C12.9999 50.9125 12.9647 50.0233 12.9712 49.7777C13.0437 47.0003 13.1199 45.2205 13.016 42.9878C12.9926 42.4792 12.9406 41.992 12.8599 41.5262C12.7904 41.1212 12.6731 40.7065 12.348 40.4443C12.3451 40.4419 12.3416 40.4404 12.3379 40.4399C12.3342 40.4394 12.3304 40.44 12.327 40.4416C12.3236 40.4431 12.3206 40.4456 12.3186 40.4487C12.3165 40.4518 12.3153 40.4555 12.3152 40.4592L12.298 40.7947L12.3025 39.0365C12.295 39.0325 12.2873 39.0285 12.2793 39.0246C12.638 39.0156 12.8953 39.1239 13.0512 39.3496C13.0652 39.3703 13.0713 39.3952 13.0684 39.4198C13.0131 39.8652 12.8061 40.4129 13.489 40.4854C13.8342 40.5212 14.0786 40.5419 14.2221 40.5474Z" fill="#DEB254"/>
<path d="M22.5587 39.3951C23.4429 39.6761 24.2511 40.1047 24.9834 40.6811C25.0187 41.2002 25.0812 41.709 25.1709 42.2077C25.2643 42.7262 25.484 43.7843 26.2678 43.5713C26.4945 43.5096 26.7134 43.4194 26.9246 43.3008C27.2429 44.2403 27.3451 45.1978 27.231 46.1731C27.015 48.0195 25.9592 49.7344 24.3475 50.6945C23.6892 51.0868 23.1721 51.3648 22.463 51.5269C22.2378 51.0318 21.9454 50.5653 21.5858 50.1274C22.204 49.9725 22.7694 49.7246 23.282 49.3839C23.2954 49.375 23.3079 49.3644 23.3193 49.3525C23.3716 49.2962 23.3741 49.2703 23.3268 49.2748C23.676 49.0013 23.9002 48.8178 23.9993 48.7241C24.4546 48.2947 24.7866 47.8551 24.9953 47.4053C25.3286 46.6865 25.5042 45.7764 25.4481 44.9656C25.3903 44.1367 25.1365 43.3519 24.6867 42.6112C24.3201 41.9541 23.7898 41.4577 23.0959 41.122C22.5415 40.854 21.931 40.6604 21.2645 40.5414L20.6032 40.4121C20.5939 40.4104 20.5855 40.4056 20.5792 40.3986C20.5729 40.3916 20.5692 40.3827 20.5685 40.3733C20.5678 40.3639 20.5702 40.3546 20.5754 40.3467C20.5806 40.3389 20.5883 40.3329 20.5972 40.3299C21.0119 40.1857 21.3437 39.9847 21.7136 39.839C21.7738 39.8151 21.9093 39.7361 22.12 39.6021C22.2545 39.5169 22.4007 39.4479 22.5587 39.3951Z" fill="#DEB254"/>
<path d="M13.9355 58.1973L12.2565 58.201C12.2317 58.201 12.208 58.1912 12.1904 58.1737C12.1729 58.1561 12.1631 58.1324 12.1631 58.1076L12.1721 49.83C12.1805 50.086 12.1912 50.3421 12.2042 50.5981C12.2082 50.6664 12.2191 50.7229 12.2371 50.7677C12.2391 50.7735 12.2431 50.7783 12.2484 50.7813C12.2537 50.7843 12.2599 50.7853 12.2659 50.7841C12.2719 50.783 12.2772 50.7797 12.281 50.7749C12.2848 50.7701 12.2867 50.7641 12.2864 50.758L12.2976 40.7947L12.3148 40.4592C12.3149 40.4554 12.3161 40.4518 12.3182 40.4486C12.3203 40.4455 12.3232 40.4431 12.3266 40.4415C12.33 40.44 12.3338 40.4394 12.3375 40.4399C12.3412 40.4403 12.3447 40.4418 12.3476 40.4442C12.6727 40.7065 12.79 41.1212 12.8595 41.5262C12.9402 41.9919 12.9922 42.4791 13.0157 42.9877C13.1195 45.2204 13.0433 47.0003 12.9708 49.7777C12.9643 50.0233 12.9995 50.9124 13.0762 52.4452C13.1427 53.7768 13.003 55.2435 12.8356 56.9188C12.787 57.4037 12.8431 57.8483 13.26 58.1457C13.279 58.1594 13.3016 58.1671 13.325 58.1681L13.9355 58.1973Z" fill="#DEB254"/>
<path d="M59.6017 40.3366C59.5892 40.376 59.574 40.3949 59.5561 40.3934C59.0037 40.3566 58.4587 40.3518 57.9212 40.3792C57.9073 40.38 57.8938 40.3838 57.8816 40.3905C57.8694 40.3971 57.8588 40.4065 57.8507 40.4178C57.8425 40.4291 57.837 40.4421 57.8344 40.4558C57.8319 40.4696 57.8324 40.4838 57.836 40.4973C57.85 40.5506 57.8589 40.6238 57.8629 40.717C57.8933 41.4448 57.9033 42.1618 57.8928 42.8682C57.8898 43.0595 57.9167 43.3531 57.8764 43.5967C57.8569 43.5903 57.8298 43.5903 57.7949 43.5967L57.7964 40.3127C57.7964 40.2888 57.8059 40.2659 57.8228 40.2488C57.8397 40.2317 57.8627 40.222 57.8868 40.2216C58.4054 40.2131 58.915 40.2149 59.4156 40.2268C59.5163 40.2293 59.5783 40.2659 59.6017 40.3366Z" fill="#DEB254"/>
<path d="M59.7145 43.693C59.6742 43.7274 59.6587 43.7593 59.6682 43.7887C59.6791 43.8216 59.7018 43.8397 59.7362 43.8432C59.8687 43.8567 60.0069 43.8589 60.1509 43.85C60.2944 44.2258 60.4333 44.6323 60.6859 44.9469C60.6888 44.9504 60.6908 44.9546 60.6916 44.9592C60.6924 44.9637 60.692 44.9684 60.6904 44.9727C60.6888 44.977 60.6861 44.9809 60.6825 44.9838C60.679 44.9867 60.6747 44.9887 60.6702 44.9895C60.4998 45.0188 60.2508 45.0472 59.923 45.0746C59.8144 45.0836 59.715 45.1451 59.6248 45.2592C59.6328 48.2794 59.6438 51.3047 59.6577 54.3349C59.6587 54.5187 59.6809 54.708 59.7242 54.9027L59.657 54.6913C59.6565 54.6902 59.6558 54.6892 59.6548 54.6885C59.6539 54.6878 59.6528 54.6875 59.6517 54.6876H59.6278C59.625 54.6875 59.6222 54.6881 59.6196 54.6892C59.617 54.6904 59.6146 54.692 59.6127 54.694C59.6108 54.6961 59.6094 54.6985 59.6085 54.7011C59.6076 54.7037 59.6073 54.7065 59.6077 54.7092C59.6667 55.4071 60.0313 55.9347 60.5432 56.4151C60.5517 56.423 60.5574 56.4336 60.5593 56.4451C60.5612 56.4566 60.5592 56.4684 60.5536 56.4786C60.4834 56.6126 60.4057 56.6938 60.3205 56.7222C59.905 56.8612 59.5412 56.9284 59.3417 57.3035C59.339 57.3084 59.3352 57.3126 59.3306 57.3158C59.3261 57.319 59.3208 57.3211 59.3153 57.3219C59.3098 57.3227 59.3042 57.3222 59.2989 57.3204C59.2936 57.3187 59.2888 57.3157 59.2849 57.3118C58.8819 56.9023 58.6323 56.6174 58.5362 56.457C58.0378 55.6276 57.9952 54.7772 57.9242 53.7632C57.9238 53.7579 57.9215 53.7529 57.9176 53.7491C57.9137 53.7454 57.9086 53.7432 57.9033 53.7431H57.9025C57.8976 53.7431 57.8929 53.7449 57.8893 53.7482C57.8857 53.7515 57.8835 53.7561 57.8831 53.761L57.8114 54.4462C57.785 53.9944 57.771 53.6327 57.7695 53.3612C57.7516 49.9248 57.7135 47.92 57.78 45.5058C57.8582 45.3882 57.9038 45.2689 57.9167 45.1479C57.918 45.1366 57.9168 45.1252 57.9134 45.1144C57.91 45.1036 57.9043 45.0937 57.8967 45.0852C57.8892 45.0767 57.88 45.07 57.8696 45.0653C57.8593 45.0607 57.8481 45.0582 57.8368 45.0582L56.9095 45.0537C56.8881 45.0537 56.8676 45.0455 56.8521 45.0308C56.8366 45.016 56.8275 44.9959 56.8265 44.9745C56.8049 44.5688 56.7951 44.0958 57.2226 43.8686L57.7441 43.8612C57.7737 43.8608 57.802 43.8495 57.8238 43.8295C57.8456 43.8095 57.8592 43.7822 57.8622 43.7528L57.8764 43.5966C57.9167 43.3531 57.8898 43.0594 57.8928 42.8681C57.9033 42.1617 57.8933 41.4447 57.8629 40.7169C57.8589 40.6237 57.85 40.5505 57.836 40.4972C57.8324 40.4837 57.8319 40.4695 57.8344 40.4557C57.837 40.442 57.8425 40.429 57.8507 40.4177C57.8588 40.4064 57.8694 40.397 57.8816 40.3904C57.8938 40.3837 57.9073 40.3799 57.9212 40.3791C58.4587 40.3517 59.0037 40.3565 59.5561 40.3933C59.574 40.3948 59.5892 40.3759 59.6017 40.3365C59.6097 40.3634 59.6134 40.3906 59.6129 40.418C59.5955 41.4641 59.6039 42.5099 59.6383 43.5555C59.6408 43.6353 59.6662 43.6811 59.7145 43.693Z" fill="#DEB254"/>
<path d="M21.2639 40.5414C21.9304 40.6604 22.5409 40.854 23.0953 41.122C23.7892 41.4577 24.3195 41.9541 24.6861 42.6112C24.5407 42.4493 24.394 42.2851 24.246 42.1187C24.0647 41.9155 23.9088 41.7631 23.7783 41.6614C23.2577 41.258 22.7065 40.98 22.1247 40.8276C21.4686 40.6562 20.7137 40.5688 19.8599 40.5653C18.0671 40.5583 16.2747 40.5558 14.4829 40.5578L14.2334 40.5294C14.2272 40.5289 14.2215 40.526 14.2173 40.5214C14.2132 40.5169 14.2109 40.5109 14.2109 40.5048V40.4831C14.2109 40.4732 14.2147 40.4638 14.2216 40.4567C14.2284 40.4496 14.2377 40.4454 14.2476 40.445C14.6222 40.431 14.9983 40.4266 15.3758 40.4315C17.071 40.4525 18.6698 40.4617 20.1722 40.4592C20.4557 40.4587 20.8196 40.4861 21.2639 40.5414Z" fill="#DEB254"/>
<path d="M24.9834 40.681L25.3854 41.021C25.7535 41.3946 26.0831 41.8033 26.374 42.2472C26.3761 42.2501 26.379 42.2524 26.3824 42.2538C26.3858 42.2551 26.3894 42.2555 26.393 42.2549C26.3966 42.2543 26.3999 42.2527 26.4026 42.2503C26.4053 42.2478 26.4073 42.2447 26.4083 42.2412L26.4218 42.1897C26.6375 42.5369 26.8051 42.9072 26.9247 43.3008C26.7135 43.4193 26.4945 43.5095 26.2679 43.5713C25.484 43.7842 25.2644 42.7262 25.171 42.2076C25.0813 41.7089 25.0188 41.2001 24.9834 40.681Z" fill="#DEB254"/>
<path d="M26.4221 42.1896L26.4087 42.2412C26.4077 42.2447 26.4057 42.2478 26.403 42.2502C26.4003 42.2527 26.3969 42.2543 26.3934 42.2549C26.3898 42.2555 26.3861 42.2551 26.3827 42.2538C26.3794 42.2524 26.3764 42.2501 26.3743 42.2472C26.0834 41.8033 25.7539 41.3946 25.3857 41.021C25.4077 41.0195 25.4224 40.9971 25.4298 40.9537C25.8009 41.3308 26.1317 41.7428 26.4221 42.1896Z" fill="#DEB254"/>
<path d="M119.599 43.9009L119.699 43.9771C119.704 43.9803 119.707 43.985 119.708 43.9903C119.71 43.9957 119.709 44.0013 119.707 44.0063C119.705 44.0113 119.701 44.0153 119.696 44.0178C119.691 44.0202 119.685 44.0209 119.68 44.0197C118.985 43.8692 118.281 43.7791 117.567 43.7492C117.136 43.7313 116.631 43.6924 116.253 43.7783C115.464 43.9577 114.955 44.0715 114.725 44.1198C114.458 44.1766 114.176 44.2944 113.879 44.4732C113.016 44.7766 112.281 45.3908 111.968 46.2598C111.795 46.6648 111.693 47.0927 111.662 47.5435C111.662 47.5465 111.662 47.5494 111.661 47.5521C111.66 47.5549 111.658 47.5574 111.656 47.5595C111.652 47.5638 111.646 47.5662 111.64 47.5663C111.637 47.5664 111.634 47.5659 111.632 47.5648C111.629 47.5637 111.626 47.5621 111.624 47.56C111.62 47.5559 111.618 47.5502 111.617 47.5443L111.567 47.1303C111.611 46.8588 111.682 46.5879 111.781 46.3174C111.857 46.1111 111.945 45.943 112.046 45.813C112.208 45.606 112.315 45.4028 112.504 45.201C112.841 44.8434 113.187 44.5761 113.542 44.3993C114.077 44.1318 114.649 43.9196 115.259 43.7626C115.831 43.6147 116.436 43.5392 117.073 43.5362C117.927 43.5322 118.769 43.6538 119.599 43.9009Z" fill="#DEB254"/>
<path d="M39.2914 44.4268C39.2824 44.4602 39.2665 44.4891 39.2436 44.5135L38.8326 44.2908C37.9977 43.9272 37.1285 43.7244 36.2248 43.6826C35.378 43.6432 34.5062 43.7404 33.6096 43.974C33.1618 44.0906 32.8818 44.168 32.7697 44.2064C32.3094 44.3225 31.8738 44.504 31.4628 44.7511C31.1744 44.909 30.8566 45.1147 30.5094 45.3683C30.4152 45.4365 30.2982 45.4903 30.1582 45.5297C30.1587 45.4664 30.1794 45.4236 30.2202 45.4012C30.2546 45.3827 30.2723 45.3733 30.2733 45.3728C31.0466 44.7982 31.9149 44.3177 32.8437 44.0442C33.2337 43.9299 33.5924 43.7992 33.9817 43.7214C34.5869 43.5999 35.2475 43.5466 35.9633 43.5615C37.1519 43.5859 38.2612 43.8744 39.2914 44.4268Z" fill="#DEB254"/>
<path d="M57.8767 43.5967L57.8625 43.7528C57.8596 43.7822 57.8459 43.8095 57.8242 43.8295C57.8024 43.8495 57.774 43.8608 57.7445 43.8612L57.2229 43.8686L55.2974 43.8843C55.257 43.8828 55.2119 43.8671 55.1621 43.8373L55.1651 43.7805C55.1662 43.755 55.1771 43.731 55.1955 43.7133C55.2138 43.6957 55.2383 43.6857 55.2637 43.6856C56.0926 43.6801 56.9064 43.6838 57.7049 43.6968C57.7373 43.6978 57.7607 43.6893 57.7751 43.6714C57.7921 43.6514 57.7988 43.6265 57.7953 43.5967C57.8302 43.5902 57.8573 43.5902 57.8767 43.5967Z" fill="#DEB254"/>
<path d="M109.5 43.7708C108.774 43.7319 108.092 43.8233 107.452 44.045C107.364 44.0754 107.084 44.1793 106.612 44.3566C106.245 44.4951 105.977 44.6236 105.807 44.7422C105.419 45.0122 105.101 45.312 104.852 45.6418C104.74 45.7898 104.66 45.8869 104.612 45.9332C104.595 45.9495 104.58 45.9687 104.569 45.99C104.487 46.1509 104.38 46.2324 104.248 46.2344C104.835 45.399 105.597 44.6353 106.505 44.2139C107.291 43.8487 108.087 43.6365 108.892 43.5773C109.075 43.5638 109.258 43.5621 109.44 43.572C109.452 43.5727 109.463 43.577 109.473 43.5844C109.483 43.5917 109.49 43.6017 109.493 43.6131C109.505 43.6495 109.507 43.702 109.5 43.7708Z" fill="#DEB254"/>
<path d="M80.9716 47.6781C80.9771 47.7413 80.9724 47.7869 80.9574 47.8148C80.9552 47.8188 80.9519 47.822 80.9478 47.8241C80.9438 47.8263 80.9393 47.8272 80.9348 47.8268C80.9303 47.8264 80.9261 47.8247 80.9227 47.8219C80.9193 47.8191 80.9168 47.8153 80.9156 47.8111C80.7587 47.3129 80.5641 46.8277 80.332 46.3555C80.2802 46.2838 80.1811 46.1278 80.0346 45.8877C79.8369 45.5639 79.5552 45.2406 79.1895 44.9178C79.0082 44.7639 78.8859 44.6683 78.8226 44.6309C77.9818 44.1278 77.0659 43.8162 76.0751 43.6961C75.7762 43.6603 75.5326 43.7021 75.2039 43.6954C74.7824 43.6872 74.2736 43.7716 73.7887 43.859C73.5461 43.9029 73.1538 44.0274 72.6118 44.2326C72.3528 44.3308 72.1037 44.4553 71.8646 44.6063C71.6563 44.7328 71.4459 44.8633 71.2332 44.9978C71.1664 45.0401 70.9428 45.2454 70.5622 45.6135C70.465 45.7077 70.3828 45.8369 70.2498 45.9266C70.2291 45.9409 70.2111 45.9586 70.1968 45.9789C70.1679 46.0212 70.1373 46.0611 70.1049 46.0984C70.0989 46.1054 70.0913 46.1108 70.0828 46.1142C70.0742 46.1176 70.0651 46.1188 70.0561 46.1177C70.0472 46.1167 70.0388 46.1134 70.0316 46.1082C70.0244 46.103 70.0188 46.0961 70.0152 46.088C70.0107 46.079 70.0122 46.0636 70.0197 46.0417C70.465 45.5326 70.9649 45.0867 71.5194 44.7041C71.7978 44.5114 72.152 44.3238 72.5819 44.1415C73.908 43.5801 75.2754 43.4299 76.6841 43.6909C77.2296 43.7915 77.8508 44.0237 78.5477 44.3873C79.3838 44.8229 79.9696 45.5298 80.4239 46.3308C80.664 46.7533 80.8466 47.2023 80.9716 47.6781Z" fill="#DEB254"/>
<path d="M89.1624 51.426L88.6752 51.3348C88.6725 51.3341 88.67 51.3326 88.6682 51.3305C88.6664 51.3284 88.6652 51.3257 88.665 51.3229C88.6647 51.3201 88.6654 51.3173 88.6668 51.3149C88.6682 51.3124 88.6704 51.3105 88.673 51.3094C88.8792 51.2352 89.0673 51.1913 89.2371 51.1779C89.9343 51.1226 90.7353 51.1898 91.4317 51.1891C92.7563 51.1866 93.8686 51.1669 94.7688 51.1301C95.3486 51.1062 95.8453 51.1089 96.2587 51.1383C96.5845 51.1612 97.0812 51.1913 97.7487 51.2287C98.3696 51.2638 98.6304 51.0471 98.5542 50.406C98.5034 49.9831 98.4538 49.5729 98.4055 49.1754C98.3188 48.4665 98.1011 47.7903 97.7524 47.1467C97.6299 46.921 97.4284 46.6034 97.1479 46.194C96.7631 45.6306 96.1534 45.1053 95.6146 44.7481C95.248 44.5045 94.9885 44.3703 94.836 44.3454C94.2447 44.2487 93.4948 44.1715 92.5862 44.1137C91.4439 44.041 90.3094 44.0978 89.1826 44.2841C88.8932 44.3538 88.6429 44.453 88.4316 44.5815C87.7183 45.0154 87.0194 45.5681 86.335 46.2395C86.8999 45.4814 87.5517 44.9053 88.2904 44.5112C90.4957 43.3356 92.7234 43.2547 94.9735 44.2684C95.7962 44.639 96.382 45.1359 96.9589 45.7337C97.1467 45.9285 97.3372 46.178 97.5305 46.4824C98.1098 47.3955 98.4652 48.3945 98.5967 49.4795C98.676 50.1315 98.7238 50.7472 98.7402 51.3266C98.7405 51.3371 98.7387 51.3475 98.7349 51.3573C98.7311 51.3671 98.7254 51.376 98.718 51.3835C98.7107 51.391 98.702 51.397 98.6923 51.4011C98.6826 51.4052 98.6723 51.4073 98.6618 51.4073L89.1624 51.426Z" fill="#DEB254"/>
<path d="M70.0204 46.0415C70.013 46.0635 70.0115 46.0789 70.016 46.0879C70.0195 46.0959 70.0252 46.1029 70.0323 46.1081C70.0395 46.1133 70.0479 46.1166 70.0569 46.1176C70.0658 46.1187 70.075 46.1174 70.0835 46.1141C70.092 46.1107 70.0996 46.1053 70.1056 46.0983C70.138 46.061 70.1686 46.0211 70.1975 45.9788C70.2119 45.9585 70.2298 45.9408 70.2506 45.9265C70.3836 45.8368 70.4658 45.7075 70.5629 45.6134C70.9435 45.2453 71.1672 45.04 71.2339 44.9977C71.4466 44.8632 71.6571 44.7327 71.8653 44.6061C74.0121 44.0704 76.4084 43.5735 78.5155 44.5852C78.7392 44.6923 78.9641 44.8032 79.1903 44.9177C79.5559 45.2405 79.8376 45.5638 80.0354 45.8876C80.1818 46.1277 80.2809 46.2836 80.3328 46.3554C80.5091 47.1093 80.7123 48.0501 80.4022 48.8496C80.2169 49.3285 79.8149 49.8172 79.5145 50.2872C79.5033 50.3054 79.4966 50.3262 79.4951 50.3477L79.4787 50.5831C79.4926 49.5505 79.4744 48.8737 79.4241 48.5529C79.2553 47.4717 78.7098 46.4211 77.7623 45.8278C77.2487 45.5055 76.6589 45.3068 75.9929 45.2316C75.2113 45.1429 74.44 45.1969 73.6788 45.3937C73.085 45.5471 72.5704 45.7661 72.1351 46.0505C71.6867 46.3427 71.2989 46.7917 70.9597 47.2408C70.755 47.5128 70.6297 47.6989 70.5838 47.799C70.4987 47.9873 70.3881 48.2558 70.2521 48.6045C70.1699 48.8142 70.1208 49.1206 70.1049 49.5236C70.0939 49.8045 70.0877 50.1442 70.0862 50.5428C70.0762 53.5391 70.0717 56.0398 70.0727 58.0448C70.0727 58.0617 70.0694 58.0784 70.063 58.094C70.0565 58.1096 70.047 58.1237 70.0351 58.1357C70.0232 58.1476 70.009 58.1571 69.9934 58.1635C69.9778 58.17 69.9611 58.1733 69.9442 58.1733H68.2473C68.2213 58.1733 68.1964 58.1631 68.1781 58.1449C68.1597 58.1267 68.1494 58.1019 68.1494 58.0762V43.6811C68.1494 43.6687 68.1542 43.6567 68.1629 43.6478C68.1715 43.6389 68.1833 43.6337 68.1957 43.6333L69.8194 43.5877C69.8337 43.5873 69.8478 43.5897 69.8611 43.5949C69.8743 43.6 69.8864 43.6078 69.8967 43.6176C69.9069 43.6275 69.9151 43.6394 69.9207 43.6524C69.9263 43.6655 69.9292 43.6796 69.9293 43.6938C69.9343 44.5924 69.9333 45.3626 69.9263 46.0042C69.9258 46.0475 69.9572 46.06 70.0204 46.0415ZM72.5019 45.5559C72.9077 45.0732 71.4715 44.71 71.3109 45.4632C71.2526 45.7382 71.5029 45.9481 71.7786 45.9339C72.0611 45.92 72.3022 45.794 72.5019 45.5559Z" fill="#DEB254"/>
<path d="M53.5578 43.7409C53.5503 43.7379 53.5436 43.7444 53.5376 43.7603C53.2576 43.7394 52.9319 43.7549 52.5602 43.8067C51.7453 43.9197 51.0026 44.1539 50.3321 44.5091C49.6695 44.9175 49.0802 45.4144 48.5641 45.9997C48.4595 46.0864 48.3719 46.1895 48.3011 46.3091C48.2917 46.325 48.2618 46.3469 48.2115 46.3748C48.2073 46.3771 48.2027 46.3783 48.198 46.3783C48.1933 46.3783 48.1886 46.3772 48.1845 46.3749C48.1803 46.3727 48.1768 46.3695 48.1742 46.3656C48.1716 46.3616 48.17 46.3571 48.1696 46.3524C48.1671 46.328 48.1716 46.3041 48.1831 46.2807C48.195 46.2941 48.2112 46.2887 48.2316 46.2643C48.6575 45.7547 49.1318 45.2934 49.6543 44.8804C50.7303 44.0301 52.0798 43.6341 53.4487 43.6266C53.5134 43.6261 53.5498 43.6642 53.5578 43.7409Z" fill="#DEB254"/>
<path d="M104.137 44.0585C104.137 43.9902 104.135 43.9551 104.129 43.9531C104.12 43.9499 104.11 43.949 104.1 43.9504C104.09 43.9518 104.081 43.9555 104.073 43.9612C104.065 43.9669 104.058 43.9743 104.053 43.9831C104.048 43.9918 104.046 44.0015 104.046 44.0114C104.028 44.6864 104.015 45.3153 104.007 45.8981C104.005 46.1228 104.049 46.2749 104.138 46.3546C104.2 46.3028 104.237 46.2627 104.248 46.2343C104.38 46.2324 104.487 46.1509 104.569 45.99C104.58 45.9687 104.595 45.9495 104.612 45.9332C104.66 45.8869 104.74 45.7897 104.852 45.6418C105.101 45.312 105.419 45.0121 105.807 44.7422C105.977 44.6236 106.245 44.4951 106.612 44.3566C107.084 44.1793 107.364 44.0754 107.452 44.045C108.092 43.8233 108.774 43.7319 109.5 43.7708L109.497 45.0956C109.497 45.1307 109.483 45.1643 109.459 45.1892C109.434 45.214 109.401 45.2282 109.366 45.2286C108.696 45.2376 108.026 45.2869 107.387 45.4871C107.352 45.4986 107.087 45.6139 106.594 45.8331C106.393 45.9223 106.177 46.0802 105.945 46.3068C105.49 46.7527 105.15 47.1973 104.927 47.6406C104.718 48.0556 104.533 48.534 104.373 49.076C104.354 49.1406 104.342 49.2072 104.338 49.2748C104.311 49.6783 104.267 50.0541 104.269 50.4882C104.27 50.962 104.272 51.4098 104.275 51.8317C104.284 53.6913 104.289 55.7524 104.289 58.0149C104.289 58.131 104.242 58.189 104.147 58.189C103.299 58.1905 102.747 58.1918 102.492 58.1928C102.473 58.1928 102.454 58.185 102.44 58.1713C102.427 58.1576 102.419 58.139 102.419 58.1195L102.361 43.6744C102.361 43.6667 102.363 43.6592 102.366 43.6521C102.369 43.645 102.373 43.6386 102.378 43.6332C102.384 43.6278 102.39 43.6235 102.397 43.6205C102.404 43.6176 102.412 43.6161 102.42 43.6161L104.087 43.6094C104.094 43.6093 104.1 43.6106 104.107 43.6132C104.113 43.6157 104.119 43.6196 104.124 43.6245C104.129 43.6294 104.133 43.6352 104.135 43.6416C104.138 43.6479 104.139 43.6548 104.139 43.6617L104.137 44.0585Z" fill="#DEB254"/>
<path d="M48.1396 43.8305L47.6763 43.8492L46.7251 43.8634C46.7062 43.8636 46.6881 43.8713 46.6748 43.8849C46.6615 43.8985 46.6541 43.9168 46.6541 43.9359L46.6571 46.6401L46.6519 46.8269C46.6055 46.8737 46.5562 46.8802 46.5039 46.8463L46.5091 43.7401C46.5091 43.7253 46.515 43.711 46.5256 43.7005C46.5361 43.69 46.5503 43.6841 46.5652 43.6841L48.0036 43.6654C48.0436 43.6649 48.0826 43.6787 48.1134 43.7043C48.1224 43.7122 48.1311 43.7543 48.1396 43.8305Z" fill="#DEB254"/>
<path d="M63.9966 43.7655C63.9931 43.8238 63.9353 43.8525 63.8232 43.8515C63.3161 43.8465 62.0922 43.846 60.1514 43.85C60.0075 43.8589 59.8692 43.8567 59.7367 43.8432C59.7023 43.8398 59.6797 43.8216 59.6687 43.7887C59.6592 43.7593 59.6747 43.7274 59.715 43.693C61.0939 43.6965 62.4728 43.694 63.8516 43.6856C63.9338 43.6846 63.9821 43.7112 63.9966 43.7655Z" fill="#DEB254"/>
<path d="M79.1902 44.9177C78.964 44.8031 78.7391 44.6923 78.5154 44.5852C76.4083 43.5734 74.012 44.0703 71.8652 44.6061C72.1043 44.4552 72.3534 44.3306 72.6124 44.2325C73.1544 44.0273 73.5467 43.9027 73.7893 43.8589C74.2743 43.7715 74.7831 43.687 75.2045 43.6952C75.5333 43.702 75.7769 43.6601 76.0758 43.696C77.0666 43.816 77.9824 44.1276 78.8233 44.6308C78.8866 44.6681 79.0089 44.7638 79.1902 44.9177Z" fill="#DEB254"/>
<path d="M38.8324 44.2908C38.4568 44.2206 38.089 44.1327 37.7288 44.027C37.4324 43.9399 37.1873 43.905 36.9935 43.9224C36.4819 43.9683 35.8326 44.1085 35.0455 44.3431C34.6891 44.45 34.1377 44.4559 33.7118 44.3214C33.3875 44.2191 33.1865 44.1668 32.7695 44.2064C32.8816 44.168 33.1616 44.0906 33.6094 43.974C34.5061 43.7404 35.3778 43.6432 36.2247 43.6826C37.1283 43.7244 37.9975 43.9272 38.8324 44.2908Z" fill="#DEB254"/>
<path d="M119.6 43.9008C120.03 44.0133 120.453 44.1526 120.867 44.3184C121.267 44.4784 121.655 44.6873 122.03 44.9454C122.049 44.9586 122.063 44.9781 122.07 45.0005C122.076 45.023 122.075 45.047 122.066 45.0687C121.907 45.4602 121.705 45.8365 121.461 46.1977C121.447 46.2182 121.426 46.2329 121.402 46.2389C121.378 46.245 121.353 46.242 121.331 46.2306L120.324 45.7008C120.683 45.6993 120.973 45.851 121.294 45.9974C121.32 46.0093 121.35 46.0118 121.378 46.0046C121.405 45.9974 121.43 45.9809 121.447 45.9578C121.605 45.7451 121.722 45.5028 121.798 45.2308C121.804 45.2076 121.802 45.1828 121.792 45.1606C121.682 44.9219 121.482 44.7436 121.192 44.6256C120.419 44.311 119.67 44.1257 118.793 44.0113C118.18 43.9316 117.821 43.8853 117.716 43.8724C117.118 43.7996 116.642 43.7984 116.289 43.8686C115.86 43.9543 115.426 44.0377 114.987 44.1189C114.797 44.1543 114.427 44.2724 113.879 44.4731C114.176 44.2943 114.458 44.1765 114.725 44.1197C114.955 44.0714 115.464 43.9575 116.254 43.7782C116.632 43.6923 117.136 43.7311 117.567 43.7491C118.281 43.779 118.986 43.8691 119.68 44.0196C119.686 44.0208 119.691 44.0201 119.696 44.0177C119.701 44.0152 119.705 44.0112 119.707 44.0062C119.71 44.0012 119.71 43.9955 119.709 43.9902C119.707 43.9849 119.704 43.9802 119.7 43.977L119.6 43.9008Z" fill="#DEB254"/>
<path d="M53.5376 43.7602C53.2947 43.9336 53.0355 44.0793 52.8793 44.3431C52.6865 44.6689 52.3062 44.8796 51.9639 44.9431C51.3771 45.0517 50.8332 44.907 50.332 44.509C51.0025 44.1538 51.7453 43.9197 52.5602 43.8066C52.9318 43.7548 53.2576 43.7393 53.5376 43.7602Z" fill="#DEB254"/>
<path d="M53.5571 43.7409V45.1196C53.1033 45.0812 52.6644 45.1026 52.2405 45.1838C52.0497 45.2207 51.8318 45.2827 51.5867 45.3699C50.912 45.5559 50.424 45.9594 49.8741 46.3674C49.8648 46.3743 49.854 46.379 49.8426 46.3809C49.8311 46.3829 49.8194 46.3821 49.8083 46.3786L48.5635 45.9998C49.0796 45.4145 49.6689 44.9176 50.3314 44.5091C50.8325 44.9071 51.3765 45.0518 51.9633 44.9432C52.3055 44.8797 52.6859 44.669 52.8786 44.3432C53.0348 44.0794 53.2941 43.9337 53.5369 43.7604C53.5429 43.7444 53.5496 43.738 53.5571 43.7409Z" fill="#DEB254"/>
<path d="M64.0007 43.8589L63.2587 43.9232C63.2479 43.9241 63.2376 43.9284 63.2295 43.9356C63.2215 43.9427 63.216 43.9523 63.2139 43.9628C63.1217 44.3947 63.1576 44.7635 63.3215 45.0694C62.2011 45.0779 61.0557 45.0873 59.885 45.0978C59.7874 45.0988 59.7204 45.1247 59.684 45.1755C59.6774 45.1847 59.6747 45.196 59.6764 45.2072C59.678 45.2184 59.684 45.2284 59.693 45.2353C59.7045 45.2437 59.7162 45.248 59.7281 45.248L59.625 45.2592C59.7152 45.1451 59.8145 45.0836 59.9231 45.0746C60.2509 45.0472 60.5 45.0188 60.6704 44.9894C60.6749 44.9887 60.6792 44.9867 60.6827 44.9838C60.6862 44.9808 60.689 44.977 60.6905 44.9727C60.6921 44.9684 60.6926 44.9637 60.6918 44.9592C60.691 44.9546 60.689 44.9504 60.686 44.9468C60.4335 44.6323 60.2945 44.2258 60.151 43.8499C62.0918 43.846 63.3157 43.8465 63.8229 43.8514C63.9349 43.8524 63.9927 43.8238 63.9962 43.7655L64.0007 43.8589Z" fill="#DEB254"/>
<path d="M120.325 45.7008C119.853 45.4951 119.324 45.3419 118.736 45.2413C117.976 45.1113 117.248 45.0816 116.551 45.1524C116.314 45.0144 116.031 44.972 115.702 45.0253C115.005 45.1379 114.481 45.4298 114.13 45.9011C113.676 46.3429 113.417 46.8662 113.352 47.471C113.28 48.1465 113.51 48.6987 114.043 49.1276C114.186 49.2426 114.426 49.3637 114.763 49.4907C115.062 49.6028 115.4 49.7066 115.779 49.8023C116.016 49.8621 116.518 49.9724 117.284 50.1333C117.329 50.3405 117.461 50.5067 117.68 50.6317C118.018 50.8252 118.539 50.8222 118.855 50.8499C119.924 50.9433 121.162 51.2833 121.871 52.1306C122.03 52.3204 122.174 52.6215 122.315 52.8629C122.42 53.1946 122.504 53.5326 122.566 53.8768C122.68 54.512 122.471 55.2368 122.192 55.8248C121.918 56.2978 121.694 56.6998 121.259 57.0047L120.727 57.1579C120.721 57.1593 120.716 57.1595 120.711 57.1585C120.705 57.1574 120.7 57.155 120.696 57.1517C120.692 57.1483 120.689 57.1439 120.687 57.139C120.684 57.1341 120.684 57.1288 120.684 57.1235C120.705 56.8754 120.654 56.6122 120.53 56.3337C120.401 56.0423 120.652 55.7673 120.835 55.5028C121.089 55.1359 121.174 54.7668 121.159 54.3035C121.121 53.0818 120.388 52.4818 119.351 52.0357C118.522 51.6795 117.717 51.4419 116.938 51.3229C116.863 51.3114 116.444 51.2775 115.681 51.2212C115.451 51.2038 115.002 51.0992 114.334 50.9074C113.609 50.6982 112.841 50.2476 112.414 49.5639C111.821 48.6165 111.63 47.3522 111.969 46.2597C112.282 45.3907 113.017 44.7765 113.879 44.4732C114.428 44.2724 114.797 44.1543 114.987 44.119C115.426 44.0378 115.86 43.9543 116.29 43.8687C116.642 43.7984 117.118 43.7997 117.716 43.8724C117.821 43.8853 118.18 43.9317 118.793 44.0114C119.67 44.1257 120.42 44.311 121.192 44.6256C121.483 44.7436 121.683 44.922 121.792 45.1606C121.802 45.1828 121.804 45.2077 121.798 45.2308C121.722 45.5028 121.605 45.7452 121.447 45.9579C121.43 45.9809 121.406 45.9974 121.378 46.0046C121.35 46.0118 121.321 46.0093 121.295 45.9975C120.973 45.851 120.683 45.6993 120.325 45.7008Z" fill="#DEB254"/>
<path d="M48.1394 43.8306L48.1827 46.2807C48.1713 46.3041 48.1668 46.328 48.1693 46.3524C48.1697 46.3571 48.1713 46.3616 48.1739 46.3655C48.1765 46.3695 48.18 46.3727 48.1841 46.3749C48.1883 46.3771 48.1929 46.3783 48.1976 46.3783C48.2023 46.3783 48.207 46.3771 48.2111 46.3748C48.2614 46.3469 48.2913 46.325 48.3008 46.3091C48.3715 46.1895 48.4592 46.0864 48.5638 45.9997L49.8087 46.3786C49.8197 46.382 49.8315 46.3828 49.8429 46.3809C49.8543 46.3789 49.8651 46.3743 49.8744 46.3674C50.4244 45.9594 50.9123 45.5559 51.587 45.3698C51.6159 45.3997 51.6535 45.4194 51.6999 45.4289C51.0513 45.6246 50.4147 45.9609 49.9551 46.4593C49.7877 46.6401 49.5471 46.8665 49.3775 47.0929C49.0363 47.5472 48.7571 48.0959 48.5399 48.739C48.4647 48.9622 48.4231 49.1587 48.4151 49.3286C48.3932 49.8003 48.3827 50.2237 48.3837 50.5988C48.3917 53.0437 48.388 55.4585 48.3725 57.8431C48.3725 57.8441 48.3678 57.8964 48.3583 58C48.3543 58.0443 48.3531 58.0969 48.3546 58.1577C47.5137 56.9721 46.8998 55.716 46.5127 54.3895L46.5149 51.7406C46.6195 51.3221 46.6684 50.8599 46.6614 50.3537C46.6549 49.8636 46.6517 48.688 46.6517 46.8269L46.6569 46.6401L46.6868 48.6411C46.6873 48.6608 46.6919 48.6802 46.7002 48.6979C46.7451 48.7966 46.7976 48.8745 46.8579 48.9318C46.8693 48.9424 46.883 48.9503 46.8978 48.9549C46.9127 48.9594 46.9284 48.9606 46.9438 48.9582C46.9592 48.9558 46.9739 48.95 46.9867 48.9412C46.9995 48.9323 47.0101 48.9207 47.0178 48.9071C47.09 48.7786 47.1384 48.6262 47.1628 48.4498C47.2353 47.9275 47.2151 47.2655 47.576 46.8082C47.7015 46.6483 47.8831 46.5265 47.9503 46.3218C48.0076 46.1474 48.0333 45.9708 48.0273 45.792C48.0054 45.1056 48.0019 44.4894 48.0168 43.9434C48.017 43.9321 48.0131 43.9211 48.0058 43.9125C47.9985 43.9039 47.9884 43.8981 47.9772 43.8963L47.6761 43.8492L48.1394 43.8306Z" fill="#DEB254"/>
<path d="M104.136 44.0584L104.138 46.3546C104.048 46.2749 104.004 46.1227 104.007 45.898C104.014 45.3152 104.027 44.6863 104.045 44.0113C104.045 44.0014 104.048 43.9917 104.053 43.983C104.057 43.9743 104.064 43.9668 104.072 43.9611C104.08 43.9554 104.09 43.9518 104.1 43.9503C104.109 43.9489 104.119 43.9499 104.129 43.953C104.134 43.955 104.137 43.9901 104.136 44.0584Z" fill="#DEB254"/>
<path d="M55.2969 43.8844C55.2372 44.3118 55.2486 44.7073 55.3313 45.0709C55.3438 45.0744 55.3562 45.0777 55.3687 45.0806L56.9035 45.109C56.9062 45.109 56.9089 45.1101 56.9109 45.1121C56.9128 45.1141 56.9139 45.1167 56.9139 45.1195L56.9147 45.1442C56.9149 45.1492 56.9132 45.1542 56.9099 45.1582C56.9066 45.1622 56.9019 45.1649 56.8967 45.1658L56.5321 45.2219C56.1336 45.2278 55.7343 45.2346 55.3343 45.242C55.2162 45.244 55.1565 45.185 55.155 45.065C55.1485 44.6575 55.1507 44.2482 55.1617 43.8373C55.2115 43.8672 55.2566 43.8829 55.2969 43.8844Z" fill="#DEB254"/>
<path d="M38.8327 44.2908L39.2436 44.5135C39.4663 44.6191 39.6571 44.7534 39.816 44.9162C39.3243 45.192 39.3109 45.6971 39.3871 46.1902C39.4354 46.5021 39.4964 46.8154 39.5702 47.1302C39.1592 46.2284 38.3836 45.597 37.4488 45.3093C37.1519 45.2181 36.7674 45.1618 36.2951 45.1404C35.5315 45.1065 34.7661 45.1474 33.9989 45.263C34.1603 45.1329 34.3407 45.0346 34.5399 44.9678C34.5435 44.9666 34.5467 44.9645 34.5492 44.9616C34.5516 44.9587 34.5532 44.9552 34.5537 44.9515C34.5543 44.9478 34.5538 44.9439 34.5522 44.9405C34.5507 44.937 34.5483 44.9341 34.5452 44.9319C34.2094 44.6968 33.838 44.5678 33.4311 44.5449C33.054 44.524 32.772 44.4953 32.5852 44.4589C32.4365 44.4298 32.2699 44.4477 32.1548 44.4918C31.9252 44.579 31.6945 44.6654 31.4629 44.7511C31.8739 44.504 32.3095 44.3225 32.7698 44.2064C33.1867 44.1668 33.3877 44.2191 33.712 44.3215C34.1379 44.456 34.6894 44.45 35.0458 44.3431C35.8329 44.1085 36.4822 43.9683 36.9938 43.9224C37.1876 43.905 37.4326 43.9399 37.729 44.0271C38.0892 44.1327 38.4571 44.2206 38.8327 44.2908Z" fill="#DEB254"/>
<path d="M47.6765 43.8492L47.9776 43.8963C47.9888 43.8981 47.9989 43.9039 48.0062 43.9125C48.0134 43.9211 48.0174 43.9321 48.0172 43.9434C48.0023 44.4894 48.0058 45.1056 48.0277 45.792C48.0337 45.9708 48.008 46.1474 47.9507 46.3218C47.8835 46.5265 47.7019 46.6483 47.5764 46.8082C47.2155 47.2655 47.2356 47.9275 47.1631 48.4498C47.1387 48.6262 47.0904 48.7786 47.0182 48.9071C47.0105 48.9207 46.9999 48.9323 46.9871 48.9411C46.9742 48.95 46.9596 48.9558 46.9442 48.9582C46.9288 48.9606 46.9131 48.9594 46.8982 48.9548C46.8833 48.9503 46.8697 48.9424 46.8583 48.9318C46.798 48.8745 46.7455 48.7966 46.7006 48.6979C46.6922 48.6802 46.6877 48.6608 46.6872 48.6411L46.6573 46.6401L46.6543 43.9359C46.6543 43.9168 46.6617 43.8985 46.675 43.8849C46.6883 43.8714 46.7064 43.8636 46.7253 43.8634L47.6765 43.8492Z" fill="#DEB254"/>
<path d="M64.0006 43.859C63.9877 44.2989 63.982 44.7397 63.9834 45.1816C63.9839 45.2025 63.9747 45.2145 63.9558 45.2174L63.9536 45.1315C63.9532 45.1219 63.9492 45.1128 63.9424 45.106C63.9356 45.0992 63.9265 45.0953 63.9169 45.0949L63.3214 45.0695C63.1575 44.7636 63.1217 44.3948 63.2138 43.9629C63.2159 43.9524 63.2214 43.9428 63.2295 43.9357C63.2376 43.9285 63.2478 43.9242 63.2586 43.9233L64.0006 43.859Z" fill="#DEB254"/>
<path d="M57.223 43.8687C56.7956 44.0958 56.8053 44.5688 56.8269 44.9745C56.8279 44.9959 56.8371 45.016 56.8525 45.0308C56.868 45.0455 56.8885 45.0538 56.9099 45.0537L57.8372 45.0582C57.8485 45.0583 57.8597 45.0607 57.87 45.0653C57.8804 45.07 57.8896 45.0768 57.8972 45.0852C57.9047 45.0937 57.9104 45.1036 57.9138 45.1144C57.9173 45.1252 57.9184 45.1366 57.9171 45.1479C57.9042 45.2689 57.8586 45.3882 57.7804 45.5058C57.7963 45.4097 57.7879 45.3362 57.755 45.2854C57.7486 45.2753 57.7397 45.2669 57.7293 45.261C57.7189 45.2552 57.7072 45.252 57.6952 45.2517L56.5325 45.2219L56.8972 45.1658C56.9024 45.1649 56.907 45.1622 56.9103 45.1582C56.9136 45.1542 56.9153 45.1492 56.9151 45.1441L56.9144 45.1195C56.9144 45.1167 56.9133 45.1141 56.9113 45.1121C56.9093 45.1101 56.9067 45.109 56.9039 45.109L55.3691 45.0806L56.0229 45.0575C56.0334 45.0571 56.0432 45.0527 56.0505 45.0454C56.0577 45.038 56.0618 45.0281 56.0618 45.0179C56.0685 44.5217 55.7711 44.2086 55.3908 43.9404C55.3866 43.9374 55.3817 43.9355 55.3766 43.935C55.3715 43.9344 55.3663 43.9351 55.3616 43.937C55.3568 43.9389 55.3526 43.942 55.3493 43.946C55.3461 43.95 55.3439 43.9548 55.343 43.9598C55.2782 44.318 55.2745 44.6883 55.3318 45.0709C55.2491 44.7073 55.2376 44.3118 55.2974 43.8843L57.223 43.8687Z" fill="#DEB254"/>
<path d="M55.3687 45.0807C55.3563 45.0777 55.3438 45.0745 55.3314 45.071C55.2741 44.6884 55.2778 44.318 55.3426 43.9599C55.3435 43.9548 55.3457 43.9501 55.3489 43.9461C55.3522 43.9421 55.3564 43.939 55.3612 43.9371C55.3659 43.9351 55.3711 43.9344 55.3762 43.935C55.3813 43.9356 55.3862 43.9375 55.3904 43.9404C55.7707 44.2087 56.0681 44.5218 56.0614 45.0179C56.0614 45.0282 56.0573 45.038 56.0501 45.0454C56.0428 45.0528 56.033 45.0571 56.0225 45.0575L55.3687 45.0807Z" fill="#DEB254"/>
<path d="M89.1621 51.426L86.6956 51.4036C86.685 51.4036 86.6747 51.4072 86.6664 51.4137C86.6582 51.4202 86.6524 51.4293 86.65 51.4395C86.6306 51.5331 86.6288 51.6447 86.6448 51.7742C86.728 52.4387 86.8717 53.0365 87.0759 53.5675C86.7731 52.9319 86.5696 52.3493 86.4654 51.8198C86.4341 51.6594 86.4739 51.4686 86.585 51.2474C86.5966 51.2247 86.6154 51.207 86.638 51.1974C86.8318 51.1142 86.994 51.0188 87.1245 50.9112C87.4936 50.6071 86.8286 50.3515 86.6254 50.282C86.6143 50.2783 86.6043 50.272 86.5962 50.2637C86.5881 50.2554 86.5822 50.2452 86.579 50.2342C86.4774 49.8974 86.4515 49.6374 86.5013 49.4541C86.5596 49.2394 86.7168 48.9495 86.9728 48.5843L86.6149 49.9039C86.6113 49.9167 86.6108 49.9301 86.6133 49.9431C86.6158 49.9562 86.6214 49.9684 86.6295 49.979C86.6376 49.9896 86.648 49.9981 86.66 50.004C86.672 50.0099 86.6852 50.013 86.6986 50.013L89.816 50.019C89.6556 50.025 89.5196 50.0566 89.408 50.1139C89.3998 50.118 89.393 50.1244 89.3885 50.1325C89.3841 50.1405 89.3823 50.1497 89.3833 50.1589C89.3842 50.168 89.388 50.1766 89.394 50.1835C89.4 50.1904 89.408 50.1954 89.4169 50.1976C89.6336 50.2534 89.8155 50.2798 89.9624 50.2768C90.8464 50.2581 91.8999 50.2955 92.8377 50.2529C93.6551 50.2155 94.3142 50.2454 95.1683 50.211C95.5772 50.1946 95.9738 50.1931 96.3578 50.2065C96.5626 50.2133 96.8704 50.1879 96.9907 50.007C96.9918 50.0053 96.9924 50.0034 96.9924 50.0013C96.9925 49.9993 96.992 49.9973 96.991 49.9955C96.99 49.9938 96.9885 49.9923 96.9868 49.9913C96.985 49.9903 96.983 49.9898 96.981 49.9899L95.444 50.0182C95.8789 50.0098 96.3135 50.0038 96.7479 50.0003C96.8385 49.9993 96.9177 49.9767 96.9855 49.9323C96.9949 49.926 97.0024 49.9173 97.0072 49.907C97.0119 49.8967 97.0137 49.8853 97.0124 49.874C96.9581 49.3669 96.851 48.875 96.6911 48.3983C96.8774 48.8451 97.0211 49.3086 97.1222 49.7889C97.191 50.1176 97.4517 50.9448 97.9344 50.7856C98.3409 50.6511 98.2752 49.9674 98.2326 49.6424C98.1205 48.7816 97.986 47.9096 97.309 47.3641C97.0978 47.1938 96.9132 47.0189 96.7553 46.8396C96.6738 46.7467 96.609 46.6399 96.5641 46.5243C96.4116 46.132 96.3212 45.7875 96.0582 45.5387C95.8923 45.3818 95.6016 45.2988 95.4417 45.5051C95.305 45.6829 95.4223 46.0065 95.5217 46.1522C95.6263 46.3061 95.8246 46.5841 96.1165 46.9861C96.2938 47.2306 96.3927 47.4954 96.4131 47.7803C96.1327 47.2369 95.8218 46.7933 95.4806 46.4495C95.0123 45.9783 94.436 45.6368 93.7515 45.4251C93.2987 45.2856 92.9647 45.2007 92.7495 45.1703C91.5052 44.9965 90.338 45.2084 89.2481 45.8062C88.9696 45.9591 88.5604 46.2722 88.0204 46.7454C88.2391 46.3111 88.6271 45.9452 89.1846 45.6478C89.8112 45.3135 90.3766 45.0926 90.8807 44.985C91.0571 44.9469 91.341 44.8468 91.4568 44.7825C91.4689 44.7758 91.4832 44.7737 91.4972 44.7765C91.5251 44.783 91.5572 44.7745 91.5936 44.7511C91.6205 44.7342 91.626 44.6991 91.61 44.6458C91.6016 44.6184 91.5993 44.5559 91.6033 44.4582C91.6037 44.4463 91.6001 44.4346 91.5931 44.425C91.586 44.4153 91.5759 44.4084 91.5644 44.4052C91.2765 44.3265 90.9971 44.2674 90.7261 44.2281C90.4934 44.1942 89.9788 44.2129 89.1823 44.2841C90.3091 44.0978 91.4436 44.041 92.5859 44.1138C93.4945 44.1715 94.2445 44.2488 94.8357 44.3454C94.9882 44.3703 95.2477 44.5046 95.6143 44.7481C96.1531 45.1053 96.7628 45.6306 97.1476 46.194C97.4281 46.6035 97.6296 46.921 97.7521 47.1467C98.1008 47.7903 98.3185 48.4665 98.4052 49.1754C98.4535 49.5729 98.5031 49.9831 98.5539 50.4061C98.6301 51.0472 98.3693 51.2639 97.7484 51.2287C97.0809 51.1914 96.5842 51.1612 96.2584 51.1383C95.845 51.1089 95.3483 51.1062 94.7685 51.1301C93.8684 51.167 92.756 51.1866 91.4314 51.1891C90.735 51.1899 89.934 51.1226 89.2369 51.1779C89.067 51.1914 88.879 51.2352 88.6727 51.3094C88.6701 51.3106 88.668 51.3125 88.6665 51.3149C88.6651 51.3173 88.6645 51.3201 88.6647 51.3229C88.665 51.3258 88.6661 51.3284 88.6679 51.3305C88.6698 51.3327 88.6722 51.3342 88.675 51.3348L89.1621 51.426Z" fill="#DEB254"/>
<path d="M88.0207 46.7454C87.5838 47.3023 87.2346 47.9153 86.9731 48.5843C86.717 48.9494 86.5599 49.2394 86.5016 49.4541C86.4518 49.6374 86.4777 49.8974 86.5793 50.2342C86.5825 50.2452 86.5884 50.2553 86.5964 50.2636C86.6045 50.272 86.6145 50.2783 86.6256 50.282C86.8289 50.3515 87.4939 50.607 87.1247 50.9111C86.9942 51.0187 86.8321 51.1141 86.6383 51.1973C86.6157 51.2069 86.5969 51.2247 86.5853 51.2474C86.4742 51.4686 86.4343 51.6593 86.4657 51.8197C86.5698 52.3493 86.7733 52.9318 87.0762 53.5675C87.4448 54.4352 88.0388 55.1478 88.8583 55.7053C89.4048 56.0769 89.9624 56.3391 90.5313 56.4921C90.4496 56.5444 90.4043 56.6024 90.3953 56.6662C90.3669 56.8754 90.3475 56.9837 90.198 57.1153C90.0521 57.2433 89.9121 57.3556 89.7781 57.4522C89.2416 57.8378 88.256 57.0308 87.7457 56.72C87.6735 56.6761 87.4971 56.5284 87.2167 56.2769C86.979 56.0642 86.7247 55.8736 86.4537 55.7053C85.9576 55.0935 85.5768 54.4325 85.3113 53.7222C85.0893 53.1281 84.8824 52.3779 84.8293 51.7069C84.7695 50.9502 84.7733 50.3243 84.8405 49.8292C84.8834 49.5143 84.9962 48.9985 85.179 48.2817C85.186 48.2539 85.1962 48.227 85.2096 48.2017C85.2425 48.1375 85.2991 48.0107 85.3793 47.8214C85.6194 47.254 85.9379 46.7267 86.3349 46.2395C87.0194 45.568 87.7183 45.0154 88.4316 44.5815C88.6428 44.453 88.8932 44.3538 89.1826 44.2841C89.9791 44.2129 90.4937 44.1942 90.7263 44.228C90.9973 44.2674 91.2768 44.3264 91.5647 44.4051C91.5762 44.4083 91.5863 44.4153 91.5933 44.4249C91.6004 44.4345 91.604 44.4463 91.6036 44.4582C91.5996 44.5558 91.6018 44.6183 91.6103 44.6457C91.6262 44.699 91.6207 44.7342 91.5938 44.7511C91.5575 44.7745 91.5253 44.783 91.4974 44.7765C91.4835 44.7736 91.4691 44.7757 91.4571 44.7825C91.3413 44.8467 91.0573 44.9469 90.881 44.985C90.3769 45.0926 89.8115 45.3135 89.1848 45.6478C88.6274 45.9451 88.2393 46.311 88.0207 46.7454Z" fill="#DEB254"/>
<path d="M33.9989 45.2629C33.7453 45.2968 33.4666 45.3763 33.1628 45.5013C32.6263 45.722 32.2357 45.9118 31.9911 46.0707C31.6688 46.2804 31.3298 46.5173 30.9742 46.7813C30.9647 46.7883 30.9538 46.7932 30.9423 46.7957C30.9308 46.7982 30.9189 46.7982 30.9073 46.7957C30.8958 46.7933 30.885 46.7884 30.8755 46.7814C30.866 46.7743 30.8581 46.7654 30.8524 46.7551L30.1582 45.5297C30.2982 45.4903 30.4152 45.4365 30.5094 45.3683C30.8566 45.1147 31.1744 44.909 31.4628 44.7511C31.6945 44.6654 31.9251 44.579 32.1548 44.4918C32.2698 44.4477 32.4365 44.4298 32.5852 44.4589C32.772 44.4953 33.0539 44.5239 33.431 44.5449C33.838 44.5678 34.2094 44.6968 34.5451 44.9319C34.5482 44.934 34.5507 44.937 34.5522 44.9405C34.5537 44.9439 34.5542 44.9477 34.5537 44.9515C34.5531 44.9552 34.5515 44.9587 34.5491 44.9616C34.5467 44.9645 34.5435 44.9666 34.5399 44.9678C34.3406 45.0345 34.1603 45.1329 33.9989 45.2629Z" fill="#DEB254"/>
<path d="M40.8826 46.0848C40.7745 46.0405 40.6933 45.9456 40.639 45.8001C40.6305 45.7778 40.619 45.7569 40.6046 45.7381C40.3705 45.4323 40.1074 45.1583 39.8155 44.9162C39.6566 44.7533 39.4658 44.619 39.2432 44.5134C39.2661 44.489 39.282 44.4601 39.291 44.4268C39.9615 44.8138 40.492 45.3665 40.8826 46.0848Z" fill="#DEB254"/>
<path d="M14.175 45.1285L14.1631 49.9039C14.0834 49.4541 14.0415 49.0805 14.0375 48.7831C14.0316 48.3564 14.0913 47.5322 14.0921 46.8844C14.0936 46.3591 14.0629 46.058 14.1167 45.4886C14.1406 45.2371 14.1451 44.9763 14.1302 44.7063C14.1301 44.7032 14.1306 44.7002 14.1317 44.6974C14.1327 44.6945 14.1344 44.6919 14.1364 44.6897C14.1385 44.6875 14.141 44.6857 14.1438 44.6844C14.1466 44.6832 14.1496 44.6825 14.1526 44.6824H14.1533C14.1581 44.6824 14.1627 44.6843 14.166 44.6876C14.1694 44.691 14.1713 44.6955 14.1713 44.7003L14.175 45.1285Z" fill="#DEB254"/>
<path d="M39.8152 44.9163C40.1071 45.1584 40.3701 45.4323 40.6042 45.7382C40.6186 45.757 40.6302 45.7779 40.6386 45.8002C40.6929 45.9457 40.7741 46.0406 40.8822 46.0849C40.9873 46.2219 41.0837 46.395 41.1713 46.6042C41.4359 47.2393 41.5928 47.9108 41.6421 48.6187C41.674 49.0695 41.6884 49.5497 41.6854 50.0593C41.6725 52.5685 41.6687 54.6315 41.6742 56.2485C41.6757 56.7439 41.6526 57.3813 41.6697 57.9402C41.6732 58.0573 41.6177 58.1245 41.5031 58.142C41.6501 57.7713 41.6929 57.3736 41.6316 56.9487C41.6282 56.9254 41.6206 56.9029 41.6092 56.8822C41.4124 56.528 41.2304 56.2328 41.063 55.9967C40.3957 55.0552 39.7905 55.9683 39.4199 56.5407C38.7698 57.134 38.1145 57.6309 37.3135 57.929C37.5152 57.802 37.8739 57.6092 37.8373 57.3282C37.782 56.9031 37.723 56.7073 37.8298 56.4054L38.7519 55.7456C39.2007 55.3581 39.5633 54.9088 39.8398 54.3977C39.9392 54.2139 39.9975 54.166 40.0012 53.9247C40.0226 52.7406 40.0299 51.9441 40.0229 51.5351C40.0209 51.4225 39.9858 51.3784 39.9175 51.4028C39.911 51.3436 39.8692 51.3129 39.792 51.3109C39.5942 51.3049 39.3957 51.3022 39.1965 51.3027L39.5865 51.299C39.5869 51.299 39.5873 51.2989 39.5877 51.2986C39.5881 51.2983 39.5885 51.2979 39.5887 51.2975L39.6067 51.2691C39.6083 51.2664 39.6092 51.2633 39.6094 51.2601C39.6096 51.257 39.609 51.2538 39.6077 51.251C39.6063 51.2481 39.6043 51.2456 39.6018 51.2437C39.5993 51.2417 39.5963 51.2405 39.5932 51.2399L39.2196 51.1854C38.9506 50.7938 38.8968 50.3067 39.3489 50.0138L39.8779 50.01C39.8934 50.0098 39.9087 50.0066 39.923 50.0005C39.9372 49.9944 39.9501 49.9855 39.961 49.9744C39.9718 49.9633 39.9803 49.9502 39.9861 49.9358C39.9918 49.9214 39.9947 49.906 39.9945 49.8905L39.993 49.7007C40.0159 49.2763 40.0164 48.8536 39.9945 48.4327C39.9815 48.1726 39.9083 47.9363 39.7748 47.7235L39.5693 47.1303C39.4956 46.8154 39.4346 46.5021 39.3863 46.1903C39.31 45.6971 39.3235 45.192 39.8152 44.9163ZM40.3958 50.5609C40.362 50.5745 40.3386 50.61 40.3308 50.6597C40.3229 50.7094 40.3313 50.7691 40.3541 50.8257C40.3769 50.8823 40.4121 50.9312 40.4522 50.9617C40.4922 50.9921 40.5337 51.0016 40.5675 50.988C40.6013 50.9744 40.6247 50.9388 40.6326 50.8891C40.6404 50.8395 40.632 50.7798 40.6092 50.7231C40.5865 50.6665 40.5512 50.6176 40.5112 50.5872C40.4711 50.5567 40.4297 50.5473 40.3958 50.5609Z" fill="#DEB254"/>
<path d="M71.3112 45.4632C71.4719 44.71 72.908 45.0731 72.5023 45.5558C72.3026 45.794 72.0614 45.92 71.779 45.9339C71.5033 45.9481 71.253 45.7382 71.3112 45.4632Z" fill="#DEB254"/>
<path d="M96.6914 48.3983L96.4134 47.7804C96.393 47.4954 96.2941 47.2307 96.1168 46.9861C95.8249 46.5841 95.6266 46.3061 95.522 46.1522C95.4226 46.0065 95.3053 45.6829 95.442 45.5051C95.6019 45.2989 95.8926 45.3818 96.0585 45.5387C96.3215 45.7875 96.4119 46.132 96.5644 46.5243C96.6093 46.64 96.6741 46.7467 96.7556 46.8396C96.9136 47.019 97.0981 47.1938 97.3093 47.3642C97.9863 47.9096 98.1208 48.7816 98.2329 49.6424C98.2755 49.9675 98.3412 50.6512 97.9347 50.7857C97.452 50.9448 97.1913 50.1176 97.1225 49.7889C97.0214 49.3087 96.8777 48.8451 96.6914 48.3983Z" fill="#DEB254"/>
<path d="M116.551 45.1524C115.969 45.1773 115.412 45.2973 114.88 45.5125C114.621 45.6171 114.371 45.7466 114.129 45.9011C114.48 45.4298 115.004 45.1379 115.702 45.0253C116.031 44.972 116.314 45.0144 116.551 45.1524Z" fill="#DEB254"/>
<path d="M63.9557 45.2174C63.9453 45.2403 63.9283 45.2508 63.9049 45.2488C63.6464 45.2309 63.4065 45.2236 63.1854 45.2271C62.0324 45.2473 60.8802 45.2294 59.728 45.248C59.7161 45.248 59.7043 45.2438 59.6929 45.2353C59.6839 45.2285 59.6779 45.2184 59.6763 45.2073C59.6746 45.1961 59.6773 45.1847 59.6839 45.1756C59.7203 45.1248 59.7873 45.0988 59.8849 45.0979C61.0556 45.0874 62.201 45.0779 63.3214 45.0695L63.9169 45.0949C63.9265 45.0952 63.9356 45.0992 63.9424 45.106C63.9492 45.1128 63.9531 45.1219 63.9535 45.1315L63.9557 45.2174Z" fill="#DEB254"/>
<path d="M53.5573 45.1195C53.5399 45.1893 53.4908 45.2246 53.4101 45.2256C52.8472 45.2306 52.2771 45.2984 51.6997 45.4289C51.6534 45.4194 51.6158 45.3997 51.5869 45.3699C51.832 45.2827 52.0499 45.2207 52.2407 45.1838C52.6646 45.1026 53.1035 45.0812 53.5573 45.1195Z" fill="#DEB254"/>
<path d="M111.968 46.2598C111.63 47.3522 111.82 48.6165 112.414 49.564C112.841 50.2477 113.609 50.6982 114.334 50.9074C115.002 51.0992 115.451 51.2038 115.68 51.2213C116.444 51.2776 116.863 51.3114 116.937 51.3229C117.717 51.4419 118.521 51.6796 119.351 52.0357C120.388 52.4818 121.121 53.0818 121.159 54.3035C121.173 54.7668 121.089 55.1359 120.835 55.5028C120.652 55.7673 120.401 56.0423 120.53 56.3337C120.653 56.6122 120.705 56.8754 120.684 57.1235C120.683 57.1288 120.684 57.1342 120.686 57.1391C120.688 57.144 120.692 57.1483 120.696 57.1517C120.7 57.1551 120.705 57.1574 120.71 57.1585C120.716 57.1596 120.721 57.1594 120.726 57.1579L121.259 57.0047C120.791 57.328 120.278 57.5656 119.722 57.7176C119.383 57.8097 119.074 57.8675 118.793 57.8909C118.442 57.9203 117.973 57.8889 117.387 57.7968C117.232 57.7721 116.836 57.657 116.873 57.4501C116.91 57.2401 117.412 57.0764 117.585 57.0361C118.22 56.8847 118.847 56.7302 119.464 56.5728C120.116 56.263 120.595 55.796 120.901 55.1718C120.958 55.0557 120.956 54.9578 120.894 54.8781C120.924 54.791 120.958 54.6104 120.996 54.3364C121.064 53.8545 120.885 53.4808 120.613 53.0901C120.486 52.9077 120.336 52.7583 120.162 52.6417C120.139 52.5247 120.033 52.4293 119.844 52.3555C119.366 52.1687 118.926 51.9588 118.583 51.8377C118.14 51.6813 117.616 51.5413 117.01 51.4178C116.454 51.3042 115.798 51.2464 115.04 51.2444C114.279 51.098 113.595 50.8322 112.986 50.4472C112.461 50.1146 112.124 49.5587 111.876 48.9692C111.634 48.3948 111.531 47.7818 111.568 47.1303L111.618 47.5442C111.618 47.5502 111.62 47.5558 111.625 47.56C111.627 47.562 111.629 47.5636 111.632 47.5647C111.635 47.5658 111.638 47.5663 111.641 47.5663C111.643 47.5662 111.646 47.5656 111.649 47.5644C111.652 47.5633 111.654 47.5616 111.656 47.5594C111.658 47.5573 111.66 47.5548 111.661 47.5521C111.662 47.5493 111.663 47.5464 111.663 47.5435C111.693 47.0927 111.795 46.6648 111.968 46.2598Z" fill="#DEB254"/>
<path d="M80.9722 47.6779C81.218 48.6336 81.307 49.6169 81.304 50.6548C81.295 53.8987 81.296 56.3718 81.3069 58.0739C81.307 58.0867 81.3046 58.0994 81.2998 58.1113C81.2949 58.1232 81.2878 58.134 81.2788 58.1431C81.2697 58.1522 81.259 58.1594 81.2472 58.1643C81.2353 58.1693 81.2226 58.1718 81.2098 58.1718H79.5749C79.5561 58.1718 79.538 58.1642 79.5247 58.1508C79.5114 58.1373 79.5039 58.1191 79.5039 58.1001L79.4785 50.5831L79.495 50.3477C79.4964 50.3261 79.5031 50.3054 79.5144 50.2872C79.8148 49.8172 80.2168 49.3285 80.4021 48.8495C80.7122 48.05 80.5089 47.1093 80.3326 46.3553C80.5647 46.8276 80.7592 47.3128 80.9162 47.8109C80.9174 47.8152 80.9199 47.819 80.9233 47.8218C80.9267 47.8246 80.9309 47.8263 80.9354 47.8267C80.9399 47.8271 80.9444 47.8261 80.9484 47.824C80.9524 47.8219 80.9558 47.8186 80.958 47.8147C80.9729 47.7868 80.9777 47.7412 80.9722 47.6779Z" fill="#DEB254"/>
<path d="M46.6519 46.8269C46.6519 48.688 46.6551 49.8636 46.6616 50.3538C46.6685 50.8599 46.6197 51.3221 46.5151 51.7406L46.5039 46.8463C46.5562 46.8802 46.6055 46.8737 46.6519 46.8269Z" fill="#DEB254"/>
<path d="M39.9936 49.7006C39.9622 49.7295 39.9418 49.7866 39.9323 49.8718C39.9144 49.261 39.8822 48.6775 39.8359 48.121C39.8255 47.9933 39.7911 47.8588 39.7754 47.7235C39.9089 47.9362 39.9821 48.1726 39.9951 48.4326C40.017 48.8535 40.0165 49.2762 39.9936 49.7006Z" fill="#DEB254"/>
<path d="M14.2001 50.2297C14.2036 50.2472 14.1919 50.2756 14.165 50.3149C14.2621 50.3468 14.36 50.3702 14.4586 50.3852C14.5976 50.4061 14.6893 50.4255 14.7336 50.4434C14.9854 50.5436 15.1842 50.8028 15.3799 51.0479C15.3695 51.3229 15.4263 51.5919 15.5503 51.8549C15.5528 51.843 15.5349 51.8395 15.4965 51.8445C15.1792 51.7384 14.707 51.6268 14.0798 51.5097C13.7759 51.4529 13.5622 51.2684 13.4387 50.956C13.3002 50.6058 13.293 50.2596 13.417 49.9174C13.6143 49.3742 14.0865 50.0512 14.2001 50.2297Z" fill="#DEB254"/>
<path d="M23.3266 49.2747C23.374 49.2702 23.3715 49.2961 23.3192 49.3524C23.3077 49.3643 23.2952 49.3748 23.2818 49.3838C22.7692 49.7245 22.2038 49.9723 21.5856 50.1272L21.3308 50.1721L20.7659 50.2483C20.3096 50.2787 19.8459 50.2926 19.3746 50.2901C17.8279 50.2822 16.2814 50.2829 14.7352 50.2924C14.6923 50.2929 14.5977 50.2988 14.4512 50.3103C14.3631 50.3173 14.2677 50.3188 14.165 50.3148C14.1919 50.2754 14.2036 50.247 14.2002 50.2296C14.238 50.2321 14.2704 50.2244 14.2973 50.2064C14.4527 50.1741 14.6111 50.1574 14.7725 50.1564C16.4812 50.1479 18.1895 50.1387 19.8977 50.1287C20.206 50.1267 20.5141 50.117 20.822 50.0996C21.7401 50.0473 22.5749 49.7723 23.3266 49.2747Z" fill="#DEB254"/>
<path d="M39.9934 49.7007L39.9949 49.8905C39.9951 49.906 39.9923 49.9214 39.9865 49.9358C39.9808 49.9502 39.9722 49.9633 39.9614 49.9744C39.9506 49.9855 39.9377 49.9944 39.9234 50.0005C39.9092 50.0066 39.8939 50.0098 39.8784 50.01L39.3493 50.0138C38.7187 50.0227 38.0903 50.0317 37.4641 50.0407C36.4965 50.0541 35.3936 50.0242 34.4498 50.0429C34.139 50.0489 33.8309 50.089 33.5255 50.1632C32.9719 50.297 32.4309 50.4225 31.9295 50.7102C31.1962 51.0818 30.5989 51.5911 30.1377 52.2382C30.1192 52.2472 30.1033 52.232 30.0898 52.1926C30.6662 51.3518 31.4216 50.7453 32.3561 50.3732C32.7218 50.2277 33.1661 50.1042 33.6892 50.0026C33.997 49.9428 34.4561 49.9107 35.0663 49.9062C35.4279 49.9037 36.1689 49.8905 37.2893 49.8666C37.8801 49.8541 38.761 49.8559 39.9322 49.8718C39.9416 49.7866 39.962 49.7296 39.9934 49.7007Z" fill="#DEB254"/>
<path d="M89.8167 50.019L95.4448 50.0183L96.9818 49.9899C96.9838 49.9898 96.9858 49.9903 96.9876 49.9913C96.9893 49.9923 96.9908 49.9938 96.9918 49.9956C96.9928 49.9973 96.9933 49.9993 96.9932 50.0013C96.9932 50.0034 96.9926 50.0053 96.9915 50.0071C96.8712 50.1879 96.5634 50.2133 96.3586 50.2066C95.9745 50.1931 95.578 50.1946 95.169 50.211C94.315 50.2454 93.6559 50.2155 92.8385 50.2529C91.9007 50.2955 90.8472 50.2581 89.9632 50.2768C89.8163 50.2798 89.6344 50.2534 89.4177 50.1976C89.4088 50.1954 89.4008 50.1905 89.3948 50.1835C89.3888 50.1766 89.385 50.168 89.384 50.1589C89.3831 50.1498 89.3849 50.1406 89.3893 50.1325C89.3938 50.1245 89.4005 50.118 89.4088 50.1139C89.5204 50.0566 89.6563 50.025 89.8167 50.019Z" fill="#DEB254"/>
<path d="M39.3495 50.0138C38.8975 50.3067 38.9513 50.7939 39.2203 51.1854C38.1901 51.1501 37.534 51.1351 37.2521 51.1406C36.2912 51.1595 35.4157 51.1792 34.6256 51.1996C34.32 51.2071 34.0107 51.2549 33.7036 51.2871C33.4356 51.3149 33.1315 51.4489 32.7912 51.6891C32.5536 51.3135 32.2664 50.9872 31.9297 50.7102C32.4311 50.4225 32.9721 50.297 33.5257 50.1632C33.8311 50.089 34.1392 50.0489 34.45 50.0429C35.3938 50.0243 36.4967 50.0541 37.4643 50.0407C38.0905 50.0317 38.7189 50.0228 39.3495 50.0138Z" fill="#DEB254"/>
<path d="M40.6097 50.7231C40.5623 50.6052 40.4668 50.5325 40.3963 50.5608C40.3259 50.5892 40.3072 50.7077 40.3546 50.8257C40.402 50.9436 40.4975 51.0162 40.568 50.9879C40.6384 50.9596 40.6571 50.841 40.6097 50.7231Z" fill="#DEB254"/>
<path d="M21.5856 50.1273C21.9453 50.5652 22.2377 51.0317 22.4629 51.5269L22.1057 51.6128C22.015 51.4932 21.8494 51.4464 21.6088 51.4723C21.1171 51.5246 20.5836 51.5605 19.9694 51.621C19.8065 51.6369 19.6464 51.6217 19.489 51.5754C19.4465 51.5631 19.4091 51.5389 19.382 51.5065C19.355 51.474 19.3395 51.4349 19.338 51.3946C19.3298 51.1876 19.7273 50.9508 19.888 50.9037C20.2347 50.8026 20.4464 50.74 20.5231 50.7161C20.8519 50.6138 21.073 50.3664 21.3308 50.1722L21.5856 50.1273Z" fill="#DEB254"/>
<path d="M117.283 50.1333C118.423 50.348 119.421 50.6185 120.278 50.9448C120.589 51.0633 120.943 51.2506 121.341 51.5067C121.794 51.7981 122.133 52.1983 122.359 52.7075C122.33 52.7498 122.315 52.8016 122.315 52.8629C122.174 52.6215 122.03 52.3204 121.87 52.1306C121.161 51.2833 119.924 50.9433 118.855 50.8499C118.539 50.8222 118.018 50.8252 117.679 50.6317C117.461 50.5067 117.329 50.3405 117.283 50.1333Z" fill="#DEB254"/>
<path d="M21.3309 50.1722C21.0732 50.3665 20.852 50.6138 20.5232 50.7162C20.4465 50.7401 20.2348 50.8026 19.8881 50.9038C19.7274 50.9508 19.3299 51.1877 19.3381 51.3947C19.3397 51.435 19.3551 51.4741 19.3822 51.5066C19.4092 51.539 19.4467 51.5631 19.4891 51.5755C19.6465 51.6218 19.8066 51.637 19.9695 51.6211C20.5837 51.5606 21.1172 51.5247 21.6089 51.4724C21.8495 51.4465 22.0151 51.4933 22.1058 51.6129C21.2923 51.7548 20.5065 51.8296 19.7483 51.837C19.0106 51.8445 17.6113 51.8505 15.5505 51.855C15.4265 51.592 15.3697 51.323 15.3801 51.048C16.093 51.0293 16.761 50.9957 17.5157 51.0091C18.7037 51.0293 19.705 50.8903 20.766 50.2485L21.3309 50.1722Z" fill="#DEB254"/>
<path d="M20.7659 50.2483C19.7049 50.8901 18.7036 51.0291 17.5155 51.009C16.7609 50.9955 16.0929 51.0291 15.38 51.0478C15.1842 50.8027 14.9855 50.5434 14.7337 50.4433C14.6893 50.4254 14.5977 50.406 14.4587 50.385C14.3601 50.3701 14.2622 50.3467 14.165 50.3148C14.2677 50.3188 14.3631 50.3173 14.4512 50.3103C14.5977 50.2989 14.6923 50.2929 14.7352 50.2924C16.2814 50.2829 17.8279 50.2822 19.3746 50.2901C19.8459 50.2926 20.3096 50.2787 20.7659 50.2483Z" fill="#DEB254"/>
<path d="M31.9296 50.7101C32.2664 50.9871 32.5536 51.3133 32.7912 51.6889L32.6604 51.7734C32.3072 51.9647 32.0029 52.213 31.7473 52.5183C31.5829 52.7149 31.3266 52.8404 31.1705 53.0593C30.8805 53.4653 30.8098 53.9067 30.9583 54.3834C30.9623 54.3965 30.9694 54.4085 30.9789 54.4183C30.9884 54.4282 31.0001 54.4357 31.013 54.4402C31.026 54.4447 31.0398 54.4461 31.0534 54.4443C31.067 54.4425 31.08 54.4375 31.0913 54.4297L31.1488 54.3894C31.1578 54.3833 31.1679 54.3793 31.1786 54.3776C31.1893 54.3759 31.2002 54.3767 31.2105 54.3798C31.2209 54.3829 31.2303 54.3882 31.2383 54.3954C31.2462 54.4026 31.2524 54.4116 31.2564 54.4215C31.3416 54.6297 31.4026 54.8442 31.4395 55.0649C31.5134 55.5065 31.1062 56.0041 30.8208 56.2574C30.812 56.265 30.8011 56.2697 30.7896 56.2707C30.7781 56.2718 30.7665 56.2692 30.7565 56.2634C30.2902 55.9899 30.1281 55.5565 30.0145 55.0327C29.9343 54.6616 29.8735 54.359 29.8322 54.1249C29.7166 53.4643 29.8185 52.8354 30.1378 52.2381C30.5991 51.591 31.1964 51.0817 31.9296 50.7101Z" fill="#DEB254"/>
<path d="M39.22 51.1853L39.5936 51.2399C39.5967 51.2404 39.5996 51.2417 39.6021 51.2436C39.6046 51.2455 39.6067 51.248 39.608 51.2509C39.6093 51.2538 39.6099 51.2569 39.6097 51.2601C39.6096 51.2632 39.6086 51.2663 39.607 51.269L39.5891 51.2974C39.5888 51.2979 39.5885 51.2983 39.5881 51.2985C39.5877 51.2988 39.5873 51.2989 39.5868 51.2989L39.1968 51.3027C38.2234 51.3081 37.2498 51.3081 36.2759 51.3027C35.8122 51.3007 35.4044 51.3064 35.0527 51.3198C34.4844 51.3413 34.0771 51.3659 33.831 51.3938C33.4614 51.4357 33.0896 51.5687 32.7155 51.7928L32.6602 51.7734L32.7909 51.689C33.1312 51.4489 33.4353 51.3149 33.7033 51.287C34.0104 51.2548 34.3197 51.207 34.6253 51.1995C35.4154 51.1791 36.2909 51.1594 37.2518 51.1405C37.5337 51.135 38.1898 51.15 39.22 51.1853Z" fill="#DEB254"/>
<path d="M120.162 52.6417C119.801 52.4569 119.568 52.3485 119.464 52.3166C118.956 52.1612 118.444 52.0143 117.93 51.8758C117.648 51.7996 117.263 51.7199 116.777 51.6367C116.199 51.5385 115.62 51.4078 115.04 51.2444C115.798 51.2464 116.455 51.3042 117.01 51.4177C117.616 51.5413 118.14 51.6813 118.583 51.8377C118.926 51.9587 119.366 52.1687 119.844 52.3555C120.033 52.4292 120.139 52.5246 120.162 52.6417Z" fill="#DEB254"/>
<path d="M38.7519 55.7457C38.7474 55.7108 38.7315 55.6954 38.7041 55.6994C38.9357 55.4573 39.2107 55.2032 39.393 54.9626C39.5764 54.72 39.7343 54.4752 39.8668 54.2281C39.9099 54.1472 39.9323 54.0568 39.9318 53.9651L39.9176 51.4029C39.9858 51.3785 40.0209 51.4226 40.0229 51.5351C40.0299 51.9441 40.0227 52.7406 40.0013 53.9247C39.9975 54.1661 39.9392 54.2139 39.8399 54.3977C39.5634 54.9088 39.2007 55.3581 38.7519 55.7457Z" fill="#DEB254"/>
<path d="M32.66 51.7734L32.7153 51.7929C32.2647 52.1142 31.8993 52.366 31.6617 52.8883C31.5646 53.102 31.457 53.427 31.4368 53.7065C31.3935 54.3028 31.5041 54.8667 31.7686 55.3982C31.7756 55.6622 31.8951 55.8836 32.1272 56.0625C32.2872 56.1857 32.5352 56.3591 32.7534 56.4592C33.3243 56.7805 33.8775 56.9716 34.413 57.0323C34.8274 57.0792 35.3557 57.0742 35.9978 57.0174C35.9993 57.0169 36.0006 57.0164 36.0016 57.0159C36.0125 57.0089 36.0202 57.0012 36.0247 56.9927C36.0263 56.9896 36.0287 56.9869 36.0317 56.9849C36.0347 56.9829 36.0383 56.9818 36.0419 56.9815C36.7226 56.9621 37.2576 56.7447 37.83 56.4054C37.7231 56.7073 37.7822 56.9031 37.8375 57.3282C37.8741 57.6092 37.5154 57.802 37.3137 57.929C36.4653 58.2144 35.5921 58.3532 34.6939 58.3452C34.5191 58.3437 34.3325 58.3307 34.1343 58.3063C32.8214 58.1434 31.6931 57.6929 30.8129 56.8156C29.9334 55.9384 29.4492 54.5755 29.6943 53.2761C29.7656 52.8985 29.8973 52.5373 30.0896 52.1926C30.103 52.232 30.119 52.2472 30.1374 52.2382C29.8181 52.8355 29.7162 53.4644 29.8318 54.1249C29.8732 54.3591 29.9339 54.6617 30.0141 55.0328C30.1277 55.5566 30.2898 55.99 30.7561 56.2635C30.7661 56.2693 30.7777 56.2719 30.7892 56.2708C30.8007 56.2697 30.8116 56.2651 30.8204 56.2575C31.1058 56.0042 31.513 55.5065 31.4391 55.0649C31.4022 54.8442 31.3412 54.6298 31.256 54.4216C31.252 54.4116 31.2458 54.4027 31.2379 54.3955C31.2299 54.3883 31.2205 54.3829 31.2102 54.3798C31.1998 54.3768 31.1889 54.376 31.1782 54.3777C31.1676 54.3793 31.1574 54.3834 31.1484 54.3894L31.0909 54.4298C31.0796 54.4375 31.0666 54.4425 31.053 54.4444C31.0394 54.4462 31.0256 54.4448 31.0126 54.4403C30.9997 54.4358 30.988 54.4283 30.9785 54.4184C30.969 54.4085 30.9619 54.3966 30.9579 54.3835C30.8094 53.9067 30.8801 53.4654 31.1701 53.0594C31.3262 52.8405 31.5825 52.7149 31.7469 52.5184C32.0025 52.2131 32.3068 51.9647 32.66 51.7734Z" fill="#DEB254"/>
<path d="M122.359 52.7075C122.604 53.1177 122.702 53.6236 122.728 54.0951C122.767 54.8453 122.516 55.5865 122.137 56.2314L122.191 55.8249C122.47 55.2368 122.679 54.512 122.565 53.8769C122.503 53.5327 122.42 53.1947 122.315 52.8629C122.315 52.8017 122.33 52.7499 122.359 52.7075Z" fill="#DEB254"/>
<path d="M59.7244 54.9027C59.8883 55.5657 60.2768 56.1132 60.89 56.5451C61.5187 57.0427 62.2572 57.1214 63.1055 56.7812C63.3441 56.6856 63.5985 56.5603 63.8684 56.4054C63.9511 56.358 64.1093 56.3254 64.3429 56.3075C64.3791 56.3046 64.4153 56.3118 64.4475 56.3284C64.5183 56.3648 64.5845 56.3834 64.6463 56.3844C64.6712 56.6679 64.7464 56.9439 64.872 57.2124C64.887 57.2444 64.8917 57.2804 64.8852 57.3153C64.8788 57.3501 64.8616 57.3821 64.8361 57.4066C64.6841 57.5526 64.5071 57.6794 64.3048 57.787C63.8674 58.0201 63.4395 58.168 63.0211 58.2308C62.6121 58.2916 62.1177 58.3123 61.5379 58.2928C61.1792 58.2809 60.7787 58.1987 60.3364 58.0462C58.7171 57.4881 57.9094 56.1087 57.8115 54.4462L57.8833 53.761C57.8836 53.7561 57.8858 53.7515 57.8894 53.7482C57.893 53.7449 57.8978 53.743 57.9027 53.743H57.9034C57.9088 53.7432 57.9139 53.7454 57.9178 53.7491C57.9216 53.7528 57.924 53.7579 57.9243 53.7632C57.9953 54.7772 58.0379 55.6275 58.5363 56.4569C58.6325 56.6173 58.882 56.9023 59.285 57.3117C59.289 57.3157 59.2938 57.3186 59.2991 57.3204C59.3043 57.3221 59.31 57.3226 59.3155 57.3218C59.321 57.321 59.3262 57.319 59.3308 57.3158C59.3354 57.3126 59.3391 57.3084 59.3418 57.3035C59.5413 56.9284 59.9052 56.8612 60.3207 56.7222C60.4058 56.6938 60.4836 56.6126 60.5538 56.4786C60.5594 56.4684 60.5614 56.4565 60.5595 56.445C60.5576 56.4335 60.5519 56.423 60.5433 56.4151C60.0315 55.9346 59.6669 55.4071 59.6078 54.7092C59.6075 54.7065 59.6078 54.7037 59.6087 54.7011C59.6095 54.6985 59.611 54.6961 59.6129 54.694C59.6148 54.692 59.6171 54.6903 59.6197 54.6892C59.6223 54.6881 59.6252 54.6875 59.628 54.6875H59.6519C59.653 54.6875 59.6541 54.6878 59.655 54.6885C59.6559 54.6892 59.6567 54.6901 59.6571 54.6913L59.7244 54.9027ZM64.535 56.5518C64.3496 56.7122 64.2289 56.8422 64.1726 56.9419C64.0059 57.2348 64.2196 57.367 64.47 57.4843C64.4811 57.4894 64.4936 57.4909 64.5056 57.4888C64.5176 57.4867 64.5286 57.4809 64.5372 57.4724L64.7397 57.2699C64.7494 57.2602 64.7564 57.2479 64.7598 57.2345C64.7632 57.2211 64.763 57.207 64.7591 57.1937L64.5798 56.5653C64.5785 56.5608 64.5762 56.5566 64.5729 56.5533C64.5696 56.55 64.5656 56.5475 64.5611 56.5462C64.5566 56.5448 64.5519 56.5446 64.5473 56.5456C64.5427 56.5466 64.5385 56.5487 64.535 56.5518Z" fill="#DEB254"/>
<path d="M48.3546 58.1576L46.6031 58.1972C46.5932 58.1974 46.5833 58.1956 46.5741 58.192C46.5648 58.1883 46.5564 58.1828 46.5493 58.1759C46.5422 58.1689 46.5366 58.1606 46.5327 58.1514C46.5289 58.1423 46.5269 58.1324 46.5269 58.1225L46.5127 54.3894C46.8998 55.716 47.5137 56.972 48.3546 58.1576Z" fill="#DEB254"/>
<path d="M119.464 56.5729L118.966 56.6528C118.961 56.6538 118.956 56.6531 118.951 56.6508C118.947 56.6485 118.943 56.6447 118.941 56.6401C118.939 56.6355 118.939 56.6303 118.94 56.6252C118.941 56.6202 118.944 56.6157 118.948 56.6125L119.089 56.4944C119.658 56.3051 120.135 55.9868 120.519 55.5395C120.611 55.4334 120.736 55.2129 120.894 54.8782C120.956 54.9579 120.958 55.0558 120.901 55.1718C120.595 55.796 120.116 56.263 119.464 56.5729Z" fill="#DEB254"/>
<path d="M97.0574 54.9872L96.7675 55.1949L96.509 55.4587C96.108 55.784 95.7785 56.0161 95.5204 56.1551C95.4696 56.1825 95.1458 56.3287 94.549 56.5937C94.1615 56.7661 93.8257 56.8774 93.5418 56.9277C93.0576 57.0134 92.6053 57.0463 92.1848 57.0263C91.9794 57.0166 91.3166 56.9374 91.3293 56.6946C92.8857 56.986 94.4668 56.6983 95.7737 55.8173C96.1618 55.5558 96.5351 55.2751 96.8938 54.9752C96.9242 54.9498 96.9553 54.9349 96.9872 54.9304C97.0255 54.9244 97.049 54.9433 97.0574 54.9872Z" fill="#DEB254"/>
<path d="M86.4531 55.7054C86.7241 55.8738 86.9784 56.0643 87.216 56.277C87.4965 56.5286 87.6728 56.6763 87.7451 56.7201C88.2554 57.0309 89.241 57.8379 89.7775 57.4524C89.9115 57.3557 90.0515 57.2434 90.1974 57.1154C90.3469 56.9839 90.3663 56.8755 90.3947 56.6663C90.4036 56.6025 90.449 56.5445 90.5307 56.4922L91.3287 56.6947C91.316 56.9375 91.9788 57.0167 92.1843 57.0265C92.6047 57.0464 93.057 57.0135 93.5412 56.9278C93.8251 56.8775 94.1609 56.7662 94.5485 56.5938C95.1452 56.3288 95.469 56.1826 95.5198 56.1552C95.7779 56.0162 96.1074 55.7841 96.5084 55.4588C96.069 55.8762 95.6703 56.1634 95.3121 56.3203C94.9838 56.4648 94.6864 56.5976 94.4199 56.7186C94.4145 56.7211 94.41 56.725 94.4068 56.7299C94.4036 56.7348 94.4019 56.7405 94.402 56.7463V56.7657C94.4021 56.7669 94.4024 56.768 94.4031 56.769C94.4037 56.77 94.4046 56.7708 94.4057 56.7713C94.4068 56.7719 94.4079 56.7721 94.4091 56.772C94.4103 56.772 94.4115 56.7716 94.4125 56.7709C94.4214 56.7634 94.4274 56.7624 94.4304 56.7679C94.5958 57.0424 94.674 57.3191 94.665 57.5981C94.6646 57.6081 94.6664 57.6181 94.6703 57.6274C94.6741 57.6367 94.6799 57.645 94.6873 57.6519C94.6947 57.6587 94.7035 57.6638 94.7131 57.6669C94.7226 57.67 94.7327 57.671 94.7427 57.6698C95.9094 57.5298 96.877 57.0165 97.6457 56.1298C97.6644 56.1083 97.6754 56.0811 97.6769 56.0525C97.6784 56.024 97.6703 55.9957 97.6539 55.9721L97.0875 55.1539C97.0813 55.145 97.073 55.1376 97.0632 55.1325C97.0534 55.1275 97.0425 55.1248 97.0314 55.1248C96.9507 55.1243 96.8626 55.1477 96.7669 55.195L97.0568 54.9873L97.8018 56.0028C97.8195 56.0269 97.8281 56.0564 97.8262 56.0863C97.8243 56.1162 97.812 56.1445 97.7914 56.1664C97.1712 56.8269 96.48 57.2857 95.6767 57.6683C94.5171 58.2198 93.1758 58.3169 91.9227 58.2773C91.4759 58.2638 91.0719 58.2203 90.7108 58.1465C89.0392 57.8065 87.5082 57.0773 86.4531 55.7054Z" fill="#DEB254"/>
<path d="M111.554 54.9828C111.668 55.1631 111.761 55.2819 111.833 55.3392C112.291 55.7014 112.811 55.9958 113.393 56.2224C114.087 56.4924 114.793 56.7228 115.513 56.9136C115.899 57.016 117.118 57.1803 117.409 56.812C117.985 56.7811 118.544 56.6752 119.089 56.4944L118.948 56.6125C118.944 56.6157 118.941 56.6202 118.94 56.6253C118.939 56.6303 118.939 56.6355 118.941 56.6401C118.943 56.6447 118.947 56.6485 118.951 56.6508C118.956 56.6531 118.961 56.6538 118.966 56.6528L119.464 56.5729C118.846 56.7303 118.22 56.8847 117.585 57.0361C117.412 57.0765 116.91 57.2401 116.873 57.4501C116.836 57.6571 117.232 57.7721 117.387 57.7968C117.973 57.889 118.441 57.9203 118.793 57.891C119.073 57.8675 119.383 57.8098 119.722 57.7176C120.278 57.5657 120.791 57.328 121.259 57.0048C121.694 56.6999 121.918 56.2979 122.191 55.8249L122.137 56.2314C121.425 57.3612 120.226 57.8394 118.978 58.092C117.937 58.3022 116.917 58.3597 115.915 58.2646C115.485 58.2237 114.977 58.1395 114.392 58.012C113.182 57.749 112.105 57.2431 111.029 56.5968C111.021 56.5916 111.013 56.5846 111.007 56.5764C111.001 56.5681 110.996 56.5587 110.994 56.5487C110.992 56.5387 110.992 56.5283 110.993 56.5182C110.995 56.5081 110.999 56.4985 111.005 56.4899C111.15 56.2697 111.279 56.0361 111.39 55.789C111.476 55.5992 111.53 55.3305 111.554 54.9828Z" fill="#DEB254"/>
<path d="M111.554 54.9828C111.876 55.2035 112.154 55.3833 112.391 55.5223C112.929 55.8391 113.45 56.1006 114.02 56.2837C114.748 56.5178 115.479 56.6822 116.214 56.7769C116.585 56.8247 117.013 56.8135 117.409 56.812C117.117 57.1803 115.899 57.016 115.512 56.9136C114.793 56.7228 114.087 56.4924 113.393 56.2224C112.811 55.9958 112.291 55.7014 111.833 55.3392C111.761 55.2819 111.668 55.1631 111.554 54.9828Z" fill="#DEB254"/>
<path d="M96.5087 55.4586L96.7673 55.1949C96.8629 55.1476 96.9511 55.1241 97.0318 55.1246C97.0429 55.1247 97.0538 55.1273 97.0636 55.1324C97.0733 55.1375 97.0817 55.1448 97.0878 55.1538L97.6542 55.972C97.6706 55.9955 97.6788 56.0238 97.6773 56.0524C97.6758 56.081 97.6648 56.1082 97.646 56.1296C96.8774 57.0163 95.9097 57.5297 94.7431 57.6697C94.7331 57.6709 94.723 57.6699 94.7134 57.6668C94.7038 57.6637 94.6951 57.6585 94.6877 57.6517C94.6803 57.6449 94.6745 57.6366 94.6706 57.6273C94.6668 57.618 94.665 57.608 94.6654 57.5979C94.6743 57.319 94.5961 57.0422 94.4307 56.7678C94.4278 56.7623 94.4218 56.7633 94.4128 56.7708C94.4118 56.7714 94.4107 56.7718 94.4095 56.7719C94.4083 56.772 94.4071 56.7717 94.4061 56.7712C94.405 56.7707 94.4041 56.7698 94.4034 56.7689C94.4028 56.7679 94.4024 56.7667 94.4023 56.7655V56.7461C94.4023 56.7403 94.404 56.7346 94.4072 56.7297C94.4103 56.7248 94.4149 56.7209 94.4203 56.7185C94.6868 56.5974 94.9842 56.4646 95.3125 56.3202C95.6706 56.1633 96.0694 55.8761 96.5087 55.4586Z" fill="#DEB254"/>
<path d="M41.5041 58.1419L40.0889 58.1666C40.0748 58.1668 40.0607 58.1641 40.0476 58.1589C40.0344 58.1536 40.0225 58.1457 40.0124 58.1358C40.0023 58.1259 39.9943 58.114 39.9888 58.1009C39.9834 58.0879 39.9806 58.0739 39.9806 58.0597L39.9723 56.1222C39.9723 56.1119 39.9693 56.1018 39.9636 56.0932C39.9579 56.0846 39.9498 56.0779 39.9403 56.0739C39.9308 56.07 39.9203 56.0689 39.9102 56.0708C39.9001 56.0727 39.8908 56.0776 39.8834 56.0848L39.4209 56.5406C39.7915 55.9683 40.3968 55.0552 41.064 55.9966C41.2314 56.2328 41.4135 56.5279 41.6102 56.8821C41.6216 56.9029 41.6292 56.9254 41.6327 56.9486C41.6939 57.3735 41.6511 57.7713 41.5041 58.1419Z" fill="#DEB254"/>
<path d="M31.7686 55.3982C32.0455 55.8186 32.3937 56.1419 32.8132 56.3681L32.7534 56.4592C32.5352 56.3591 32.2871 56.1858 32.1272 56.0625C31.8951 55.8836 31.7755 55.6622 31.7686 55.3982Z" fill="#DEB254"/>
<path d="M38.7047 55.6993C38.7321 55.6954 38.7481 55.7108 38.7525 55.7457L37.8305 56.4055C37.2581 56.7447 36.7231 56.9621 36.0424 56.9816C36.0387 56.9818 36.0352 56.983 36.0322 56.9849C36.0292 56.9869 36.0268 56.9896 36.0252 56.9928C36.0207 57.0012 36.013 57.009 36.002 57.0159C36.0011 57.0164 35.9998 57.0169 35.9983 57.0174C35.3562 57.0742 34.8279 57.0792 34.4135 57.0324C33.878 56.9716 33.3248 56.7806 32.7539 56.4593L32.8137 56.3681C33.9039 56.9502 35.272 56.9913 36.4646 56.794C37.3149 56.6535 38.0487 56.2381 38.7047 55.6993Z" fill="#DEB254"/>
<path d="M64.6459 56.3845C64.5841 56.3835 64.5179 56.3649 64.4471 56.3285C64.4149 56.3119 64.3787 56.3047 64.3425 56.3076C64.1089 56.3255 63.9507 56.3581 63.868 56.4055C63.5981 56.5604 63.3438 56.6857 63.1051 56.7813C62.2568 57.1215 61.5183 57.0428 60.8896 56.5452C61.2209 56.7026 61.4613 56.7938 61.6107 56.8187C62.1377 56.9063 62.6454 56.8605 63.1335 56.6812C63.3652 56.596 63.756 56.3263 64.0616 56.262C64.2075 56.2311 64.356 56.2236 64.5069 56.2396C64.5846 56.2476 64.631 56.2959 64.6459 56.3845Z" fill="#DEB254"/>
<path d="M64.5796 56.5653L64.7589 57.1937C64.7627 57.2071 64.763 57.2212 64.7596 57.2346C64.7561 57.248 64.7492 57.2602 64.7395 57.2699L64.537 57.4724C64.5284 57.481 64.5173 57.4867 64.5053 57.4889C64.4933 57.491 64.4809 57.4894 64.4697 57.4844C64.2194 57.3671 64.0057 57.2348 64.1723 56.9419C64.2286 56.8423 64.3494 56.7123 64.5347 56.5519C64.5382 56.5488 64.5425 56.5467 64.5471 56.5457C64.5516 56.5447 64.5564 56.5449 64.5609 56.5462C64.5653 56.5476 64.5694 56.55 64.5727 56.5534C64.5759 56.5567 64.5783 56.5608 64.5796 56.5653Z" fill="#DEB254"/>
</svg>
