<svg width="342" height="85" viewBox="0 0 342 85" fill="none" xmlns="http://www.w3.org/2000/svg">
<path d="M27.8557 23.2834C26.7405 23.4951 25.8639 24.0038 25.2258 24.8098C24.6493 25.5383 24.3345 26.371 24.2813 27.3079C24.2297 28.2037 24.467 29.0613 24.9934 29.8803C25.0136 29.912 25.0227 29.9494 25.0193 29.9867C25.016 30.024 25.0003 30.059 24.9749 30.0861L23.4883 31.6798" stroke="#DEB254" stroke-width="0.0947718"/>
<path d="M23.4891 31.6799C22.9088 32.1821 22.288 32.8738 21.8834 33.284C20.2125 34.9796 18.5101 36.7296 16.7761 38.5336C16.5734 38.7452 16.4408 38.8801 16.3784 38.9382C16.3066 39.0061 16.2111 39.0427 16.1125 39.0406C15.449 39.0227 14.8174 39.1695 14.2178 39.481C13.1643 40.0282 12.4776 40.8194 12.1578 41.8548C11.8441 42.873 11.8746 43.8732 12.2491 44.8551C12.6098 45.7988 13.2822 46.5301 14.2664 47.0485" stroke="#DEB254" stroke-width="0.0947718"/>
<path d="M14.2656 47.0486C15.2012 47.4229 16.1765 47.5135 17.1915 47.3206" stroke="#DEB254" stroke-width="0.0947718"/>
<path d="M17.1934 47.3208L22.1978 52.5018" stroke="#DEB254" stroke-width="0.0947718"/>
<path d="M22.1992 52.5015C22.583 53.13 23.0697 53.6386 23.6593 54.0277" stroke="#DEB254" stroke-width="0.0947718"/>
<path d="M23.6562 54.0276L24.4724 54.875C24.4994 54.9026 24.5166 54.9386 24.5214 54.9772C24.5262 55.0157 24.5183 55.055 24.499 55.0889C23.3904 57.0115 23.6378 59.563 25.5336 60.9382" stroke="#DEB254" stroke-width="0.0947718"/>
<path d="M25.5312 60.9385C27.0148 61.8909 28.5207 61.9733 30.0489 61.1861C30.0733 61.1734 30.1009 61.1687 30.128 61.1724C30.155 61.1762 30.1804 61.1882 30.2003 61.2069L30.6385 61.6196" stroke="#DEB254" stroke-width="0.0947718"/>
<path d="M30.6387 61.6204L38.4429 69.8376C38.4763 69.8727 38.4962 69.9185 38.4994 69.9669C38.5026 70.0153 38.4888 70.0634 38.4602 70.1026C35.9702 73.5538 39.4914 78.027 43.4368 76.4507" stroke="#DEB254" stroke-width="0.0947718"/>
<path d="M43.4355 76.45C44.896 75.7775 45.7298 74.6405 45.9372 73.0396" stroke="#DEB254" stroke-width="0.0947718"/>
<path d="M56.0391 61.7057C56.695 61.5741 57.1701 61.4261 57.4644 61.2617C58.6551 60.596 59.3838 59.6087 59.6504 58.2998C59.7637 57.7426 59.7422 57.1111 59.5857 56.4051C59.4829 55.9459 59.2158 55.4287 58.9881 54.9823C58.9775 54.962 58.9738 54.939 58.9771 54.9164C58.9804 54.8939 58.9908 54.873 59.0065 54.8567L63.144 50.6592" stroke="#DEB254" stroke-width="0.0947718"/>
<path d="M63.1484 50.6592C63.244 50.5802 63.2859 50.5271 63.2744 50.5" stroke="#DEB254" stroke-width="0.0947718"/>
<path d="M63.2734 50.4997L66.3092 47.3552C66.3394 47.3242 66.3768 47.3013 66.4179 47.2885C66.4592 47.2758 66.5029 47.2734 66.5451 47.2821C68.1796 47.6185 69.5414 47.2054 70.6305 46.0429C71.5517 45.0595 71.8234 43.6157 71.5737 42.3197C71.3911 41.3681 70.8932 40.5733 70.0801 39.9355" stroke="#DEB254" stroke-width="0.0947718"/>
<path d="M70.0803 39.9352C69.2865 39.3323 68.4014 39.0466 67.4249 39.0784C67.3788 39.0798 67.3332 39.0718 67.2903 39.0546C67.2476 39.0374 67.2088 39.0115 67.1764 38.9784L61.4043 33.0408" stroke="#DEB254" stroke-width="0.0947718"/>
<path d="M61.4043 33.0415C60.5118 32.0712 59.6001 31.1188 58.6692 30.1841C58.5482 30.0626 58.532 29.9316 58.6207 29.7913C58.9635 29.2504 59.1751 28.6614 59.2552 28.0244" stroke="#DEB254" stroke-width="0.0947718"/>
<path d="M59.2522 28.024C59.3677 26.7367 59.0602 25.6584 58.3297 24.7888C57.1194 23.3474 55.3621 22.9336 53.5669 23.5544C53.5417 23.563 53.5146 23.5643 53.4887 23.5578C53.463 23.5514 53.4394 23.5378 53.4212 23.5184L49.3809 19.272" stroke="#DEB254" stroke-width="0.0947718"/>
<path d="M49.3835 19.2722L44.9524 14.5852C44.9328 14.5647 44.9213 14.5377 44.92 14.5092C44.9188 14.4808 44.9278 14.4529 44.9454 14.4306C45.7924 13.3705 46.1076 12.1557 45.891 10.7864C45.8086 10.2649 45.5971 9.76809 45.2565 9.29614" stroke="#DEB254" stroke-width="0.0947718"/>
<path d="M45.257 9.29587C44.8331 8.66429 44.2965 8.19621 43.6466 7.89165C42.7497 7.47008 41.8507 7.36081 40.9497 7.56384C39.3129 7.9335 37.9579 9.32494 37.7198 11.0233C37.5545 12.2008 37.8574 13.4481 38.6353 14.3595C38.6607 14.3894 38.6741 14.4278 38.6729 14.4672C38.6716 14.5065 38.6557 14.544 38.6285 14.5722C37.432 15.802 36.1893 17.1923 35.1605 18.2327C33.4968 19.9159 31.719 21.8514 30.2635 23.3557C30.1139 23.5106 29.9833 23.5714 29.8716 23.538C29.3776 23.3931 28.9734 23.3036 28.6589 23.2696C28.4994 23.2525 28.2316 23.2571 27.8555 23.2836" stroke="#DEB254" stroke-width="0.0947718"/>
<path d="M45.2568 9.29624C44.698 9.12032 44.3343 9.32258 44.1655 9.90303C43.8579 10.9601 43.4704 11.8993 43.0026 12.7208C42.8477 12.9936 42.6426 13.2694 42.3875 13.5484C41.9194 14.0599 41.4754 14.5818 41.0291 14.9329C40.6955 15.1948 40.2989 15.2762 39.8397 15.177C39.7961 15.1679 39.7503 15.1732 39.709 15.1921C39.2829 15.3882 38.9703 15.704 38.7715 16.1395" stroke="#DEB254" stroke-width="0.0947718"/>
<path d="M38.7699 16.1387L31.3125 23.8864" stroke="#DEB254" stroke-width="0.0947718"/>
<path d="M31.3143 23.8866C31.2465 23.8958 31.1856 23.9272 31.1316 23.9808C31.1274 23.9848 31.122 23.9875 31.1162 23.9886C31.1104 23.9897 31.1044 23.9889 31.0989 23.9866C31.0935 23.9842 31.0889 23.9803 31.0857 23.9754C31.0824 23.9704 31.0807 23.9646 31.0808 23.9587C31.0816 23.9043 31.1065 23.8532 31.1559 23.8051C31.5628 23.4099 31.912 23.1287 32.0473 22.5858C32.0495 22.576 32.049 22.5657 32.0456 22.5562C32.0423 22.5468 32.0362 22.5385 32.0283 22.5323C32.0203 22.5262 32.0108 22.5225 32.0009 22.5217C31.9909 22.5208 31.9809 22.5229 31.972 22.5276C31.7271 22.6656 31.4866 22.783 31.2507 22.8798C30.8658 23.0379 30.5929 23.3007 30.3791 23.582C30.3508 23.6193 30.3121 23.6472 30.2679 23.6619C30.2238 23.6766 30.1762 23.6776 30.1317 23.6646C29.415 23.4607 28.6563 23.3336 27.8555 23.2832" stroke="#DEB254" stroke-width="0.0947718"/>
<path d="M49.3809 19.272L49.7612 19.7974C49.7826 19.8265 49.7972 19.8602 49.8041 19.8962L50.1461 21.6991" stroke="#DEB254" stroke-width="0.0947718"/>
<path d="M50.1491 21.6997L44.0326 15.3562C44.0147 15.338 43.9915 15.3259 43.9664 15.3217C43.9413 15.3175 43.9154 15.3215 43.8927 15.333C42.4731 16.0615 41.0751 16.0618 39.6987 15.3342C39.6742 15.3211 39.6463 15.3164 39.619 15.3206C39.5918 15.3248 39.5665 15.3377 39.5472 15.3574L38.7715 16.1397" stroke="#DEB254" stroke-width="0.0947718"/>
<path d="M31.1288 24.2969C30.6864 25.3995 30.2445 26.5093 29.8029 27.626C29.1242 29.3429 28.1036 30.6263 26.2227 30.9553" stroke="#DEB254" stroke-width="0.0947718"/>
<path d="M26.2222 30.9559C26.0025 30.8265 25.8053 30.8183 25.6303 30.9314C25.4199 31.0678 25.1695 31.3553 24.8789 31.7939" stroke="#DEB254" stroke-width="0.0947718"/>
<path d="M24.877 31.7935L23.543 33.1862" stroke="#DEB254" stroke-width="0.0947718"/>
<path d="M23.5432 33.1864C23.2928 33.3647 23.0307 33.4844 22.7571 33.5457C22.7406 33.5493 22.7234 33.5477 22.7079 33.541C22.6923 33.5344 22.6792 33.523 22.6704 33.5084C22.5017 33.2279 22.5175 32.9459 22.7178 32.6623C22.9514 32.3337 23.2076 32.0062 23.4866 31.6799" stroke="#DEB254" stroke-width="0.0947718"/>
<path d="M50.1484 21.6995L52.4524 24.1801C52.4664 24.1956 52.474 24.216 52.4733 24.237C52.4726 24.2578 52.4639 24.2774 52.449 24.2917C52.1068 24.6118 51.8108 24.9849 51.561 25.4111" stroke="#DEB254" stroke-width="0.0947718"/>
<path d="M38.2977 34.1892C37.7089 34.441 37.1598 34.7723 36.6504 35.1831" stroke="#DEB254" stroke-width="0.0947718"/>
<path d="M36.653 35.1832L36.3884 35.2784C36.372 35.2845 36.3543 35.2858 36.3371 35.2823C36.3202 35.2789 36.3043 35.2707 36.2912 35.2587C35.4704 34.4741 34.7145 33.6301 34.0254 32.9501C33.2046 32.1419 32.3572 31.2479 31.4834 30.2684C31.4802 30.2646 31.4777 30.2603 31.4763 30.2554C31.4748 30.2507 31.4743 30.2458 31.4748 30.241C31.4751 30.236 31.4765 30.2313 31.4788 30.227C31.4812 30.2228 31.4843 30.219 31.488 30.2161C31.7615 30.0014 31.9642 29.7372 32.0961 29.4233" stroke="#DEB254" stroke-width="0.0947718"/>
<path d="M32.0957 29.4231C32.602 28.6036 32.6078 27.3633 32.4194 26.4473" stroke="#DEB254" stroke-width="0.0947718"/>
<path d="M32.4244 26.4476C32.2072 25.616 31.776 24.8991 31.1309 24.2971" stroke="#DEB254" stroke-width="0.0947718"/>
<path d="M31.125 24.2976C31.0772 24.1929 31.1392 24.0561 31.3111 23.8872" stroke="#DEB254" stroke-width="0.0947718"/>
<path d="M59.2544 28.024L59.2245 27.3928C59.2242 27.3865 59.2219 27.3804 59.2181 27.376C59.2142 27.3715 59.2091 27.3688 59.2036 27.3685L59.1949 27.3698L59.1874 27.3745L59.1823 27.3818L59.1806 27.3904C59.1631 28.1391 59.0938 28.7017 58.7539 29.3399" stroke="#DEB254" stroke-width="0.0947718"/>
<path d="M58.7539 29.3398C58.2649 28.5064 58.496 27.2067 57.9353 26.6558C57.896 26.6168 57.8435 26.5942 57.7882 26.5922C57.733 26.5903 57.6791 26.6092 57.637 26.6453C57.5177 26.7468 57.4175 26.8915 57.3366 27.0789C57.2055 27.3827 56.8587 28.218 56.2961 29.5852C56.1527 29.9304 56.0429 30.5558 56.3065 30.8057C56.5531 31.0404 56.7119 31.2432 56.7828 31.4137" stroke="#DEB254" stroke-width="0.0947718"/>
<path d="M56.7842 31.4136L56.2988 31.5181" stroke="#DEB254" stroke-width="0.0947718"/>
<path d="M56.2997 31.5181L53.8848 31.4275" stroke="#DEB254" stroke-width="0.0947718"/>
<path d="M53.8828 31.4275L53.0573 31.0927C53.023 31.0787 52.9852 31.0754 52.9489 31.0833C52.9126 31.0911 52.8795 31.1097 52.854 31.1369L48.1778 36.0458C48.142 36.0836 48.1217 36.1336 48.1211 36.1856C48.1205 36.2376 48.1395 36.2877 48.1744 36.326C49.3366 37.6062 50.054 39.1384 50.3269 40.9222" stroke="#DEB254" stroke-width="0.0947718"/>
<path d="M50.3281 40.9223C50.238 40.8859 50.2113 40.942 50.2483 41.0909C50.2528 41.1083 50.2519 41.1268 50.2456 41.1437C50.2395 41.1608 50.2283 41.1755 50.2137 41.1862C49.9416 41.3869 49.6684 41.359 49.394 41.1025C48.9466 40.6818 48.9825 40.1562 48.5918 39.7344" stroke="#DEB254" stroke-width="0.0947718"/>
<path d="M48.5947 39.7341C47.8605 37.7673 46.4179 36.263 44.4931 35.4226C44.0655 35.2355 43.5648 35.1262 43.0781 34.9856" stroke="#DEB254" stroke-width="0.0947718"/>
<path d="M43.0747 34.9854L42.773 33.6649C42.7712 33.6563 42.771 33.6475 42.7724 33.6389C42.774 33.6303 42.7771 33.6219 42.7816 33.6146C42.7863 33.6072 42.7924 33.6009 42.7994 33.5959C42.8064 33.5911 42.8143 33.5876 42.8227 33.5859L43.0032 33.5452" stroke="#DEB254" stroke-width="0.0947718"/>
<path d="M47.875 34.7323C48.6795 34.1046 49.4297 33.4133 50.1257 32.6585C50.7862 31.9424 51.4053 31.1899 51.9835 30.4011" stroke="#DEB254" stroke-width="0.0947718"/>
<path d="M19.8775 44.7822L19.4023 45.5912" stroke="#DEB254" stroke-width="0.0947718"/>
<path d="M19.3972 45.5925C19.1406 45.6891 19.0839 45.9308 18.9464 46.0516C18.7614 46.2145 18.6192 46.4236 18.4135 46.5399C18.2547 46.6291 18.1803 46.7248 18.1903 46.8271C18.1918 46.8472 18.2014 46.8665 18.2169 46.8806L19.4735 48.0197" stroke="#DEB254" stroke-width="0.0947718"/>
<path d="M21.459 50.0725C21.869 50.6128 22.3114 51.123 22.7861 51.6036C23.62 52.449 24.0381 52.873 24.0381 52.873C24.4504 53.3022 24.875 53.7188 25.312 54.1225C25.3521 54.1598 25.3906 54.1887 25.4276 54.2097C25.5078 54.2555 25.5243 54.2466 25.4773 54.1829" stroke="#DEB254" stroke-width="0.0947718"/>
<path d="M23.6593 54.0277L22.1992 52.5015" stroke="#DEB254" stroke-width="0.0947718"/>
<path d="M17.1915 47.3206C17.1954 47.3096 17.1622 47.2854 17.0921 47.2473C17.0583 47.2293 17.0199 47.2224 16.9823 47.2275C16.3025 47.323 15.7684 47.3136 15.0413 47.1602C14.7885 47.1067 14.53 47.0694 14.2656 47.0486" stroke="#DEB254" stroke-width="0.0947718"/>
<path d="M32.4194 26.4473C32.4109 26.9169 32.4055 27.3818 32.4032 27.8422C32.4016 28.1747 32.2992 28.7016 32.0957 29.4231" stroke="#DEB254" stroke-width="0.0947718"/>
<path d="M36.6504 35.1834C36.9348 35.0935 37.1844 34.9401 37.3995 34.7231C37.4087 34.7138 37.4196 34.706 37.4319 34.6999L38.8445 34.0175C38.853 34.0137 38.8619 34.0109 38.8711 34.0093C39.1794 33.9698 39.4695 33.8672 39.7416 33.7014" stroke="#DEB254" stroke-width="0.0947718"/>
<path d="M40.8727 33.5339L40.8889 33.6526C40.8912 33.6648 40.8908 33.677 40.8878 33.6886L40.5976 34.8254C40.5936 34.8403 40.5866 34.8543 40.5768 34.8663C40.5671 34.8784 40.5548 34.8883 40.5409 34.8952C40.5409 34.8952 40.5306 34.8886 40.5144 34.8754C40.5026 34.8657 40.4882 34.8593 40.4733 34.8571C40.4582 34.8549 40.4427 34.8568 40.4289 34.8627C40.173 34.9688 39.8952 35.0401 39.5953 35.0766C39.5478 35.0819 39.5008 35.0937 39.4554 35.1114C38.755 35.3811 38.1291 35.7357 37.5781 36.175" stroke="#DEB254" stroke-width="0.0947718"/>
<path d="M37.5775 36.1753C36.4484 37.0346 35.6184 38.0793 35.0874 39.3092C34.4746 40.7289 34.3244 42.235 34.6365 43.8275C34.8131 44.7273 35.1791 45.5996 35.7348 46.4442C36.6488 47.833 37.8811 48.7885 39.4317 49.3108C39.8425 49.4487 40.2695 49.5847 40.7125 49.7188" stroke="#DEB254" stroke-width="0.0947718"/>
<path d="M40.7137 49.7185L40.8639 50.5426C40.865 50.5507 40.8634 50.559 40.8596 50.5661C40.8555 50.5733 40.8493 50.5789 40.8416 50.5821C40.8342 50.5852 40.8257 50.5858 40.8179 50.5838C40.81 50.5816 40.803 50.577 40.798 50.5705L40.4743 50.116C40.4658 50.1037 40.4527 50.0954 40.4379 50.0927C40.4232 50.0902 40.4081 50.0935 40.3958 50.1021L39.635 50.6507C39.6195 50.662 39.6001 50.6673 39.5808 50.6659L38.8398 50.6054" stroke="#DEB254" stroke-width="0.0947718"/>
<path d="M38.8408 50.6059C38.0224 50.2928 37.2389 49.8743 36.4906 49.3505C36.4605 49.3292 36.4238 49.3193 36.387 49.323C36.3502 49.3267 36.3161 49.3434 36.2907 49.3702L31.2342 54.678C31.2214 54.6921 31.2137 54.7102 31.213 54.7294C31.2122 54.7486 31.2179 54.7674 31.2296 54.7826C32.2223 56.0636 32.4607 57.4701 31.9452 59.0023" stroke="#DEB254" stroke-width="0.0947718"/>
<path d="M31.9427 59.0015L31.0548 60.315C31.0236 60.3616 31.0095 60.4177 31.0148 60.4736C31.0199 60.5296 31.0444 60.5819 31.0838 60.6219L33.0513 62.62" stroke="#DEB254" stroke-width="0.0947718"/>
<path d="M33.0512 62.6212L33.5217 64.1613C33.5228 64.1648 33.5228 64.1687 33.5218 64.1723C33.5207 64.1761 33.5187 64.1795 33.5159 64.1823C33.4952 64.2024 33.4905 64.2226 33.502 64.2428C33.5044 64.2466 33.5075 64.2497 33.5112 64.2521L33.5957 64.2974C33.601 64.3002 33.6055 64.3046 33.6088 64.3097C33.6119 64.3151 33.6139 64.3212 33.6142 64.3276C33.615 64.3539 33.6038 64.3733 33.5807 64.3857C33.5638 64.3942 33.5405 64.3849 33.5112 64.3578C32.8393 63.734 32.1957 63.0884 31.5808 62.4212C31.3002 62.1166 30.9862 61.8496 30.6387 61.6204" stroke="#DEB254" stroke-width="0.0947718"/>
<path d="M25.5339 60.9384C25.0634 60.2689 24.6426 59.5993 24.6045 58.9018C24.5605 58.085 24.6816 57.2236 24.9675 56.3176C25.2318 55.4807 25.7883 54.9227 26.6368 54.6438C27.8467 54.2463 29.0729 54.0192 30.3152 53.9626" stroke="#DEB254" stroke-width="0.0947718"/>
<path d="M30.3145 53.9626L35.4679 48.4922C35.4878 48.4713 35.4988 48.4434 35.4986 48.4144C35.4984 48.3853 35.4869 48.3574 35.4668 48.3364C34.9428 47.7916 34.4857 47.1783 34.0957 46.4963" stroke="#DEB254" stroke-width="0.0947718"/>
<path d="M34.0935 46.4966C33.891 46.1071 33.6945 45.7224 33.564 45.3073C32.942 43.3343 32.9371 41.3628 33.549 39.3928" stroke="#DEB254" stroke-width="0.0947718"/>
<path d="M33.5486 39.3922C33.9855 38.2096 34.621 37.1591 35.4549 36.2409C35.4687 36.2256 35.4765 36.2055 35.4767 36.1847C35.477 36.164 35.4695 36.1438 35.4559 36.1281C35.3704 36.0281 35.234 35.9421 35.1451 35.8445C33.747 34.3147 32.3066 32.819 30.8237 31.3575C30.6377 31.1726 30.5914 31.0657 30.3383 31.1901C30.0477 31.3335 29.7071 31.4493 29.3164 31.5377" stroke="#DEB254" stroke-width="0.0947718"/>
<path d="M29.3197 31.5382C28.6253 31.553 28.1251 31.5417 27.8192 31.5046C27.3382 31.4456 26.8061 31.2628 26.2227 30.9558" stroke="#DEB254" stroke-width="0.0947718"/>
<path d="M30.3122 53.9631C29.7673 53.605 29.1854 53.3912 28.5666 53.3214C27.4214 53.192 26.3913 53.4791 25.4766 54.1828" stroke="#DEB254" stroke-width="0.0947718"/>
<path d="M25.4773 54.1829L21.459 50.0725" stroke="#DEB254" stroke-width="0.0947718"/>
<path d="M21.4591 50.0717L19.4766 48.0188" stroke="#DEB254" stroke-width="0.0947718"/>
<path d="M19.4769 48.019L18.2954 46.8333C18.2896 46.8273 18.285 46.8205 18.2819 46.8126C18.2788 46.8049 18.2772 46.7966 18.2773 46.7883C18.2775 46.78 18.2792 46.7717 18.2825 46.7642C18.2858 46.7565 18.2906 46.7496 18.2966 46.7438L19.3647 45.7139" stroke="#DEB254" stroke-width="0.0947718"/>
<path d="M19.3672 45.7133C19.5976 45.4497 19.768 45.1393 19.8782 44.7822" stroke="#DEB254" stroke-width="0.0947718"/>
<path d="M19.8794 44.7831C20.1522 44.2243 20.2539 43.5776 20.1846 42.8429C20.0285 41.1888 19.1476 40.1031 17.7697 39.3475C17.7575 39.3411 17.747 39.3318 17.7391 39.3205C17.7311 39.3092 17.7258 39.2962 17.7237 39.2825C17.7216 39.2688 17.7227 39.2547 17.7268 39.2414C17.731 39.2281 17.7381 39.2159 17.7477 39.2057L23.5474 33.1865" stroke="#DEB254" stroke-width="0.0947718"/>
<path d="M29.3192 31.5379C28.557 31.7054 27.8703 31.6968 27.2591 31.5124C27.085 31.4597 26.9127 31.3989 26.7424 31.3298C26.6638 31.2974 26.5551 31.254 26.4164 31.1998L26.4119 31.1968L26.4106 31.1916L26.4135 31.1869L26.4187 31.1858C26.4287 31.1858 26.4388 31.1838 26.4488 31.1799L26.453 31.1763L26.4543 31.1708L26.4522 31.1656L26.4476 31.1625C26.275 31.1261 26.1159 31.0559 25.9702 30.952C25.9286 30.9224 25.878 30.9086 25.8273 30.9129C25.7765 30.9171 25.7288 30.9392 25.6927 30.9754L24.8789 31.7936" stroke="#DEB254" stroke-width="0.0947718"/>
<path d="M51.5608 25.4106C50.7238 26.9253 51.0163 28.8258 51.9967 30.187C52.0228 30.2242 52.0168 30.2955 51.9781 30.4009" stroke="#DEB254" stroke-width="0.0947718"/>
<path d="M51.9835 30.4011C50.5738 31.799 49.2044 33.2428 47.875 34.7323" stroke="#DEB254" stroke-width="0.0947718"/>
<path d="M47.8893 34.7089L47.2525 35.373C47.2336 35.3927 47.2082 35.4046 47.1811 35.4065C47.154 35.4082 47.1273 35.3999 47.1064 35.383C45.7951 34.3391 44.3034 33.6912 42.6309 33.4392" stroke="#DEB254" stroke-width="0.0947718"/>
<path d="M43.0014 33.5459C42.7864 33.5685 42.6642 33.5138 42.6349 33.382C42.416 32.3809 42.1825 31.3854 41.9343 30.3957C41.9089 30.2934 41.8885 30.1908 41.873 30.0876" stroke="#DEB254" stroke-width="0.0947718"/>
<path d="M41.8743 30.0871C41.8633 30.0221 41.8465 29.9679 41.8233 29.9245C41.8172 29.9131 41.8079 29.9037 41.7963 29.8977C41.785 29.8917 41.772 29.8895 41.7593 29.8911C41.7463 29.8927 41.7343 29.8983 41.7248 29.9069C41.7152 29.9156 41.7085 29.927 41.7053 29.9395L40.873 33.5338" stroke="#DEB254" stroke-width="0.0947718"/>
<path d="M40.8713 33.5333C40.4374 33.517 40.0617 33.5728 39.7441 33.7006" stroke="#DEB254" stroke-width="0.0947718"/>
<path d="M39.7447 33.7014C39.2044 33.8146 38.7231 33.9772 38.3008 34.1895" stroke="#DEB254" stroke-width="0.0947718"/>
<path d="M61.4003 33.0411L61.3875 33.0969C61.3837 33.1143 61.3744 33.1297 61.3613 33.1405C61.3482 33.1513 61.3322 33.1569 61.3158 33.1563L61.287 33.1505C61.2666 33.146 61.2482 33.1358 61.2338 33.1214L60.5264 32.3879C60.518 32.3794 60.5109 32.37 60.5055 32.36C60.3352 32.0709 60.2069 31.8919 60.1206 31.823C59.9919 31.7214 59.8882 31.6249 59.8095 31.5336C59.4616 31.1324 59.0778 30.7604 58.7148 30.3652" stroke="#DEB254" stroke-width="0.0947718"/>
<path d="M48.5895 39.7344C49.9826 43.5134 48.1502 47.5797 44.51 49.1674C44.1801 49.3108 43.6514 49.4697 42.9238 49.6441" stroke="#DEB254" stroke-width="0.0947718"/>
<path d="M42.9238 49.6439L44.0072 43.8865" stroke="#DEB254" stroke-width="0.0947718"/>
<path d="M64.8952 46.4753L65.1866 46.7182C65.1937 46.7243 65.1998 46.7317 65.2042 46.7402C65.2084 46.7486 65.211 46.7579 65.2117 46.7673C65.2123 46.7768 65.211 46.7862 65.2079 46.7953C65.2048 46.8042 65.1998 46.8124 65.1934 46.8194L64.5762 47.4843" stroke="#DEB254" stroke-width="0.0947718"/>
<path d="M64.5772 47.4846L58.4121 53.8327" stroke="#DEB254" stroke-width="0.0947718"/>
<path d="M58.4073 53.8326L58.1773 54.0651C58.1544 54.0875 58.1245 54.1015 58.0927 54.1042C58.0609 54.107 58.029 54.0985 58.0028 54.0802C56.8637 53.2757 55.6105 53.0681 54.2434 53.4572C53.999 53.5269 53.7034 53.6814 53.3567 53.921C53.3425 53.9307 53.3255 53.9357 53.3084 53.9354C53.2911 53.9349 53.2744 53.9291 53.2607 53.9186C53.1998 53.8729 53.092 53.7718 52.9371 53.6153C51.2061 51.8676 49.5672 50.1488 48.0205 48.4586C48.0038 48.4401 47.9945 48.4159 47.9941 48.3909C47.994 48.3658 48.0029 48.3415 48.0194 48.3226C48.4574 47.824 48.8632 47.3648 49.2158 46.7684C50.2778 44.9729 50.6473 43.0242 50.3244 40.9226" stroke="#DEB254" stroke-width="0.0947718"/>
<path d="M53.8848 31.4275C54.6807 31.6569 55.4858 31.6871 56.2997 31.5181" stroke="#DEB254" stroke-width="0.0947718"/>
<path d="M43.0781 34.9856C43.0781 35.1716 43.114 35.4284 43.1856 35.7562C43.6273 37.761 43.9517 39.2288 44.1591 40.1595C44.3023 40.8043 44.4457 41.37 44.5891 41.8567C44.7139 42.2752 44.7301 42.5681 44.5197 42.918C44.3316 43.2311 44.1625 43.5539 44.0122 43.8864" stroke="#DEB254" stroke-width="0.0947718"/>
<path d="M44.0087 43.8868C43.9109 43.9449 43.8337 43.9628 43.7775 43.9402C43.7379 43.9244 43.7047 43.8943 43.6831 43.8544C43.6614 43.8146 43.6524 43.7671 43.6573 43.7194C43.6835 43.4769 43.7254 43.2285 43.7833 42.9742C43.7851 42.9668 43.7848 42.9591 43.7826 42.9518C43.7806 42.9446 43.7766 42.938 43.7709 42.9328C43.7655 42.9275 43.7586 42.9239 43.7513 42.9222C43.7438 42.9206 43.7362 42.9208 43.729 42.9231C43.2424 43.08 42.8204 43.2078 42.344 43.4637C42.1707 43.5566 41.9895 43.6442 41.8008 43.7263" stroke="#DEB254" stroke-width="0.0947718"/>
<path d="M58.4121 53.833C58.7205 53.6385 58.9971 53.3968 59.2422 53.1077C59.2483 53.1006 59.255 53.094 59.2618 53.0879L60.0075 52.4776C60.038 52.4522 60.0642 52.422 60.0849 52.3881C60.2322 52.1471 60.4209 51.9495 60.6514 51.7952C60.6829 51.7743 60.7115 51.7502 60.7369 51.7233L62.0872 50.2608C62.0956 50.2516 62.105 50.243 62.1149 50.2353C62.4763 49.9493 62.7219 49.6757 62.8512 49.4145C62.8688 49.3777 62.8932 49.3441 62.9229 49.3158L64.1102 48.1917" stroke="#DEB254" stroke-width="0.0947718"/>
<path d="M64.1082 48.1913C64.4649 47.914 64.8529 47.8035 65.2723 47.8601C65.2793 47.861 65.286 47.8638 65.2917 47.8679C65.2977 47.8721 65.3023 47.8776 65.3055 47.884C65.3086 47.8905 65.3103 47.8975 65.3101 47.9047C65.31 47.9119 65.3081 47.9188 65.3047 47.9251C65.0627 48.3544 64.7814 48.7609 64.4607 49.1445C64.4607 49.1445 64.2485 49.3573 63.8283 49.7758C63.6111 49.9927 63.4262 50.2342 63.2734 50.4999" stroke="#DEB254" stroke-width="0.0947718"/>
<path d="M63.1473 50.6591C63.0609 50.6172 63.0143 50.6288 63.0073 50.694C62.9184 50.737 62.8362 50.7601 62.7784 50.8335C62.5288 51.1527 62.2363 51.4336 61.9011 51.6762C61.861 51.7055 61.8251 51.74 61.7936 51.7785C61.4341 52.226 61.0294 52.5515 60.6548 52.949C60.066 53.5722 59.6618 53.9922 59.4421 54.2092C59.0653 54.5812 58.8434 54.8811 58.2919 54.9438C57.6677 55.0158 57.3013 55.1287 56.9487 55.5483C56.7582 55.7746 56.5923 56.0047 56.4505 56.2389C56.0327 56.9285 55.6039 57.7162 55.1638 58.602C54.9441 59.0461 54.7515 59.6645 54.5858 60.4573C54.3996 61.3465 54.0043 61.2396 53.2656 61.1908C53.3015 61.1965 53.3373 61.2023 53.3731 61.2083" stroke="#DEB254" stroke-width="0.0947718"/>
<path d="M53.3763 61.208L48.209 66.5377" stroke="#DEB254" stroke-width="0.0947718"/>
<path d="M48.2057 66.5378C47.3795 67.2826 46.5673 68.0327 45.7689 68.7883C45.5245 69.0201 45.266 69.1987 44.9932 69.3242C44.5666 69.5207 43.8961 69.6439 43.4338 69.9287C43.026 70.1798 42.6677 70.5507 42.3585 71.0411C41.8345 71.8727 41.4208 72.622 41.117 73.2894C40.6072 74.4088 40.4049 75.3991 41.6638 75.978C42.0307 76.147 42.6222 76.3044 43.4383 76.4499" stroke="#DEB254" stroke-width="0.0947718"/>
<path d="M33.0527 62.6206C34.164 63.7885 35.2753 64.9497 36.3867 66.1044C36.5832 66.3091 36.7588 66.5682 36.937 66.7542C37.6344 67.4835 38.3538 68.1933 39.0952 68.8839" stroke="#DEB254" stroke-width="0.0947718"/>
<path d="M39.0938 68.8841L39.3897 69.0922C39.4065 69.104 39.4264 69.1106 39.447 69.1109C39.4676 69.1113 39.4878 69.1057 39.5053 69.0946C40.995 68.1483 42.5141 68.1248 44.0624 69.0236C44.0895 69.0393 44.121 69.0454 44.1517 69.0408C44.1825 69.0364 44.2109 69.0219 44.2322 68.9993L52.4158 60.4321" stroke="#DEB254" stroke-width="0.0947718"/>
<path d="M52.4152 60.4322C51.8048 59.6743 51.4577 58.8571 51.3737 57.9806C51.2612 56.7957 51.5649 55.7449 52.2846 54.828C52.3013 54.8067 52.3099 54.7801 52.3086 54.753C52.3074 54.7259 52.2963 54.7002 52.2778 54.6804L47.1912 49.3111C47.1711 49.2902 47.1441 49.2774 47.1153 49.275C47.0866 49.2727 47.0581 49.281 47.0352 49.2984C45.7705 50.2469 44.2985 50.8522 42.6191 51.114" stroke="#DEB254" stroke-width="0.0947718"/>
<path d="M42.6196 51.1131C42.5262 51.1332 42.4935 50.9903 42.5213 50.6841C42.5242 50.6473 42.5403 50.6128 42.5663 50.5865C42.8376 50.3099 42.9567 49.9956 42.9236 49.6438" stroke="#DEB254" stroke-width="0.0947718"/>
<path d="M58.7551 29.3401C58.673 29.5214 58.4869 29.7376 58.4961 29.947C58.4961 29.9474 58.4961 29.9481 58.4958 29.9485M58.4958 29.9485C58.4957 29.949 58.4961 29.9485 58.4958 29.9485ZM58.4958 29.9485L58.4939 29.9504C58.4933 29.9506 58.4925 29.9507 58.4918 29.9506C58.4911 29.9506 58.4904 29.9503 58.4899 29.9499M58.4899 29.9499C58.4894 29.9498 58.4897 29.9503 58.4899 29.9499ZM58.4899 29.9499C58.4899 29.9495 58.4899 29.9482 58.4904 29.9481C58.5034 29.9302 58.5078 29.9152 58.5031 29.9028C58.5014 29.8992 58.4986 29.896 58.495 29.8942C58.4914 29.8923 58.4874 29.8917 58.4837 29.8923C58.4798 29.8931 58.4765 29.8951 58.4741 29.8979C58.4717 29.9009 58.4706 29.9047 58.4707 29.9086C58.4777 30.0814 58.5605 30.2336 58.7193 30.3653" stroke="#DEB254" stroke-width="0.0947718"/>
<path d="M58.7173 30.3652C58.4869 30.6233 58.3701 30.9301 58.367 31.2858C58.367 31.2907 58.3658 31.2954 58.3634 31.2995C58.3609 31.3035 58.3574 31.3068 58.3532 31.3089C58.3489 31.311 58.3443 31.312 58.3396 31.3117C58.3349 31.3114 58.3304 31.3096 58.3265 31.3068L57.8145 30.9511" stroke="#DEB254" stroke-width="0.0947718"/>
<path d="M57.8175 30.9512C57.5316 30.9775 57.1875 31.1317 56.7852 31.4139" stroke="#DEB254" stroke-width="0.0947718"/>
<path d="M19.3666 45.7146C19.3242 45.7077 19.3362 45.667 19.4024 45.5925" stroke="#DEB254" stroke-width="0.0947718"/>
<path d="M41.8715 30.0876C41.8476 30.2349 41.8314 30.3838 41.823 30.5341C41.7513 31.8174 41.737 33.0224 41.7802 34.1492C41.811 34.9297 41.8092 36.3204 41.7744 38.3212C41.7478 39.9208 41.8045 41.9226 41.7975 43.7266" stroke="#DEB254" stroke-width="0.0947718"/>
<path d="M41.801 43.7263C41.8148 44.9062 41.8658 46.1548 41.8449 47.2719C41.8172 48.7567 41.8064 50.2414 41.8125 51.7263C41.8133 51.9162 41.7745 52.3419 41.6958 53.0038C41.6688 53.234 41.7282 53.7238 41.8739 54.4731" stroke="#DEB254" stroke-width="0.0947718"/>
<path d="M41.875 54.4731C41.8889 54.566 41.8836 54.6393 41.8588 54.6927C41.8559 54.6989 41.8509 54.7039 41.8449 54.7072C41.8389 54.7105 41.832 54.7117 41.8253 54.7111C41.8185 54.7103 41.8121 54.7075 41.8069 54.7029C41.8018 54.6984 41.7982 54.6924 41.7965 54.6857L41.623 53.9116" stroke="#DEB254" stroke-width="0.0947718"/>
<path d="M41.6211 53.9112L41.0015 51.2156C40.9931 51.1787 40.9735 51.1457 40.9453 51.1206C40.9171 51.0957 40.8818 51.08 40.8443 51.0759C40.1847 51.007 39.5165 50.8501 38.8398 50.6052" stroke="#DEB254" stroke-width="0.0947718"/>
<path d="M40.7105 49.7183C40.3744 47.9846 40.0515 46.2654 39.7417 44.5605C39.6943 44.299 39.64 43.7979 39.4816 43.5771C39.2237 43.2156 38.7718 42.7424 38.8689 42.2822C38.9968 41.6768 39.22 40.7763 39.5382 39.5806" stroke="#DEB254" stroke-width="0.0947718"/>
<path d="M39.5371 39.5806C39.7006 39.2147 39.8243 38.8332 39.9083 38.4357C39.9931 38.0342 40.0397 37.8148 40.0481 37.7777C40.2594 36.8864 40.4539 35.9926 40.632 35.0958C40.6328 35.0889 40.632 35.0822 40.6296 35.0761C40.6181 35.0498 40.5949 35.0444 40.5603 35.0598" stroke="#DEB254" stroke-width="0.0947718"/>
<path d="M40.5641 35.0603L40.5618 35.0011C40.5613 34.9918 40.5588 34.9829 40.5542 34.9749C40.5496 34.967 40.5433 34.9603 40.5355 34.9553C40.5277 34.9504 40.5189 34.9475 40.5099 34.9467C40.5007 34.9461 40.4915 34.9475 40.4831 34.9511C40.2489 35.0456 40.003 35.1079 39.7456 35.1382C39.698 35.1436 39.6511 35.1545 39.6058 35.1708C38.8975 35.4304 38.2215 35.7651 37.5781 36.175" stroke="#DEB254" stroke-width="0.0947718"/>
<path d="M40.5603 35.0601L39.5371 39.5809" stroke="#DEB254" stroke-width="0.0947718"/>
<path d="M39.0944 68.8833C38.9225 68.6563 38.5643 68.2575 38.0194 67.6871C35.7188 65.2817 33.4264 62.8933 31.1423 60.5219C31.117 60.4959 31.1025 60.4612 31.1016 60.4249C31.1008 60.3885 31.1136 60.353 31.1376 60.3254C31.4843 59.9263 31.753 59.485 31.9434 59.0015" stroke="#DEB254" stroke-width="0.0947718"/>
<path d="M70.0804 39.9355C69.5425 39.8766 69.0173 39.8587 68.5048 39.8819C67.4054 39.9331 66.9256 40.669 66.6135 41.6209C66.1318 43.0934 65.7153 44.3457 65.3639 45.378C65.2807 45.6213 65.1242 45.9871 64.8945 46.4753" stroke="#DEB254" stroke-width="0.0947718"/>
<path d="M64.8909 46.4751C63.8213 45.5429 63.3126 44.3691 63.365 42.9541" stroke="#DEB254" stroke-width="0.0947718"/>
<path d="M63.3691 42.9543C63.4146 42.0438 63.7124 41.2521 64.2627 40.5796" stroke="#DEB254" stroke-width="0.0947718"/>
<path d="M64.2604 40.5796C64.6912 40.0721 65.1886 39.6757 65.7527 39.3905C65.7682 39.3828 65.7814 39.3717 65.7917 39.3579C65.802 39.3441 65.809 39.3281 65.812 39.3112C65.8151 39.2943 65.814 39.2769 65.8091 39.2603C65.8043 39.2438 65.7957 39.2286 65.7841 39.2161C63.22 36.4402 60.5634 33.6852 57.8145 30.9512" stroke="#DEB254" stroke-width="0.0947718"/>
<path d="M42.621 51.1135L41.873 54.4731" stroke="#DEB254" stroke-width="0.0947718"/>
<path d="M64.1035 48.1913C64.3154 47.9759 64.4711 47.7403 64.5705 47.4846" stroke="#DEB254" stroke-width="0.0947718"/>
<path d="M56.0423 61.7061C55.1699 61.7518 54.3214 61.5906 53.4968 61.2225C53.4743 61.2125 53.4332 61.2078 53.373 61.2086" stroke="#DEB254" stroke-width="0.0947718"/>
<path d="M45.9363 73.0397C46.0166 71.9129 45.7314 70.8845 45.081 69.9545C45.0676 69.9354 45.0612 69.9122 45.0627 69.8889C45.0644 69.8657 45.0741 69.8436 45.0902 69.8267L48.2021 66.5381" stroke="#DEB254" stroke-width="0.0947718"/>
<path d="M45.257 9.29588C44.6983 9.11996 44.3345 9.32223 44.1657 9.90267C43.8583 10.9597 43.4706 11.899 43.0028 12.7204C42.8479 12.9932 42.6429 13.2691 42.3879 13.5481C41.9196 14.0596 41.4758 14.5815 41.0295 14.9325C40.6959 15.1945 40.2993 15.2758 39.8399 15.1767C39.7964 15.1676 39.7506 15.1729 39.7093 15.1918C39.2831 15.3878 38.9707 15.7036 38.7718 16.1392L31.3143 23.8868C31.2465 23.8961 31.1856 23.9276 31.1316 23.981C31.1274 23.9851 31.122 23.9879 31.1162 23.9888C31.1104 23.9899 31.1044 23.9893 31.0989 23.9869C31.0935 23.9846 31.0889 23.9807 31.0857 23.9757C31.0824 23.9706 31.0807 23.9648 31.0808 23.9589C31.0816 23.9047 31.1065 23.8534 31.1559 23.8055C31.5628 23.4101 31.912 23.1289 32.0473 22.586C32.0495 22.5762 32.049 22.566 32.0456 22.5565C32.0423 22.547 32.0362 22.5387 32.0283 22.5326C32.0203 22.5265 32.0108 22.5228 32.0009 22.5219C31.9909 22.5211 31.9809 22.5232 31.972 22.5279C31.7271 22.6658 31.4866 22.7832 31.2507 22.8802C30.8658 23.0382 30.5929 23.3009 30.3791 23.5822C30.3508 23.6195 30.3121 23.6474 30.2679 23.6621C30.2238 23.6768 30.1762 23.6778 30.1317 23.6648C29.415 23.4609 28.6563 23.3338 27.8555 23.2835C28.2316 23.2572 28.4994 23.2525 28.6589 23.2696C28.9734 23.3036 29.3776 23.3932 29.8716 23.538C29.9833 23.5714 30.1139 23.5106 30.2635 23.3556C31.719 21.8514 33.4968 19.9159 35.1605 18.2327C36.1893 17.1923 37.432 15.802 38.6285 14.5722C38.6557 14.544 38.6716 14.5065 38.6729 14.4672C38.6741 14.4278 38.6607 14.3894 38.6353 14.3595C37.8574 13.4481 37.5545 12.2008 37.7198 11.0233C37.9579 9.32494 39.3129 7.9335 40.9497 7.56384C41.8507 7.36081 42.7497 7.47008 43.6466 7.89165C44.2965 8.19621 44.8331 8.66429 45.257 9.29588Z" fill="#DEB254"/>
<path d="M45.2568 9.29574C45.5975 9.76769 45.8089 10.2645 45.8914 10.786C46.108 12.1553 45.7927 13.3701 44.9458 14.4302C44.9282 14.4525 44.9191 14.4804 44.9204 14.5088C44.9216 14.5373 44.9332 14.5643 44.9528 14.5848L49.3838 19.2718L49.764 19.7972C49.7854 19.8263 49.8 19.86 49.8069 19.896L50.1491 21.699L44.0326 15.3555C44.0147 15.3373 43.9915 15.3252 43.9664 15.321C43.9413 15.3168 43.9154 15.3208 43.8927 15.3323C42.4731 16.0607 41.0751 16.0611 39.6987 15.3335C39.6742 15.3204 39.6463 15.3157 39.619 15.3199C39.5918 15.324 39.5665 15.337 39.5472 15.3567L38.7715 16.139C38.9703 15.7035 39.2829 15.3877 39.709 15.1916C39.7503 15.1727 39.7961 15.1674 39.8397 15.1765C40.2989 15.2757 40.6955 15.1943 41.0291 14.9324C41.4754 14.5814 41.9194 14.0594 42.3875 13.5479C42.6426 13.269 42.8477 12.9931 43.0026 12.7203C43.4704 11.8988 43.8579 10.9596 44.1655 9.90255C44.3343 9.3221 44.698 9.11984 45.2568 9.29574Z" fill="#DEB254"/>
<path d="M59.2556 28.024L59.2256 27.3928C59.2252 27.3864 59.2231 27.3804 59.2192 27.3759C59.2153 27.3713 59.2101 27.3687 59.2047 27.3683L59.196 27.3697L59.1885 27.3745L59.1833 27.3817L59.1816 27.3904C59.1643 28.1391 59.0948 28.7017 58.755 29.3399C58.266 28.5064 58.4972 27.2068 57.9365 26.6558C57.8971 26.6168 57.8447 26.5941 57.7894 26.5922C57.7343 26.5903 57.6803 26.6091 57.6383 26.6453C57.5189 26.7469 57.4187 26.8914 57.3377 27.0789C57.2068 27.3828 56.8599 28.2181 56.2974 29.5851C56.154 29.9303 56.0441 30.5558 56.3078 30.8056C56.5543 31.0405 56.7131 31.2431 56.784 31.4136L56.2985 31.5183L53.8836 31.4275L53.0581 31.0928C53.0238 31.0787 52.986 31.0754 52.9497 31.0834C52.9134 31.0913 52.8803 31.1099 52.8548 31.137L48.1786 36.046C48.1428 36.0837 48.1225 36.1336 48.1219 36.1856C48.1213 36.2376 48.1403 36.2879 48.1752 36.3262C49.3374 37.6064 50.0548 39.1384 50.3277 40.9223C50.2374 40.886 50.211 40.9421 50.2479 41.091C50.2524 41.1083 50.2515 41.1268 50.2452 41.1438C50.239 41.1608 50.2279 41.1756 50.2131 41.1862C49.9412 41.387 49.6679 41.3591 49.3936 41.1025C48.9462 40.6818 48.9821 40.1563 48.5913 39.7344C47.8573 37.7676 46.4145 36.2633 44.4898 35.423C44.0621 35.2357 43.5615 35.1265 43.0747 34.9858L42.773 33.6653C42.7712 33.6567 42.771 33.6479 42.7724 33.6393C42.774 33.6305 42.7771 33.6224 42.7816 33.615C42.7863 33.6076 42.7924 33.6014 42.7994 33.5964C42.8064 33.5915 42.8143 33.5881 42.8227 33.5862L43.0032 33.5456C44.5514 33.7811 45.9325 34.3867 47.1462 35.3625C47.1657 35.3783 47.1904 35.3861 47.2154 35.3844C47.2405 35.3827 47.2641 35.3716 47.2815 35.3531L47.8712 34.7324C48.6757 34.1047 49.4259 33.4135 50.1218 32.6585C50.7824 31.9426 51.4017 31.19 51.9796 30.4012C52.0181 30.2957 52.0243 30.2244 51.9982 30.1873C51.0178 28.8261 50.7254 26.9255 51.5623 25.4107C51.812 24.9845 52.1079 24.6114 52.4501 24.2913C52.4652 24.2772 52.4739 24.2575 52.4745 24.2366C52.4752 24.2158 52.4677 24.1954 52.4535 24.1797L50.1496 21.6991L49.8075 19.8962C49.8007 19.8602 49.786 19.8265 49.7647 19.7974L49.3843 19.272L53.4246 23.5183C53.4429 23.5378 53.4664 23.5515 53.4923 23.5578C53.518 23.5642 53.5451 23.563 53.5703 23.5544C55.3657 22.9337 57.1228 23.3475 58.3331 24.789C59.0637 25.6585 59.3713 26.7367 59.2556 28.024Z" fill="#DEB254"/>
<path d="M31.3129 23.8866C31.141 24.0555 31.079 24.1923 31.1266 24.2968C30.6844 25.3996 30.2423 26.5094 29.8007 27.6261C29.1222 29.343 28.1014 30.6264 26.2206 30.9553C26.0009 30.8259 25.8036 30.8177 25.6287 30.9308C25.4183 31.0673 25.1678 31.3549 24.8773 31.7934L23.5432 33.186C23.2928 33.3643 23.0307 33.484 22.7571 33.5453C22.7406 33.5489 22.7234 33.5473 22.7079 33.5406C22.6923 33.534 22.6792 33.5226 22.6704 33.508C22.5017 33.2275 22.5175 32.9455 22.7178 32.6619C22.9514 32.3333 23.2076 32.0058 23.4866 31.6795L24.9732 30.0858C24.9986 30.0587 25.0143 30.0237 25.0176 29.9864C25.021 29.9491 25.0119 29.9117 24.9917 29.88C24.4653 29.061 24.228 28.2034 24.2796 27.3076C24.3328 26.3707 24.6476 25.538 25.2241 24.8095C25.8622 24.0035 26.7388 23.4949 27.8541 23.2832C28.6547 23.3336 29.4134 23.4607 30.1303 23.6646C30.1748 23.6776 30.2222 23.6766 30.2665 23.6619C30.3106 23.6472 30.3494 23.6193 30.3776 23.582C30.5915 23.3007 30.8642 23.0379 31.2493 22.8798C31.485 22.783 31.7255 22.6656 31.9706 22.5276C31.9795 22.5229 31.9895 22.5208 31.9994 22.5217C32.0094 22.5225 32.0189 22.5262 32.0269 22.5323C32.0348 22.5385 32.0407 22.5468 32.0442 22.5562C32.0474 22.5657 32.0481 22.576 32.0457 22.5858C31.9105 23.1287 31.5614 23.4099 31.1544 23.8051C31.1051 23.8532 31.08 23.9043 31.0793 23.9587C31.0793 23.9646 31.081 23.9704 31.0841 23.9754C31.0874 23.9803 31.092 23.9842 31.0975 23.9866C31.103 23.9889 31.1089 23.9897 31.1146 23.9886C31.1206 23.9875 31.1259 23.9848 31.1302 23.9808C31.1841 23.9272 31.2451 23.8958 31.3129 23.8866Z" fill="#DEB254"/>
<path d="M31.1291 24.2969C31.7741 24.8989 32.2053 25.6158 32.4227 26.4474C32.4141 26.917 32.4088 27.3819 32.4064 27.8423C32.4049 28.1748 32.3024 28.7017 32.099 29.4232C31.9672 29.737 31.7644 30.0014 31.4909 30.2159C31.487 30.2189 31.4839 30.2226 31.4818 30.2269C31.4794 30.2313 31.478 30.236 31.4775 30.2408C31.4772 30.2457 31.4777 30.2507 31.4793 30.2554C31.4807 30.2601 31.4832 30.2645 31.4863 30.2682C32.3602 31.2479 33.2076 32.1417 34.0283 32.9501C34.7174 33.63 35.4733 34.4739 36.2941 35.2587C36.307 35.2706 36.3229 35.2787 36.3401 35.2822C36.3572 35.2856 36.375 35.2844 36.3912 35.2784L36.6559 35.1831C36.9403 35.0932 37.1901 34.9398 37.405 34.7228C37.4142 34.7135 37.4253 34.7057 37.4374 34.6994L38.8502 34.0172C38.8586 34.0133 38.8675 34.0106 38.8767 34.009C39.1849 33.9695 39.475 33.8667 39.7471 33.701C40.0647 33.5731 40.4404 33.5173 40.8742 33.5336L40.8904 33.6521C40.8928 33.6643 40.8923 33.6767 40.8894 33.6881L40.5992 34.8251C40.5951 34.84 40.5881 34.8539 40.5783 34.866C40.5685 34.8779 40.5563 34.8878 40.5425 34.8948C40.5425 34.8948 40.532 34.8882 40.516 34.8751C40.504 34.8652 40.4898 34.8589 40.4747 34.8566C40.4597 34.8544 40.4443 34.8563 40.4304 34.8622C40.1746 34.9685 39.8967 35.0398 39.5969 35.0761C39.5494 35.0814 39.5023 35.0932 39.457 35.1111C38.7565 35.3807 38.1307 35.7352 37.5797 36.1746C36.4505 37.034 35.6206 38.0787 35.0895 39.3086C34.477 40.7283 34.3266 42.2344 34.6387 43.8269C34.8153 44.7267 35.1813 45.5989 35.737 46.4436C36.6509 47.8324 37.8832 48.7879 39.4339 49.3102C39.8447 49.4481 40.2716 49.5841 40.7148 49.7182L40.865 50.5424C40.8661 50.5504 40.8646 50.5587 40.8605 50.566C40.8565 50.573 40.8502 50.5786 40.8428 50.5818C40.8353 50.5849 40.8269 50.5855 40.8189 50.5835C40.8111 50.5815 40.8041 50.5768 40.7991 50.5703L40.4755 50.1158C40.4669 50.1034 40.4538 50.0951 40.439 50.0924C40.4244 50.0899 40.4091 50.0932 40.3968 50.1018L39.6362 50.6504C39.6204 50.6617 39.6013 50.667 39.5818 50.6656L38.8408 50.6051C38.0224 50.292 37.239 49.8735 36.4906 49.3497C36.4605 49.3284 36.4237 49.3185 36.387 49.3223C36.3503 49.3259 36.3161 49.3426 36.2907 49.3694L31.2343 54.6772C31.2214 54.6913 31.2139 54.7095 31.2129 54.7286C31.2122 54.7477 31.2181 54.7666 31.2296 54.7818C32.2223 56.0628 32.4608 57.4693 31.9452 59.0015L31.0574 60.3149C31.0261 60.3616 31.0119 60.4177 31.0172 60.4737C31.0225 60.5296 31.0468 60.5819 31.0863 60.6219L33.0538 62.6201L33.5244 64.1604C33.5255 64.1638 33.5255 64.1676 33.5244 64.1714C33.5234 64.175 33.5214 64.1784 33.5186 64.1812C33.4977 64.2014 33.493 64.2215 33.5047 64.2417C33.5069 64.2455 33.5102 64.2488 33.5139 64.251L33.5982 64.2964C33.6037 64.2992 33.608 64.3035 33.6113 64.3088C33.6146 64.3141 33.6165 64.3202 33.6168 64.3265C33.6176 64.353 33.6063 64.3722 33.5833 64.3846C33.5663 64.3932 33.5432 64.3838 33.5139 64.3567C32.8418 63.7329 32.1984 63.0873 31.5834 62.4201C31.3029 62.1157 30.9889 61.8487 30.6412 61.6193L30.203 61.2065C30.1831 61.1879 30.1578 61.1758 30.1307 61.1721C30.1036 61.1683 30.076 61.173 30.0517 61.1857C28.5233 61.9731 27.0175 61.8905 25.5339 60.9381C25.0634 60.2685 24.6426 59.599 24.6045 58.9015C24.5605 58.0847 24.6816 57.2233 24.9675 56.3173C25.2318 55.4804 25.7883 54.9224 26.6368 54.6435C27.8467 54.2459 29.0729 54.0189 30.3152 53.9623L35.4688 48.4918C35.4886 48.4709 35.4997 48.443 35.4995 48.4141C35.4992 48.3849 35.4878 48.357 35.4676 48.336C34.9435 47.7913 34.4865 47.1779 34.0966 46.4959C33.8943 46.1066 33.6977 45.7217 33.5671 45.3068C32.9451 43.3337 32.9402 41.3623 33.5521 39.3923C33.9891 38.2097 34.6245 37.1592 35.4584 36.2408C35.4722 36.2255 35.48 36.2056 35.4802 36.1847C35.4805 36.1639 35.473 36.1438 35.4595 36.1282C35.3739 36.0282 35.2376 35.9422 35.1486 35.8446C33.7505 34.3147 32.3101 32.8191 30.8273 31.3574C30.6412 31.1727 30.5949 31.0657 30.3419 31.1901C30.0512 31.3334 29.7106 31.4492 29.3199 31.5376C28.6255 31.5524 28.1253 31.5411 27.8194 31.5039C27.3385 31.445 26.8063 31.2622 26.2229 30.9553C28.1038 30.6263 29.1245 29.3429 29.8032 27.626C30.2448 26.5093 30.6867 25.3995 31.1291 24.2969Z" fill="#DEB254"/>
<path d="M58.7539 29.3402C58.6717 29.5216 58.4857 29.7379 58.4949 29.9471C58.4949 29.9477 58.4947 29.9483 58.4946 29.9486C58.4949 29.9486 58.4942 29.9491 58.4946 29.9486L58.4925 29.9505C58.4919 29.9507 58.4913 29.9508 58.4905 29.9508C58.4897 29.9507 58.4891 29.9505 58.4886 29.9502C58.4886 29.9505 58.4882 29.9499 58.4886 29.9502C58.4888 29.9499 58.4885 29.9485 58.4891 29.9482C58.5022 29.9305 58.5064 29.9153 58.5017 29.9029C58.5002 29.8993 58.4972 29.8963 58.4938 29.8944C58.4902 29.8925 58.4861 29.8917 58.4822 29.8925C58.4785 29.8932 58.4751 29.8952 58.4727 29.8982C58.4704 29.9011 58.4692 29.9048 58.4695 29.9087C58.4763 30.0815 58.5592 30.2338 58.718 30.3656C58.4875 30.6235 58.3708 30.9305 58.3677 31.2862C58.3677 31.2909 58.3665 31.2956 58.364 31.2997C58.3616 31.3037 58.358 31.307 58.3538 31.3092C58.3496 31.3114 58.345 31.3123 58.3403 31.312C58.3356 31.3116 58.3311 31.3098 58.3272 31.307L57.8151 30.9513C57.5292 30.9778 57.1851 31.132 56.7828 31.414C56.7119 31.2436 56.5531 31.041 56.3065 30.8061C56.0429 30.5561 56.1527 29.9308 56.2961 29.5856C56.8587 28.2186 57.2055 27.3831 57.3366 27.0794C57.4175 26.8918 57.5177 26.7472 57.637 26.6456C57.6791 26.6096 57.733 26.5906 57.7882 26.5927C57.8435 26.5946 57.896 26.6173 57.9353 26.6561C58.496 27.2072 58.2649 28.5067 58.7539 29.3402Z" fill="#DEB254"/>
<path d="M32.0957 29.4231C32.2991 28.7016 32.4016 28.1747 32.4032 27.8422C32.4055 27.3818 32.4109 26.9169 32.4194 26.4473C32.6078 27.3633 32.602 28.6036 32.0957 29.4231Z" fill="#DEB254"/>
<path d="M59.2556 28.0241C59.1755 28.6612 58.9639 29.25 58.6211 29.791C58.5324 29.9312 58.5486 30.0622 58.6696 30.1839C59.6006 31.1185 60.5122 32.0709 61.4047 33.0411L61.3921 33.0969C61.3882 33.1143 61.379 33.1297 61.3659 33.1405C61.3526 33.1513 61.3366 33.1569 61.3204 33.1563L61.2914 33.1505C61.271 33.146 61.2526 33.1358 61.2383 33.1214L60.5308 32.3879C60.5224 32.3794 60.5154 32.37 60.5099 32.36C60.3396 32.0709 60.2113 31.8919 60.125 31.823C59.9963 31.7214 59.8927 31.6249 59.8141 31.5336C59.4662 31.1324 59.0824 30.7604 58.7193 30.3652C58.5605 30.2335 58.4777 30.0812 58.4707 29.9085C58.4706 29.9046 58.4717 29.9008 58.4741 29.8978C58.4765 29.8948 58.4798 29.893 58.4837 29.8922C58.4874 29.8915 58.4914 29.8922 58.495 29.8941C58.4986 29.8959 58.5014 29.8989 58.5031 29.9025C58.5078 29.9151 58.5034 29.9301 58.4904 29.948C58.4904 29.9475 58.4899 29.9481 58.4904 29.948C58.4902 29.9483 58.4894 29.9495 58.4899 29.9498C58.4904 29.9502 58.4911 29.9505 58.4918 29.9505C58.4925 29.9506 58.4933 29.9505 58.4939 29.9503L58.495 29.9491C58.4949 29.9495 58.4953 29.9491 58.495 29.9491C58.4953 29.9486 58.4961 29.9473 58.4961 29.9467C58.4869 29.7375 58.673 29.5213 58.7551 29.34C59.095 28.7018 59.1643 28.1392 59.1818 27.3905C59.1818 27.3876 59.1822 27.3846 59.1835 27.3819C59.1847 27.3791 59.1864 27.3766 59.1885 27.3745C59.1907 27.3725 59.1933 27.3708 59.1961 27.3698C59.1989 27.3688 59.2019 27.3683 59.2048 27.3684C59.2103 27.3688 59.2154 27.3716 59.2193 27.376C59.2231 27.3805 59.2254 27.3866 59.2256 27.3929L59.2556 28.0241Z" fill="#DEB254"/>
<path d="M41.774 38.3207C41.8086 36.3199 41.8107 34.9292 41.7798 34.1487C41.7366 33.0219 41.7508 31.8169 41.8225 30.5336C41.8311 30.3833 41.8471 30.2344 41.8711 30.0871C41.8604 30.0221 41.8434 29.9679 41.8202 29.9245C41.8141 29.9131 41.8047 29.9037 41.7934 29.8977C41.7818 29.8917 41.7689 29.8895 41.7561 29.8911C41.7433 29.8927 41.7313 29.8983 41.7217 29.9069C41.712 29.9156 41.7053 29.927 41.7024 29.9395L40.8699 33.5338L40.8579 33.6234C40.8603 33.6357 40.861 33.6734 40.8579 33.6849L40.7264 34.2551L40.6331 35.0961C40.4549 35.9928 40.2603 36.8866 40.0492 37.7779C40.0408 37.8151 39.9942 38.0344 39.9094 38.4359C39.8254 38.8334 39.7017 39.215 39.5382 39.5809C39.22 40.7766 38.9968 41.6771 38.8689 42.2823C38.7718 42.7427 39.2237 43.2157 39.4816 43.5772C39.64 43.7982 39.6943 44.2991 39.7417 44.5606C40.0515 46.2656 40.3744 47.9849 40.7105 49.7184L40.8607 50.5427L40.9983 51.2157L41.6179 53.9113L41.7913 54.6855C41.7931 54.6923 41.7966 54.6982 41.8018 54.7028C41.8069 54.7073 41.8133 54.7101 41.8202 54.7108C41.8269 54.7115 41.8337 54.7103 41.8398 54.707C41.8457 54.7037 41.8507 54.6987 41.8537 54.6926C41.8785 54.639 41.8838 54.5658 41.8699 54.4729C41.7243 53.7234 41.665 53.2337 41.6919 53.0036C41.7705 52.3417 41.8094 51.9158 41.8086 51.726C41.8026 50.2412 41.8133 48.7563 41.8411 47.2715C41.8618 46.1544 41.811 44.906 41.7971 43.7261C41.8041 41.922 41.7474 39.9203 41.774 38.3207Z" fill="#DEB254"/>
<path d="M42.7981 33.0492L42.8648 33.1789L43.2107 34.5521C43.2107 34.7484 43.2498 35.0196 43.3279 35.3656C43.8089 37.482 44.1625 39.0314 44.3883 40.014C44.5444 40.6945 44.7007 41.2917 44.8569 41.8055C44.9929 42.2472 45.0105 42.5565 44.7813 42.9259C44.5764 43.2563 44.392 43.597 44.2284 43.948C44.1217 44.0094 44.0377 44.0282 43.9764 44.0044C43.9333 43.9878 43.8971 43.956 43.8736 43.9138C43.8499 43.8717 43.8399 43.8217 43.8456 43.7712C43.8741 43.5152 43.9197 43.2531 43.9828 42.9848C43.9847 42.977 43.9845 42.9688 43.9821 42.9611C43.9797 42.9533 43.9754 42.9464 43.9693 42.9409C43.9634 42.9354 43.9559 42.9317 43.9479 42.9298C43.9398 42.9281 43.9314 42.9284 43.9236 42.9307C43.3933 43.0964 42.9336 43.2314 42.4147 43.5014C42.2259 43.5995 42.0284 43.692 41.8227 43.7786C41.8304 41.8743 41.7686 39.7611 41.7976 38.0727C41.8353 35.9604 41.8375 34.4924 41.8039 33.6686C41.7568 32.4791 41.7724 31.2071 41.8505 29.8523C41.8597 29.6936 41.8774 29.5365 41.9034 29.3811C41.9201 29.4899 41.9424 29.5983 41.9701 29.7062C42.2405 30.7509 42.495 31.8017 42.7334 32.8586C42.7981 33.0492 42.7981 33.0492 42.7981 33.0492Z" fill="#DEB254"/>
<path d="M58.7173 30.3652C59.0803 30.7604 59.4641 31.1324 59.812 31.5336C59.8906 31.6249 59.9944 31.7214 60.1231 31.823C60.2092 31.8919 60.3377 32.0709 60.508 32.36C60.5133 32.37 60.5203 32.3794 60.5287 32.3879L61.2363 33.1214C61.2507 33.1358 61.269 33.146 61.2895 33.1505L61.3183 33.1563C61.3346 33.1569 61.3507 33.1513 61.3638 33.1405C61.3769 33.1297 61.3862 33.1143 61.39 33.0969L61.4027 33.0411L67.1747 38.9789C67.2071 39.0119 67.2459 39.0379 67.2888 39.0549C67.3314 39.0722 67.3773 39.0803 67.4232 39.0789C68.3997 39.0471 69.2848 39.3326 70.0786 39.9356C69.5407 39.8767 69.0155 39.859 68.503 39.8821C67.4036 39.9332 66.9238 40.6691 66.6117 41.6212C66.13 43.0936 65.7135 44.3459 65.3621 45.3781C65.2789 45.6214 65.1224 45.9873 64.8927 46.4754C63.8231 45.5432 63.3143 44.3696 63.3668 42.9545C63.4123 42.0439 63.7101 41.2523 64.2604 40.5796C64.6912 40.0721 65.1886 39.6756 65.7527 39.3904C65.7682 39.3828 65.7814 39.3716 65.7917 39.3578C65.802 39.344 65.809 39.3281 65.812 39.3111C65.8151 39.2942 65.814 39.2768 65.8091 39.2602C65.8043 39.2438 65.7957 39.2286 65.7841 39.216C63.22 36.4402 60.5634 33.6851 57.8145 30.9511L58.3265 31.3068C58.3304 31.3096 58.3349 31.3114 58.3396 31.3117C58.3443 31.312 58.3489 31.311 58.3532 31.3089C58.3574 31.3068 58.3609 31.3035 58.3634 31.2995C58.3658 31.2954 58.367 31.2907 58.367 31.2858C58.3701 30.9301 58.4869 30.6233 58.7173 30.3652Z" fill="#DEB254"/>
<path d="M51.9835 30.4011C51.4053 31.1899 50.7862 31.9424 50.1257 32.6585C49.4297 33.4133 48.6795 34.1046 47.875 34.7323C49.2044 33.2428 50.5738 31.799 51.9835 30.4011Z" fill="#DEB254"/>
<path d="M26.2222 30.9559C26.8056 31.2627 27.3378 31.4457 27.8187 31.5045C28.1246 31.5418 28.6248 31.5531 29.3192 31.5383C28.557 31.7057 27.8703 31.6971 27.2591 31.5126C27.085 31.46 26.9127 31.3992 26.7424 31.3302C26.6638 31.2976 26.5551 31.2542 26.4164 31.2L26.4119 31.1972L26.4106 31.1919L26.4135 31.1873L26.4187 31.1861C26.4287 31.1861 26.4388 31.184 26.4488 31.1803L26.453 31.1765L26.4543 31.171L26.4522 31.1659L26.4476 31.1627C26.275 31.1264 26.1159 31.0562 25.9702 30.9524C25.9286 30.9228 25.878 30.9089 25.8273 30.9131C25.7765 30.9173 25.7288 30.9396 25.6927 30.9756L24.8789 31.7941C25.1695 31.3553 25.4199 31.0679 25.6303 30.9314C25.8053 30.8183 26.0025 30.8265 26.2222 30.9559Z" fill="#DEB254"/>
<path d="M56.2997 31.5176C55.4858 31.6865 54.6807 31.6564 53.8848 31.427L56.2997 31.5176Z" fill="#DEB254"/>
<path d="M23.4891 31.6799C23.2101 32.0062 22.9538 32.3337 22.7203 32.6623C22.52 32.9459 22.5041 33.2279 22.6729 33.5084C22.6817 33.523 22.6948 33.5344 22.7103 33.541C22.7259 33.5477 22.7431 33.5493 22.7596 33.5457C23.0332 33.4844 23.2953 33.3647 23.5457 33.1864L17.746 39.2056C17.7364 39.2157 17.7293 39.228 17.7251 39.2413C17.721 39.2546 17.7199 39.2687 17.722 39.2823C17.7242 39.2961 17.7294 39.3091 17.7374 39.3204C17.7453 39.3317 17.7558 39.3409 17.7679 39.3474C19.1459 40.1029 20.0268 41.1887 20.1829 42.8428C20.2522 43.5775 20.1505 44.2242 19.8777 44.783L19.4026 45.592C19.1459 45.6885 19.0893 45.9303 18.9517 46.0511C18.7668 46.2139 18.6246 46.4231 18.4188 46.5394C18.26 46.6285 18.1857 46.7243 18.1957 46.8264C18.1972 46.8467 18.2067 46.8659 18.2223 46.88L19.4789 48.0192L21.4614 50.0721C21.8714 50.6122 22.3138 51.1224 22.7885 51.603C23.6224 52.4484 24.0405 52.8724 24.0405 52.8724C24.4528 53.3017 24.8775 53.7182 25.3144 54.122C25.3545 54.1592 25.393 54.1882 25.43 54.2092C25.5102 54.2549 25.5268 54.246 25.4798 54.1824C26.3945 53.4788 27.4246 53.1916 28.5698 53.321C29.1886 53.3907 29.7704 53.6046 30.3154 53.9627C29.0731 54.0192 27.8469 54.2463 26.6369 54.6438C25.7884 54.9229 25.232 55.4809 24.9676 56.3178C24.6817 57.2237 24.5607 58.0852 24.6046 58.9019C24.6428 59.5993 25.0636 60.2689 25.5341 60.9384C23.6382 59.5633 23.3908 57.0118 24.4994 55.0892C24.5188 55.0553 24.5267 55.016 24.5219 54.9774C24.5171 54.9389 24.4999 54.903 24.4729 54.8753L23.6567 54.0279L22.1966 52.5015L17.1923 47.3205C17.1961 47.3097 17.163 47.2852 17.0928 47.2473C17.0591 47.2292 17.0206 47.2223 16.983 47.2276C16.3033 47.3229 15.7692 47.3136 15.0421 47.16C14.7893 47.1066 14.5307 47.0695 14.2664 47.0485C13.2822 46.5301 12.6098 45.7988 12.2491 44.8551C11.8746 43.8732 11.8441 42.873 12.1578 41.8548C12.4776 40.8194 13.1643 40.0282 14.2178 39.481C14.8174 39.1695 15.449 39.0227 16.1125 39.0406C16.2111 39.0427 16.3066 39.0061 16.3784 38.9382C16.4408 38.8801 16.5734 38.7452 16.7761 38.5336C18.5101 36.7296 20.2125 34.9796 21.8834 33.284C22.288 32.8738 22.9088 32.1821 23.4891 31.6799Z" fill="#DEB254"/>
<path d="M39.7416 33.7014C39.4695 33.8672 39.1794 33.9698 38.8711 34.0093C38.8619 34.0109 38.853 34.0137 38.8445 34.0175L37.4319 34.6999C37.4196 34.706 37.4087 34.7138 37.3995 34.7231C37.1844 34.9401 36.9348 35.0935 36.6504 35.1834C37.1598 34.7727 37.7089 34.4415 38.2977 34.1895C38.7201 33.9772 39.2013 33.8146 39.7416 33.7014Z" fill="#DEB254"/>
<path d="M39.5371 39.5806L40.5603 35.0598C40.5949 35.0444 40.6181 35.0498 40.6296 35.0761C40.632 35.0822 40.6328 35.0889 40.632 35.0958C40.4539 35.9926 40.2594 36.8864 40.0481 37.7777C40.0397 37.8148 39.9931 38.0342 39.9083 38.4357C39.8243 38.8332 39.7006 39.2147 39.5371 39.5806Z" fill="#DEB254"/>
<path d="M50.3256 40.9223C50.6485 43.024 50.279 44.9727 49.217 46.7683C48.8644 47.3645 48.4586 47.8238 48.0206 48.3224C48.004 48.3413 47.9952 48.3655 47.9953 48.3906C47.9956 48.4156 48.005 48.4398 48.0216 48.4584C49.5684 50.1485 51.2073 51.8675 52.9382 53.6149C53.0931 53.7715 53.201 53.8727 53.2619 53.9183C53.2756 53.9288 53.2923 53.9348 53.3094 53.9351C53.3267 53.9355 53.3436 53.9305 53.3579 53.9207C53.7046 53.6812 54.0002 53.5266 54.2446 53.4568C55.6117 53.0679 56.8648 53.2755 58.0038 54.08C58.0301 54.0982 58.0619 54.1067 58.0939 54.104C58.1257 54.1012 58.1556 54.0874 58.1785 54.0648L58.4085 53.8324C58.7167 53.6378 58.9935 53.396 59.2384 53.1069C59.2447 53.1 59.2512 53.0935 59.2581 53.0872L60.0037 52.477C60.0344 52.4516 60.0606 52.4214 60.0812 52.3874C60.2284 52.1464 60.4173 51.9488 60.6476 51.7946C60.6792 51.7738 60.7079 51.7495 60.7332 51.7225L62.0834 50.2602C62.0918 50.2508 62.1012 50.2424 62.1112 50.2345C62.4727 49.9486 62.7181 49.6751 62.8476 49.4139C62.8652 49.3771 62.8894 49.3436 62.9193 49.3151L64.1064 48.1911C64.4633 47.9136 64.8513 47.8031 65.2706 47.8598C65.2776 47.8608 65.2843 47.8634 65.2901 47.8677C65.2959 47.8717 65.3005 47.8774 65.3038 47.8838C65.3069 47.8902 65.3086 47.8973 65.3085 47.9043C65.3083 47.9115 65.3065 47.9186 65.303 47.9249C65.061 48.3542 64.7798 48.7607 64.4591 49.1443C64.4591 49.1443 64.2468 49.3569 63.8267 49.7754C63.6095 49.9924 63.4245 50.2338 63.2718 50.4997C63.2835 50.5268 63.2414 50.5799 63.1459 50.6589C63.0595 50.617 63.0129 50.6286 63.0059 50.6938C62.917 50.7368 62.8348 50.7601 62.777 50.8333C62.5274 51.1526 62.2349 51.4334 61.8997 51.676C61.8598 51.7054 61.8237 51.7398 61.7922 51.7783C61.4327 52.2258 61.028 52.5513 60.6535 52.9488C60.0647 53.572 59.6604 53.9919 59.4409 54.209C59.0639 54.581 58.842 54.8809 58.2905 54.9437C57.6663 55.0156 57.2999 55.1285 56.9473 55.5481C56.7569 55.7744 56.5909 56.0045 56.4491 56.2386C56.0313 56.9283 55.6025 57.7161 55.1624 58.6018C54.9427 59.0458 54.7501 59.6643 54.5844 60.4571C54.3982 61.3463 54.0029 61.2394 53.2642 61.1905C53.3001 61.1963 53.3359 61.2021 53.3718 61.2081L48.2043 66.5378C47.3781 67.2826 46.5659 68.0327 45.7674 68.7882C45.5231 69.02 45.2646 69.1986 44.9917 69.3241C44.5652 69.5206 43.8947 69.6438 43.4323 69.9287C43.0245 70.1797 42.6662 70.5506 42.3572 71.0411C41.8332 71.8726 41.4193 72.622 41.1156 73.2893C40.6059 74.4088 40.4034 75.3991 41.6624 75.9779C42.0292 76.147 42.6207 76.3043 43.4368 76.4499C39.4914 78.0262 35.9702 73.5532 38.4602 70.1018C38.4888 70.0626 38.5026 70.0145 38.4994 69.9661C38.4962 69.9177 38.4763 69.8719 38.4429 69.8368L30.6387 61.6196C30.9862 61.849 31.3002 62.1158 31.5808 62.4204C32.1957 63.0877 32.8393 63.7332 33.5112 64.357C33.5405 64.3842 33.5638 64.3936 33.5807 64.3849C33.6038 64.3726 33.615 64.3531 33.6142 64.3268C33.6139 64.3205 33.6119 64.3143 33.6088 64.3091C33.6055 64.3038 33.601 64.2995 33.5957 64.2966L33.5112 64.2513C33.5075 64.2491 33.5044 64.2458 33.502 64.242C33.4905 64.2218 33.4952 64.2018 33.5159 64.1815C33.5187 64.1787 33.5207 64.1753 33.5218 64.1715C33.5228 64.1679 33.5228 64.1642 33.5217 64.1606L33.0512 62.6204C34.1626 63.7882 35.2738 64.9495 36.3852 66.1042C36.5817 66.3089 36.7575 66.568 36.9354 66.754C37.6329 67.4833 38.3524 68.1931 39.0937 68.8837L39.3896 69.0918C39.4064 69.1035 39.4264 69.1099 39.447 69.1104C39.4675 69.1107 39.4878 69.1051 39.5052 69.094C40.995 68.1478 42.514 68.1242 44.0623 69.0231C44.0894 69.0386 44.1209 69.0448 44.1516 69.0404C44.1825 69.0358 44.2108 69.0212 44.2322 68.9987L52.4157 60.4315C51.8054 59.6736 51.4582 58.8564 51.3742 57.98C51.2615 56.7951 51.5652 55.7441 52.285 54.8274C52.3018 54.8061 52.3102 54.7793 52.309 54.7522C52.3078 54.7251 52.2967 54.6994 52.2781 54.6798L47.1917 49.3105C47.1714 49.2897 47.1445 49.2768 47.1157 49.2745C47.087 49.2721 47.0585 49.2804 47.0356 49.2977C45.7708 50.2463 44.2989 50.8515 42.6197 51.1135C42.5263 51.1335 42.4936 50.9906 42.5213 50.6844C42.5243 50.6476 42.5403 50.6131 42.5664 50.5868C42.8377 50.3102 42.9567 49.9959 42.9237 49.6441C43.6511 49.4697 44.1798 49.3108 44.5097 49.1674C48.1499 47.5797 49.9823 43.5134 48.5892 39.7344C48.98 40.1562 48.9442 40.6818 49.3916 41.1025C49.666 41.359 49.9391 41.3869 50.2112 41.1862C50.2259 41.1755 50.2369 41.1608 50.2432 41.1437C50.2494 41.1268 50.2503 41.1083 50.2458 41.0909C50.2089 40.942 50.2354 40.8859 50.3256 40.9223Z" fill="#DEB254"/>
<path d="M70.0801 39.9357C70.8932 40.5734 71.3911 41.3682 71.5737 42.3198C71.8234 43.616 71.5517 45.0596 70.6305 46.043C69.5414 47.2056 68.1796 47.6186 66.5451 47.2823C66.5029 47.2737 66.4592 47.2759 66.4179 47.2888C66.3768 47.3015 66.3394 47.3245 66.3092 47.3555L63.2734 50.4999C63.4262 50.234 63.6111 49.9927 63.8283 49.7757C64.2485 49.3572 64.4607 49.1445 64.4607 49.1445C64.7814 48.7609 65.0627 48.3545 65.3047 47.9251C65.3081 47.9188 65.31 47.9118 65.3101 47.9046C65.3103 47.8975 65.3086 47.8903 65.3055 47.8841C65.3023 47.8776 65.2977 47.872 65.2917 47.8679C65.286 47.8637 65.2793 47.861 65.2723 47.8599C64.8529 47.8034 64.4649 47.9138 64.1082 48.1913C64.3201 47.9759 64.4758 47.7402 64.5752 47.4845L65.1925 46.8196C65.1989 46.8126 65.2039 46.8044 65.207 46.7955C65.2101 46.7866 65.2113 46.777 65.2107 46.7676C65.2101 46.758 65.2074 46.7488 65.2031 46.7403C65.1989 46.732 65.1928 46.7245 65.1856 46.7186L64.8942 46.4755C65.1239 45.9873 65.2804 45.6215 65.3636 45.3782C65.715 44.346 66.1315 43.0936 66.6132 41.6212C66.9253 40.6692 67.4051 39.9333 68.5045 39.8822C69.017 39.8589 69.5422 39.8768 70.0801 39.9357Z" fill="#DEB254"/>
<path d="M44.3454 43.6692L43.1462 49.6755C43.1828 50.0425 42.3799 52.7502 42.0797 53.0387C42.0507 53.0661 42.7041 50.7224 42.7008 50.7608C42.6701 51.0801 42.7063 51.2293 42.8096 51.2083L41.9815 54.7128C41.8202 53.9311 41.7544 53.4201 41.7844 53.18C41.8713 52.4896 41.9145 52.0454 41.9135 51.8473C41.9068 50.2984 41.9187 48.7495 41.9494 47.2005C41.9724 46.0352 41.9162 44.7327 41.9008 43.5019C42.1099 43.4162 42.3104 43.3248 42.5024 43.2278C43.0298 42.961 43.4968 42.8276 44.0356 42.6639C44.0437 42.6615 44.0522 42.6612 44.0604 42.6631C44.0685 42.6648 44.076 42.6686 44.0822 42.6741C44.0883 42.6794 44.0928 42.6863 44.0952 42.694C44.0975 42.7015 44.0978 42.7096 44.0958 42.7173C44.0319 42.9824 43.9853 43.2416 43.9563 43.4947C43.9507 43.5443 43.9608 43.5939 43.9848 43.6355C44.0088 43.6771 44.0456 43.7086 44.0894 43.725C44.1517 43.7485 44.2371 43.7299 44.3454 43.6692Z" fill="#DEB254"/>
<path d="M40.7565 33.233L40.6898 33.3605L40.3439 34.7106C40.3439 34.9037 40.3048 35.1704 40.2267 35.5105C39.7457 37.5913 39.3921 39.1147 39.1663 40.0806C39.0102 40.7498 38.8539 41.337 38.6977 41.8421C38.5617 42.2765 38.5441 42.5805 38.7733 42.9436C38.9782 43.2685 39.1626 43.6036 39.3262 43.9486C39.4329 44.0089 39.5168 44.0274 39.5781 44.0041C39.6213 43.9878 39.6575 43.9564 39.681 43.9151C39.7047 43.8735 39.7145 43.8243 39.709 43.7748C39.6805 43.5232 39.6347 43.2654 39.5718 43.0015C39.5699 42.9939 39.57 42.9859 39.5725 42.9782C39.5749 42.9707 39.5792 42.9639 39.5853 42.9584C39.5912 42.9531 39.5987 42.9494 39.6067 42.9475C39.6148 42.9457 39.6232 42.9461 39.631 42.9484C40.1613 43.1114 40.621 43.2441 41.1399 43.5094C41.3287 43.6059 41.526 43.6968 41.7319 43.7822C41.7242 41.9097 41.7859 39.832 41.757 38.172C41.7193 36.0952 41.7171 34.6518 41.7507 33.8419C41.7978 32.6725 41.7822 31.4217 41.7041 30.0898C41.6949 29.9337 41.6772 29.7794 41.6512 29.6265C41.6345 29.7335 41.6122 29.84 41.5845 29.9463C41.3141 30.9734 41.0596 32.0065 40.8212 33.0457C40.7565 33.233 40.7565 33.233 40.7565 33.233Z" fill="#DEB254"/>
<path d="M39.3301 43.8734L40.6436 49.6345C40.6034 49.9866 41.4827 52.5836 41.8117 52.8605C41.8433 52.8869 41.1277 50.6387 41.1313 50.6756C41.165 50.9819 41.1252 51.125 41.0123 51.1048L41.9192 54.4663C42.0957 53.7164 42.1677 53.2264 42.135 52.9961C42.0398 52.3339 41.9926 51.9077 41.9935 51.7177C42.001 50.232 41.9879 48.7463 41.9543 47.2605C41.929 46.1427 41.9907 44.8935 42.0075 43.713C41.7785 43.6307 41.5589 43.5431 41.3487 43.45C40.771 43.1941 40.2594 43.0663 39.6693 42.9093C39.6606 42.9069 39.6512 42.9066 39.6422 42.9083C39.6333 42.91 39.6251 42.9136 39.6184 42.9188C39.6117 42.924 39.6068 42.9306 39.6042 42.9379C39.6015 42.9451 39.6012 42.953 39.6034 42.9603C39.6735 43.2147 39.7245 43.4632 39.7563 43.7059C39.7624 43.7537 39.7513 43.8012 39.725 43.8411C39.6986 43.8809 39.6584 43.9112 39.6104 43.927C39.5422 43.9494 39.4488 43.9315 39.3301 43.8734Z" fill="#DEB254"/>
<path d="M19.8776 44.7832C19.7674 45.1405 19.597 45.4507 19.3666 45.7143C19.3242 45.7072 19.3362 45.6667 19.4024 45.5922L19.8776 44.7832Z" fill="#DEB254"/>
<path d="M19.3972 45.5918C19.3309 45.6662 19.319 45.7068 19.3614 45.7139L18.2932 46.7438C18.2872 46.7495 18.2825 46.7564 18.2792 46.764C18.2758 46.7717 18.2741 46.7799 18.274 46.7883C18.2739 46.7966 18.2754 46.8049 18.2785 46.8126C18.2816 46.8203 18.2862 46.8273 18.2921 46.8333L19.4735 48.019L18.2169 46.8798C18.2014 46.8656 18.1918 46.8465 18.1903 46.8262C18.1803 46.7239 18.2547 46.6283 18.4135 46.5392C18.6192 46.4229 18.7614 46.2137 18.9464 46.0509C19.0839 45.9301 19.1406 45.6883 19.3972 45.5918Z" fill="#DEB254"/>
<path d="M17.1935 47.3206C16.1785 47.5135 15.2032 47.4229 14.2676 47.0486C14.5319 47.0694 14.7905 47.1067 15.0433 47.1602C15.7704 47.3136 16.3045 47.323 16.9842 47.2275C17.0218 47.2224 17.0603 47.2293 17.0941 47.2473C17.1642 47.2854 17.1973 47.3096 17.1935 47.3206Z" fill="#DEB254"/>
<path d="M64.5772 47.4846C64.4778 47.7403 64.3221 47.9759 64.1102 48.1913L62.9229 49.3155C62.8932 49.3438 62.8688 49.3773 62.8512 49.4142C62.7219 49.6754 62.4763 49.949 62.1149 50.2349C62.105 50.2426 62.0956 50.2512 62.0872 50.2605L60.7369 51.7228C60.7115 51.7499 60.6829 51.774 60.6514 51.7948C60.4209 51.949 60.2322 52.1466 60.0849 52.3878C60.0642 52.4216 60.038 52.4519 60.0075 52.4773L59.2618 53.0874C59.255 53.0937 59.2483 53.1003 59.2422 53.1073C58.9971 53.3963 58.7205 53.6381 58.4121 53.8327L64.5772 47.4846Z" fill="#DEB254"/>
<path d="M25.4773 54.1825C25.5243 54.2459 25.5078 54.2549 25.4276 54.2093C25.3906 54.1883 25.3521 54.1593 25.312 54.122C24.875 53.7182 24.4504 53.3017 24.0381 52.8723C24.0381 52.8723 23.62 52.4485 22.7861 51.6029C22.3114 51.1225 21.869 50.6122 21.459 50.072L25.4773 54.1825Z" fill="#DEB254"/>
<path d="M63.1473 50.6584L59.0098 54.8559C58.9939 54.8722 58.9836 54.8931 58.9804 54.9156C58.9769 54.9382 58.9808 54.9612 58.9913 54.9814C59.2191 55.4279 59.486 55.9451 59.589 56.4042C59.7455 57.1103 59.767 57.7418 59.6537 58.299C59.3871 59.6079 58.6584 60.5952 57.4677 61.261C57.1734 61.4252 56.6982 61.5733 56.0424 61.7049C55.1699 61.7507 54.3214 61.5894 53.4967 61.2214C53.4744 61.2113 53.4331 61.2066 53.3731 61.2074C53.3373 61.2016 53.3015 61.1958 53.2656 61.19C54.0043 61.2389 54.3996 61.3458 54.5858 60.4565C54.7515 59.6638 54.9441 59.0453 55.1638 58.6013C55.6039 57.7155 56.0327 56.9277 56.4505 56.238C56.5923 56.004 56.7582 55.7738 56.9487 55.5476C57.3013 55.1279 57.6677 55.0151 58.2919 54.943C58.8434 54.8804 59.0653 54.5804 59.4421 54.2085C59.6618 53.9914 60.066 53.5713 60.6548 52.9483C61.0294 52.5508 61.4341 52.2253 61.7936 51.7778C61.8251 51.7392 61.861 51.7048 61.9011 51.6755C62.2363 51.4329 62.5288 51.1519 62.7784 50.8328C62.8362 50.7594 62.9184 50.7362 63.0073 50.6931C63.0143 50.6281 63.0609 50.6165 63.1473 50.6584Z" fill="#DEB254"/>
<path d="M31.9427 59.0015C31.7523 59.485 31.4838 59.9263 31.1369 60.3254C31.1129 60.353 31.1002 60.3885 31.1009 60.4249C31.1019 60.4612 31.1164 60.4959 31.1416 60.5219C33.4259 62.8933 35.7182 65.2817 38.0187 67.6871C38.5636 68.2575 38.9219 68.6563 39.0938 68.8833C38.3525 68.1928 37.633 67.4829 36.9355 66.7537C36.7576 66.5677 36.5818 66.3085 36.3853 66.104C35.2739 64.9493 34.1627 63.7879 33.0513 62.62L31.0838 60.6219C31.0444 60.5819 31.0199 60.5296 31.0148 60.4736C31.0095 60.4177 31.0236 60.3616 31.0548 60.315L31.9427 59.0015Z" fill="#DEB254"/>
<path d="M48.2057 66.5378L45.0937 69.8264C45.0778 69.8433 45.0681 69.8654 45.0664 69.8886C45.0647 69.912 45.0711 69.9352 45.0845 69.9543C45.7349 70.8843 46.0201 71.9127 45.94 73.0395C45.7326 74.6404 44.8987 75.7774 43.4383 76.4499C42.6222 76.3044 42.0307 76.147 41.6638 75.978C40.4049 75.3991 40.6072 74.4088 41.117 73.2894C41.4208 72.622 41.8345 71.8727 42.3585 71.0411C42.6677 70.5507 43.026 70.1798 43.4338 69.9287C43.8961 69.6439 44.5666 69.5207 44.9932 69.3242C45.266 69.1987 45.5245 69.0201 45.7689 68.7883C46.5673 68.0327 47.3795 67.2826 48.2057 66.5378Z" fill="#DEB254"/>
<path d="M40.9347 50.4089L40.4336 50.5525L40.6044 51.1552L41.1054 51.0116L40.9347 50.4089Z" fill="#DEB254"/>
<path d="M40.8136 50.2849L40.3125 50.4285L40.4833 51.0311L40.9844 50.8876L40.8136 50.2849Z" fill="#DEB254"/>
<path d="M40.5655 50.1633L40.0645 50.3069L40.2352 50.9096L40.7363 50.766L40.5655 50.1633Z" fill="#DEB254"/>
<path d="M40.3214 50.2849L39.8203 50.4285L39.9911 51.0311L40.4922 50.8876L40.3214 50.2849Z" fill="#DEB254"/>
<path d="M40.0772 50.1628L39.5762 50.3064L39.747 50.9091L40.248 50.7655L40.0772 50.1628Z" fill="#DEB254"/>
<path d="M39.207 43.6492L40.4635 49.5328C40.425 49.8924 41.2662 52.5448 41.5808 52.8275C41.611 52.8543 40.9266 50.5584 40.93 50.596C40.9623 50.9089 40.9243 51.055 40.8161 51.0344L41.6836 54.4675C41.8526 53.7016 41.9214 53.2011 41.8901 52.9659C41.7989 52.2896 41.7538 51.8544 41.7547 51.6604C41.7619 50.143 41.7494 48.6257 41.7171 47.1084C41.693 45.9667 41.752 44.6909 41.7681 43.4853C41.5492 43.4013 41.3391 43.3119 41.1379 43.2167C40.5855 42.9555 40.096 42.8248 39.5316 42.6644C39.5232 42.662 39.5143 42.6617 39.5058 42.6634C39.4972 42.6653 39.4892 42.6689 39.4829 42.6743C39.4765 42.6796 39.4718 42.6863 39.4693 42.6937C39.4668 42.7012 39.4665 42.7092 39.4685 42.7167C39.5357 42.9764 39.5843 43.2302 39.6147 43.4781C39.6206 43.5268 39.61 43.5754 39.5849 43.6162C39.5597 43.6569 39.5212 43.6878 39.4752 43.7039C39.4101 43.7268 39.3206 43.7086 39.207 43.6492Z" fill="#DEB254"/>
<path d="M40.7975 32.6808L40.7259 32.8149L40.3533 34.2343C40.3533 34.4372 40.3112 34.7175 40.2271 35.0751C39.7089 37.2626 39.3282 38.8642 39.085 39.8797C38.9168 40.5831 38.7487 41.2004 38.5804 41.7314C38.4339 42.188 38.4149 42.5077 38.6619 42.8894C38.8824 43.2311 39.0809 43.5832 39.2573 43.946C39.3722 44.0094 39.4626 44.0289 39.5286 44.0043C39.5751 43.987 39.6139 43.9541 39.6394 43.9107C39.6648 43.8672 39.6754 43.8154 39.6696 43.7633C39.6388 43.4986 39.5896 43.2277 39.5218 42.9503C39.5197 42.9422 39.5199 42.9339 39.5225 42.9259C39.525 42.9179 39.5297 42.9107 39.5363 42.905C39.5426 42.8994 39.5508 42.8955 39.5593 42.8936C39.568 42.8917 39.5771 42.892 39.5855 42.8945C40.1565 43.0658 40.6515 43.2053 41.2105 43.4843C41.4139 43.5857 41.6264 43.6813 41.8478 43.7709C41.8397 41.8025 41.9063 39.6184 41.8751 37.8731C41.8343 35.6898 41.8321 34.1726 41.8683 33.3211C41.9189 32.0916 41.9022 30.7768 41.8181 29.3764C41.8081 29.2124 41.7891 29.05 41.761 28.8894C41.743 29.0019 41.7191 29.1139 41.6892 29.2255C41.3981 30.3053 41.124 31.3915 40.8672 32.4838C40.7975 32.6808 40.7975 32.6808 40.7975 32.6808Z" fill="#DEB254"/>
<path d="M39.207 43.68L40.4063 49.7475C40.3697 50.1184 41.1725 52.8535 41.4728 53.1451C41.5018 53.1728 40.8484 50.8052 40.8517 50.8439C40.8824 51.1665 40.8462 51.3172 40.7429 51.2959L41.571 54.8363C41.7323 54.0466 41.798 53.5304 41.7681 53.2878C41.6811 52.5904 41.638 52.1416 41.6389 51.9415C41.6456 50.3767 41.6338 48.812 41.6031 47.2472C41.58 46.07 41.6363 44.7544 41.6517 43.511C41.4426 43.4243 41.242 43.332 41.05 43.2341C40.5227 42.9646 40.0555 42.8298 39.5168 42.6645C39.5087 42.662 39.5003 42.6617 39.492 42.6636C39.4839 42.6653 39.4765 42.6692 39.4702 42.6747C39.4641 42.68 39.4596 42.6871 39.4573 42.6947C39.4548 42.7024 39.4546 42.7106 39.4567 42.7184C39.5206 42.9862 39.5672 43.2479 39.5961 43.5036C39.6016 43.5539 39.5916 43.6039 39.5676 43.6459C39.5436 43.6879 39.5068 43.7197 39.4631 43.7363C39.4007 43.76 39.3153 43.7412 39.207 43.68Z" fill="#DEB254"/>
<path d="M41.7561 55.5731L42.1647 53.9131H41.3477L41.7561 55.5731Z" fill="#DEB254"/>
<path d="M41.7561 55.5731L42.1647 53.9131H41.3477L41.7561 55.5731Z" fill="#DEB254"/>
<path d="M41.7852 28.9033L42.175 30.5232L41.8835 30.5671L41.7852 28.9033Z" fill="#DEB254"/>
<path d="M41.8359 55.4315L41.8707 41.8818L43.4376 41.9779L41.8359 55.4315Z" fill="#DEB254"/>
<path d="M41.7805 54.2205H41.6582V54.9583H41.7805V54.2205Z" fill="#DEB254"/>
<path d="M41.6527 53.4829L41.7586 54.1285H41.5469L41.6527 53.4829Z" fill="#DEB254"/>
<path d="M41.7805 53.6055H41.6582V54.3433H41.7805V53.6055Z" fill="#DEB254"/>
<path d="M42.374 53.047L42.1152 52.9905L41.8414 54.2583L42.1002 54.3148L42.374 53.047Z" fill="#DEB254"/>
<path d="M41.8672 55.1211L41.9066 54.2576L42.095 54.2877L41.8672 55.1211Z" fill="#DEB254"/>
<path d="M41.8329 24.1958L45.8103 43.1608H37.8555L41.8329 24.1958Z" fill="#DEB254"/>
<path d="M41.8329 62.0507L45.8103 43.0857H37.8555L41.8329 62.0507Z" fill="white"/>
<path d="M168.64 29.9083L168.605 33.2158C168.605 33.2386 168.599 33.2611 168.589 33.2816C168.579 33.3021 168.564 33.32 168.546 33.334C168.273 33.5386 168.092 33.8264 168.004 34.1976C167.705 35.4388 167.51 36.69 167.419 37.9511C167.044 43.0874 166.784 46.4864 166.2 50.8041C166.029 52.0641 165.835 53.26 165.618 54.3915C165.566 54.6688 165.485 54.9301 165.376 55.1757C165.333 55.2714 165.307 55.3208 165.307 55.3208C165.268 55.3366 165.226 55.3421 165.183 55.3368C165.141 55.3313 165.101 55.3153 165.066 55.2901C165.03 55.2648 165.001 55.231 164.98 55.1915C164.96 55.1522 164.948 55.1081 164.947 55.0635L164.91 53.8915L164.896 21.0184C164.896 20.994 164.906 20.9706 164.923 20.9533C164.941 20.9359 164.964 20.926 164.989 20.9256L168.5 20.9121C168.532 20.9121 168.562 20.9247 168.585 20.9472C168.608 20.9696 168.62 21.0001 168.62 21.0318L168.64 29.9083Z" fill="white"/>
<path d="M121.804 23.057C121.944 23.954 121.79 24.7128 121.339 25.3334C120.962 25.8432 120.477 26.1785 119.884 26.3391C119.666 26.4189 119.44 26.4608 119.203 26.4648C118.634 26.4918 118.107 26.3705 117.621 26.1011C117.328 25.7569 116.993 25.4366 116.789 25.0625C116.403 24.3531 116.275 23.5549 116.404 22.6679C116.975 21.1189 118.218 20.7986 119.763 20.9273C119.813 20.9313 119.863 20.9414 119.909 20.9573C120.943 21.3065 121.574 22.0064 121.804 23.057Z" fill="white"/>
<path d="M205.673 36.2957L205.677 40.0028L205.737 61.8953C205.737 61.939 205.72 61.981 205.69 62.0117C205.66 62.0427 205.618 62.06 205.575 62.06H202.371C202.334 62.06 202.296 62.0522 202.26 62.0372C202.226 62.0222 202.194 62.0002 202.165 61.9724C202.139 61.9447 202.118 61.9118 202.103 61.8757C202.09 61.8397 202.082 61.8009 202.084 61.7622C202.126 59.5072 202.143 57.8435 202.133 56.7709C202.133 56.713 202.122 56.6731 202.099 56.6513C202.086 56.6378 202.071 56.6275 202.052 56.6213C202.035 56.615 202.016 56.6129 201.997 56.6152C201.977 56.6173 201.96 56.6236 201.943 56.6338C201.926 56.6439 201.912 56.6576 201.901 56.6737C201.574 57.1525 201.24 57.6 200.896 58.0162C199.196 60.0704 197.022 61.4009 194.376 62.0076C193.594 62.1872 192.866 62.279 192.196 62.283C190.876 62.2904 189.954 62.3339 188.849 62.1513C187.2 61.8759 185.515 61.4134 184.062 60.5513C182.319 59.5177 180.872 58.2631 179.724 56.7875C178.428 55.1251 177.553 53.152 177.098 50.8682C176.38 47.2824 176.715 43.8466 178.095 40.561C178.909 38.6274 180.237 36.8689 181.724 35.5219C182.223 35.069 182.855 34.6215 183.622 34.1795C184.95 33.4152 186.474 32.853 188.195 32.4928C189.436 32.2324 190.677 32.2653 191.846 32.2743C192.398 32.2793 192.997 32.3367 193.645 32.4464C196.892 32.9992 199.538 34.6085 201.586 37.2745C201.661 37.3743 201.748 37.4346 201.846 37.4556C201.854 37.4569 201.859 37.4567 201.867 37.4551C201.873 37.4535 201.88 37.4504 201.884 37.4461C201.89 37.4418 201.893 37.4364 201.897 37.4303C201.901 37.4242 201.901 37.4175 201.901 37.4107V21.0407C201.901 21.0113 201.914 20.9831 201.935 20.9624C201.956 20.9416 201.982 20.9299 202.012 20.9299H205.503C205.543 20.9299 205.582 20.9457 205.611 20.9738C205.639 21.0018 205.654 21.0399 205.654 21.0796L205.673 36.2957ZM189.336 35.8961L187.236 36.4723L187.232 36.4749L187.23 36.4791L187.232 36.4823L187.236 36.4828C187.241 36.4838 187.247 36.4838 187.251 36.4828L187.256 36.4847L187.258 36.4894V36.4949L187.255 36.4992C185.492 37.1797 184.064 38.2343 182.972 39.6631C182.039 40.8824 181.384 42.2513 181.004 43.7698C180.598 45.3991 180.451 46.8514 180.564 48.1264C180.7 49.6579 180.978 51.0135 181.397 52.1928C181.688 53.0149 182.183 53.8679 182.88 54.7519C183.885 56.0287 185.101 57.1675 186.49 57.7288C187.385 58.092 188.076 58.3364 188.56 58.4622C191.336 59.1849 194.442 58.7839 196.963 57.3172C198.288 56.5464 199.391 55.2788 200.199 54.062C200.702 53.3057 201.104 52.4227 201.406 51.413C202.66 47.224 202.103 42.2224 199.056 38.9537C197.337 37.1089 195.19 36.0562 192.615 35.7958C191.897 35.6771 191.278 35.6257 190.758 35.6417C190.366 35.6537 189.891 35.7385 189.336 35.8961Z" fill="white"/>
<path d="M274.908 21.2562C276.319 21.3026 277.909 21.5257 279.672 21.9147C280.244 22.0409 280.815 22.2036 281.381 22.4025C281.748 22.5305 282.074 22.6273 282.439 22.7419C282.792 22.853 283.164 22.9761 283.544 23.1426C284.369 23.5022 285.112 23.8674 285.771 24.2388C286.068 24.4062 286.34 24.5961 286.581 24.8138L287.084 25.2683L286.829 25.8971C286.487 26.7485 286.147 27.5883 285.813 28.4178L285.814 28.4197C285.714 28.6717 285.543 28.9842 285.333 29.3267L284.813 30.1855L283.982 29.6254C281.198 27.7547 277.602 26.8262 274.247 26.8004C272.6 26.788 271.019 27.1327 269.372 27.624C268.227 27.9657 267.249 28.4937 266.421 29.2006L266.419 29.1987C265.979 29.5739 265.581 30.0976 265.229 30.7958L265.082 31.1056C264.785 31.765 264.648 32.5356 264.699 33.4408C264.761 34.5618 265.161 35.4977 265.906 36.2881L266.234 36.6034C267.029 37.2953 268.046 37.6977 269.46 38.0725H269.459C271.155 38.5198 272.105 38.7673 272.33 38.8218C275.909 39.6776 278.431 40.3225 279.866 40.751C280.594 40.9677 281.674 41.426 283.072 42.0938C283.986 42.5305 284.832 43.087 285.611 43.7596L286.064 44.1769C288.247 46.3268 289.179 49.3483 288.933 52.3699L288.538 52.3661C288.427 52.9477 288.304 53.5194 288.166 54.0799C287.817 55.4798 287.316 56.3844 286.655 57.5226L286.897 57.7545L286.343 58.4481C285.628 59.3429 284.779 60.0797 283.803 60.6518C282.431 61.4541 280.977 62.0522 279.441 62.4454C275.783 63.3822 272.099 63.4494 268.405 62.6477L268.316 62.6291L268.231 62.592C267.094 62.1058 266.172 61.6049 265.513 61.0784C264.561 60.3139 263.592 59.5422 262.611 58.7617C262.162 58.4035 261.771 58.0196 261.501 57.608L261.393 57.4299C261.17 57.0304 260.998 56.7301 260.874 56.5172L260.636 56.1295C260.62 56.1079 260.603 56.0885 260.588 56.0703C260.328 56.4823 260.088 56.9621 259.878 57.5171L259.523 58.4574L258.603 58.0624C258.458 58.0003 258.201 57.8682 258.019 57.5949C257.785 57.2441 257.791 56.8386 257.936 56.5172L258.252 55.7939C258.56 55.0629 258.849 54.3101 259.117 53.5346C259.172 53.3716 259.264 53.2237 259.389 53.1044C259.514 52.9847 259.667 52.897 259.833 52.8484L259.961 52.8187C260.046 52.8049 260.135 52.8022 260.222 52.8094L260.35 52.828L260.477 52.8632C260.6 52.9048 260.711 52.9684 260.811 53.0506L261.297 53.4383C263.752 55.3411 266.635 56.6978 269.657 57.2073C270.624 57.3698 271.181 57.4561 271.378 57.4762C273.178 57.6608 274.934 57.6211 276.651 57.3594H276.653C278.625 57.0591 280.567 56.2568 281.666 54.8423L281.88 54.5531C282.356 53.8655 282.669 53.1173 282.826 52.303C283.187 50.4502 282.467 48.7343 280.966 47.701L280.656 47.5044C280.138 47.2015 279.672 46.9663 279.256 46.7922L278.858 46.6383C277.762 46.2569 277.294 46.0755 276.406 45.8537C274.285 45.3234 271.995 44.7592 269.54 44.1621C268.682 43.9539 267.566 43.5848 266.89 43.3774C265.411 42.9229 264.03 42.2648 262.749 41.4038C260.16 39.6611 259.096 37.1774 258.684 34.3089C258.193 30.8661 259.797 27.3171 262.32 25.1384C263.433 24.1772 264.638 23.4315 265.934 22.9107C268.705 21.7983 271.791 21.154 274.908 21.2562Z" fill="#DEB254" stroke="#DEB254" stroke-width="0.831491"/>
<path d="M229.776 21.6754C232.796 21.1424 235.799 21.2683 238.774 22.0537C240.297 22.4557 241.855 23.0467 243.444 23.8196C244.698 24.4308 245.924 25.3572 246.874 26.0473C247.63 26.595 248.342 27.2618 249.01 28.0394H249.012C251.5 30.9295 253.313 34.4097 254.086 38.2078L254.265 39.2428C254.324 39.6308 254.381 40.0616 254.435 40.5338L254.517 41.4317C254.813 45.922 253.396 50.4448 250.939 54.0615C250.535 54.6548 250.04 55.3242 249.452 56.0702V56.0721C247.751 58.235 245.518 59.8702 243.06 61.0561L243.059 61.058C242.788 61.1868 242.243 61.4034 241.466 61.6942C236.957 63.3827 231.973 63.471 227.366 62.2433C224.324 61.4334 221.14 59.7969 218.818 57.645L218.365 57.2072C217.77 56.6076 217.285 56.0347 216.699 55.3413V55.3394C216.395 54.9802 216.164 54.6983 216.03 54.5122C214.502 52.3984 213.433 50.1254 212.836 47.6955L212.804 47.5693L212.808 47.4377C212.844 46.0884 212.768 44.7687 212.585 43.4794C212.496 42.8634 212.441 42.3781 212.441 42.09L212.443 42.0883C212.436 40.8271 212.621 39.5839 212.766 38.4007L212.855 37.7849C213.089 36.3651 213.509 35.0713 214.049 33.8285L214.081 33.7246C214.083 33.7 214.081 33.6832 214.079 33.6727L214.019 33.3443L214.17 33.0476C215.18 31.0853 216.368 29.3735 217.736 27.9207L218.193 27.4514C220.507 25.1469 223.32 23.4673 226.606 22.408C227.42 22.1457 228.484 21.9032 229.776 21.6754ZM239.475 28.058C236.472 26.9118 233.393 26.5736 230.32 27.2196C229.113 27.4737 228.097 27.7622 227.267 28.0821C224.596 29.1114 222.364 31.1422 220.598 33.6096L220.596 33.6077C220.22 34.1332 219.865 34.7851 219.534 35.572C219.13 36.5274 218.92 37.0891 218.858 37.3194C217.715 41.5602 217.863 45.5619 219.746 49.4594C220.479 50.9755 221.348 52.2246 222.345 53.2212L222.781 53.6349L223.32 54.0985C224.581 55.1371 225.866 55.8799 227.171 56.3466V56.3485C229.336 57.1223 231.459 57.4969 233.546 57.4855C235.845 57.4735 238.463 56.959 240.584 55.8699L241.001 55.6436C243.332 54.3162 245.108 52.5777 246.355 50.4277C247.195 48.9747 247.843 47.2377 248.279 45.2025L248.363 44.6961C248.415 44.212 248.398 43.7554 248.453 43.0139C248.65 40.3598 248.04 37.5135 246.944 35.0304C246.844 34.9135 246.776 34.7722 246.74 34.6205L246.736 34.6224C246.731 34.6018 246.698 34.5058 246.574 34.3219L246.566 34.3089C246.519 34.2351 246.44 34.0952 246.358 33.9453C246.215 33.6846 246.132 33.5466 246.1 33.4983C245.163 32.1372 244.052 30.9469 242.764 29.924C241.899 29.2366 240.952 28.6748 239.921 28.2379L239.475 28.058Z" fill="#DEB254" stroke="#DEB254" stroke-width="0.831491"/>
<path d="M117.621 26.1007L116.858 25.5006C116.33 24.883 116.132 24.1167 116.264 23.2018L116.404 22.6675C116.275 23.5545 116.404 24.3527 116.79 25.0621C116.993 25.4362 117.328 25.7565 117.621 26.1007Z" fill="white"/>
<path d="M109.864 23.7876C109.825 23.9343 109.817 24.1119 109.842 24.3204L109.841 26.2945C109.841 26.3169 109.836 26.3391 109.828 26.3598C109.819 26.3805 109.807 26.3993 109.791 26.4151C109.775 26.431 109.757 26.4435 109.736 26.4521C109.715 26.4607 109.693 26.4651 109.671 26.4651H87.8058C87.7723 26.4651 87.7404 26.4783 87.7168 26.5018C87.693 26.5254 87.6796 26.5573 87.6792 26.5908L87.6301 30.8681L87.5765 34.1053C87.5765 34.1199 87.5719 34.1342 87.5638 34.1465C87.5557 34.1587 87.544 34.1683 87.5304 34.1742C87.1433 34.3388 86.6672 34.5423 86.2847 34.8102C85.6853 35.2283 85.3034 35.4867 85.1387 35.5855C84.2873 36.0928 84.1279 34.906 84.0595 34.3912C83.9137 33.2986 83.7811 32.0495 83.6621 30.6437L83.6978 22.9211C83.6978 22.8973 83.7073 22.8745 83.7241 22.8576C83.7407 22.8408 83.7635 22.8313 83.7872 22.8313H109.658C109.704 22.8313 109.748 22.8492 109.781 22.8812C109.815 22.9133 109.834 22.9571 109.836 23.0034L109.864 23.7876Z" fill="white"/>
<path d="M286.455 24.7193C286.806 24.944 287.033 25.2965 287.067 25.7172C287.093 26.0453 286.991 26.3314 286.946 26.4554L286.944 26.4573C286.621 27.3339 286.27 28.2359 285.888 29.1617C285.731 29.5453 285.404 29.8477 284.951 29.9333L284.953 29.9352C284.602 30.0028 284.313 29.8806 284.145 29.7738C283.978 29.6697 283.857 29.5387 283.772 29.4362L283.34 28.9057L283.695 28.3196C283.893 27.9927 283.995 27.7954 284.033 27.7001C284.367 26.8684 284.707 26.0236 285.051 25.17L285.486 24.0979L286.455 24.7193Z" fill="#DEB254" stroke="#DEB254" stroke-width="0.831491"/>
<path d="M168.642 29.9082L168.678 61.8609C168.678 61.9027 168.661 61.9426 168.632 61.972C168.602 62.0017 168.563 62.0182 168.521 62.0182L165.141 62.0317C165.113 62.0319 165.086 62.0264 165.061 62.0159C165.035 62.0053 165.011 61.9897 164.992 61.9699C164.972 61.9502 164.957 61.9266 164.946 61.9008C164.935 61.8748 164.93 61.8471 164.93 61.8191L164.912 53.8915L164.949 55.0634C164.95 55.108 164.962 55.1521 164.983 55.1914C165.003 55.2309 165.033 55.2647 165.068 55.29C165.103 55.3152 165.144 55.3312 165.186 55.3367C165.228 55.342 165.27 55.3365 165.309 55.3208C165.309 55.3208 165.335 55.2714 165.378 55.1756C165.487 54.9302 165.568 54.6687 165.62 54.3914C165.838 53.2599 166.032 52.0641 166.202 50.804C166.786 46.4863 167.046 43.0874 167.421 37.951C167.513 36.6899 167.708 35.4387 168.006 34.1975C168.095 33.8263 168.275 33.5385 168.548 33.334C168.566 33.3199 168.581 33.302 168.591 33.2815C168.601 33.261 168.607 33.2386 168.608 33.2157L168.642 29.9082Z" fill="white"/>
<path d="M87.63 30.8676L87.6403 41.4232C87.6403 41.4453 87.649 41.4663 87.6643 41.4819C87.6796 41.4977 87.7004 41.5066 87.7223 41.507L88.6271 41.5174C96.9352 41.5444 103.182 41.545 107.367 41.5189C107.528 41.518 107.602 41.6002 107.589 41.7659L107.519 44.8968C107.518 44.946 107.498 44.9929 107.463 45.0273C107.428 45.0617 107.381 45.0809 107.333 45.0809L87.7877 45.1603C87.744 45.1603 87.7019 45.1777 87.6709 45.2089C87.64 45.24 87.6226 45.2824 87.6226 45.3265L87.5467 61.8132C87.5463 61.8586 87.528 61.9022 87.4957 61.9343C87.4634 61.9666 87.4197 61.9849 87.374 61.9852L83.8824 61.9987C83.8461 61.9989 83.81 61.9919 83.7764 61.978C83.743 61.9642 83.7124 61.9438 83.6867 61.9182C83.661 61.8924 83.6406 61.8618 83.6266 61.8282C83.6127 61.7944 83.6055 61.7583 83.6055 61.7218L83.6472 50.1006L83.6308 46.5461L83.6621 30.6431C83.7811 32.0489 83.9136 33.2981 84.0594 34.3906C84.1279 34.9054 84.2872 36.0922 85.1385 35.5849C85.3032 35.4861 85.6851 35.2277 86.2845 34.8096C86.667 34.5418 87.1434 34.3382 87.5302 34.1736C87.5438 34.1678 87.5555 34.1581 87.5637 34.1459C87.572 34.1337 87.5763 34.1194 87.5765 34.1047L87.63 30.8676Z" fill="white"/>
<path d="M146.582 32.4962C147.085 32.7097 147.557 32.9691 147.998 33.2745C148.316 33.495 148.66 33.6591 149.029 33.7668C149.038 33.7696 149.048 33.7689 149.057 33.7651C149.066 33.7612 149.073 33.7543 149.078 33.7457C149.082 33.737 149.084 33.727 149.082 33.7175C149.079 33.708 149.074 33.6995 149.066 33.6935C148.699 33.4032 148.304 33.1547 147.882 32.9482C147.842 32.9282 147.841 32.9242 147.88 32.9362C148.129 33.015 148.384 33.0694 148.645 33.0993C149.753 33.5374 150.656 33.9943 151.354 34.4703C154.893 36.8843 157.025 41.3442 157.202 45.5437C157.246 46.5833 157.255 47.435 157.227 48.0984C157.224 48.1605 157.198 48.2192 157.153 48.2622C157.109 48.3051 157.049 48.329 156.987 48.329H132.973C132.963 48.329 132.954 48.3309 132.945 48.3345C132.937 48.3383 132.929 48.3436 132.922 48.3507C132.916 48.3575 132.911 48.3655 132.907 48.3744C132.904 48.3833 132.902 48.3928 132.903 48.4023C132.916 48.8662 132.997 49.3894 133.146 49.9722C133.671 52.0345 134.46 53.7721 135.95 55.3974C137.57 57.168 139.687 58.1602 142.083 58.5492C144.09 58.8756 146.149 58.7624 148.258 58.2096C149.043 58.0051 149.713 57.7456 150.269 57.4313L151.534 56.8028C152.191 56.6102 152.625 56.2356 152.835 55.6789L153.162 55.182L153.39 54.9529C153.408 54.9345 153.431 54.9201 153.455 54.9108C153.479 54.9015 153.505 54.8975 153.531 54.8988C153.557 54.9001 153.582 54.9072 153.605 54.9189C153.628 54.9309 153.648 54.9476 153.664 54.9679L154.713 56.3028C152.6 56.4601 151.046 57.7756 149.153 58.3998C147.086 59.0811 144.938 59.3077 142.708 59.0792C141.837 58.9903 140.787 58.8632 139.557 58.6976C138.618 58.5703 137.012 58.5449 136.212 59.2363C135.914 59.4936 135.822 59.5791 135.467 59.6672C134.055 58.72 132.709 57.4822 131.8 56.0365C131.514 55.5805 131.28 55.1964 131.096 54.8842C130.071 53.132 129.448 51.1766 129.228 49.0174C128.953 46.3084 129.31 43.3541 130.344 40.7844C130.837 40.1489 131.2 39.4858 131.432 38.7955C131.624 38.3744 131.893 37.9893 132.241 37.6401C133.197 36.6513 134.195 35.7274 135.234 34.8683C135.686 34.4942 136.08 34.2273 136.414 34.0677C136.983 33.7973 137.42 33.5408 137.724 33.2984C140.31 32.1685 143.064 31.9709 145.791 32.3316C146.061 32.3675 146.325 32.4224 146.582 32.4962ZM142.265 35.5598C141.946 35.5907 141.626 35.6251 141.305 35.6631C140.946 35.705 140.631 35.7668 140.358 35.8486C139.729 36.0392 139.13 36.2921 138.56 36.6074L137.669 37.1208L138.87 36.2856C138.882 36.2777 138.891 36.2653 138.895 36.251C138.899 36.2366 138.897 36.2214 138.891 36.2081C138.884 36.1949 138.873 36.1846 138.859 36.1793C138.845 36.174 138.83 36.174 138.816 36.1794C137.129 36.7701 135.777 37.8576 134.759 39.442C134.46 39.9069 134.04 40.6598 133.5 41.7003C133.067 42.537 132.485 44.071 132.985 44.915C132.964 45.0279 132.964 45.1257 132.985 45.2085C132.99 45.2305 133.003 45.2507 133.019 45.2668C133.036 45.2828 133.057 45.2944 133.08 45.2999C133.234 45.3346 133.385 45.3266 133.533 45.2757L143.732 45.2907H153.564C153.585 45.2909 153.605 45.2864 153.623 45.2778C153.642 45.2691 153.659 45.2564 153.672 45.2406C153.685 45.2248 153.695 45.2062 153.7 45.1863C153.706 45.1661 153.707 45.1453 153.704 45.1247C153.527 44.0071 153.25 42.9127 152.872 41.8411C151.802 38.993 149.513 36.8394 146.615 35.9519C146.283 35.7264 145.807 35.6047 145.189 35.5867C143.859 35.5478 142.884 35.5388 142.265 35.5598Z" fill="white"/>
<path d="M120.998 34.9594L120.996 61.8028C120.996 61.8601 120.974 61.9152 120.933 61.9562C120.893 61.9971 120.839 62.0204 120.782 62.0212C119.645 62.0411 118.5 62.0408 117.348 62.0197C117.207 62.0168 117.139 61.919 117.143 61.7264L117.146 32.5604C117.146 32.5118 117.165 32.4652 117.199 32.4307C117.233 32.3962 117.279 32.3767 117.327 32.3763L120.777 32.3628C120.805 32.3626 120.833 32.3679 120.858 32.3784C120.884 32.3889 120.907 32.4044 120.927 32.424C120.947 32.4436 120.963 32.4669 120.973 32.4926C120.984 32.5183 120.99 32.5459 120.99 32.5738L120.998 34.9594Z" fill="white"/>
<path d="M148.645 33.099C148.384 33.0691 148.129 33.0147 147.88 32.9359C147.841 32.9239 147.842 32.9279 147.881 32.9478C148.304 33.1544 148.699 33.4028 149.066 33.6931C149.074 33.6991 149.079 33.7076 149.081 33.7171C149.083 33.7267 149.082 33.7366 149.078 33.7453C149.073 33.754 149.066 33.7608 149.057 33.7647C149.048 33.7686 149.038 33.7692 149.029 33.7665C148.66 33.6587 148.316 33.4946 147.997 33.2741C147.557 32.9688 147.085 32.7094 146.582 32.4958C147.293 32.6276 147.981 32.8286 148.645 33.099Z" fill="white"/>
<path d="M137.725 33.2981C137.422 33.5406 136.985 33.797 136.416 34.0673C136.081 34.227 135.688 34.4939 135.235 34.868C134.196 35.7271 133.199 36.651 132.242 37.6398C132.433 37.3125 132.65 37.0122 132.894 36.7388C133.918 35.5914 135.103 34.646 136.45 33.9027C136.497 33.8758 136.545 33.8473 136.594 33.8174C136.949 33.5969 137.326 33.4238 137.725 33.2981Z" fill="white"/>
<path d="M215.491 31.8987C215.763 31.8919 216.02 32.0027 216.203 32.2029C216.36 32.3758 216.42 32.5673 216.445 32.6852C216.492 32.9186 216.463 33.148 216.431 33.3084C216.394 33.4875 216.333 33.6737 216.252 33.8538C216.123 34.1406 215.921 34.4635 215.634 34.733C215.113 35.968 214.737 37.2318 214.565 38.6264C214.408 39.8828 214.244 40.971 214.252 42.0819L214.28 42.4679C214.301 42.6554 214.333 42.9046 214.378 43.2227C214.578 44.6269 214.65 46.5018 214.612 47.9377L212.958 48.1919C212.654 47.2969 212.446 46.1018 212.319 45.0089L212.217 43.9646C211.928 40.1831 212.028 37.2505 213.717 33.8315L213.719 33.8297C214.083 33.0969 214.401 32.5884 214.686 32.2957C214.762 32.2175 214.858 32.1326 214.971 32.062C215.077 31.9958 215.256 31.9048 215.491 31.8987Z" fill="#DEB254" stroke="#DEB254" stroke-width="0.736071"/>
<path d="M146.616 35.9514C146.368 35.9285 146.12 35.8681 145.87 35.7704C145.832 35.7554 145.792 35.7449 145.751 35.7389C144.697 35.5883 143.635 35.5434 142.568 35.6042C142.456 35.6122 142.355 35.5972 142.266 35.5593C142.885 35.5384 143.86 35.5474 145.19 35.5863C145.808 35.6042 146.284 35.726 146.616 35.9514Z" fill="white"/>
<path d="M142.265 35.5593C142.354 35.5972 142.455 35.6122 142.567 35.6042C141.979 35.691 141.353 35.7225 140.806 35.8617C140.051 36.0552 139.303 36.3036 138.561 36.607C139.13 36.2917 139.729 36.0388 140.358 35.8482C140.631 35.7664 140.947 35.7045 141.305 35.6626C141.626 35.6247 141.946 35.5902 142.265 35.5593Z" fill="white"/>
<path d="M192.617 35.7961C192.033 35.7932 191.444 35.7932 190.851 35.7961C190.384 35.7992 189.846 35.8934 189.336 35.8964C189.891 35.7388 190.365 35.654 190.758 35.642C191.278 35.626 191.897 35.6774 192.617 35.7961Z" fill="white"/>
<path d="M137.669 37.1205L137.384 37.3255C136.967 37.4677 136.467 37.7206 136.33 38.1771C134.502 39.9811 133.403 42.1901 133.032 44.8042C133.011 44.8281 132.996 44.865 132.986 44.9149C132.486 44.0708 133.067 42.5367 133.501 41.7002C134.041 40.6595 134.461 39.9066 134.76 39.4416C135.778 37.8573 137.13 36.7698 138.817 36.1791C138.831 36.1737 138.846 36.1737 138.86 36.179C138.874 36.1843 138.885 36.1946 138.892 36.2078C138.898 36.2211 138.9 36.2363 138.896 36.2507C138.892 36.265 138.883 36.2774 138.871 36.2854L137.669 37.1205Z" fill="white"/>
<path d="M137.384 37.3254L136.33 38.177C136.467 37.7206 136.967 37.4676 137.384 37.3254Z" fill="white"/>
<path d="M130.344 40.784C130.623 40.0755 130.986 39.4125 131.432 38.7949C131.199 39.4854 130.837 40.1483 130.344 40.784Z" fill="white"/>
<path d="M143.733 45.2906L133.533 45.2756C136.936 45.2098 140.335 45.2148 143.733 45.2906Z" fill="white"/>
<path d="M288.087 50.0584C288.214 50.0907 288.335 50.1467 288.441 50.2253L288.586 50.3589L288.707 50.5203C288.788 50.6578 288.83 50.814 288.841 50.9748L288.847 50.9729L288.935 52.2231L288.943 52.3196L288.93 52.4159C288.728 53.9746 288.22 55.484 287.417 56.9401C287.081 57.5498 286.705 58.0801 286.283 58.5149L285.622 59.2011L284.935 58.5426C284.687 58.3076 284.557 57.9868 284.563 57.6449C284.57 57.3462 284.68 57.0989 284.778 56.9327C285.562 55.5828 285.991 54.8619 286.302 53.6123L286.459 52.9502C286.608 52.2811 286.739 51.594 286.846 50.8894L286.85 50.8913C286.884 50.6611 286.994 50.448 287.166 50.2903L287.324 50.1716C287.494 50.0696 287.691 50.0191 287.891 50.0288L288.087 50.0584Z" fill="#DEB254" stroke="#DEB254" stroke-width="0.831491"/>
<path d="M260.872 54.0417C261.472 54.1749 261.913 54.6151 262.185 54.9876H262.183C262.341 55.2051 262.647 55.7352 263.065 56.4864C263.157 56.6501 263.373 56.9066 263.801 57.2469H263.803C264.784 58.0287 265.751 58.8035 266.707 59.5693L267.105 59.8548C267.558 60.1503 268.176 60.4725 268.979 60.8157L268.41 62.6501C266.208 62.1952 264.128 61.4848 262.179 60.5171C260.804 59.8352 259.523 58.9585 258.337 57.8942L257.846 57.4528L258.08 56.8315C258.359 56.0925 258.696 55.4256 259.091 54.8393C259.279 54.5597 259.529 54.3091 259.854 54.1549C260.192 53.9952 260.547 53.9695 260.872 54.0417Z" fill="#DEB254" stroke="#DEB254" stroke-width="0.831491"/>
<path d="M153.161 55.1816L152.833 55.6785L151.533 56.8024L150.268 57.4311C151.338 56.8195 152.303 56.0696 153.161 55.1816Z" fill="white"/>
<path d="M151.533 56.8026L152.834 55.6787C152.624 56.2354 152.19 56.6102 151.533 56.8026Z" fill="white"/>
<path d="M154.713 56.3025L155.436 57.142C155.474 57.1863 155.496 57.2429 155.498 57.3016C155.499 57.3605 155.48 57.4178 155.443 57.4638C154.69 58.4256 153.865 59.1835 152.967 59.7372C151.651 60.5524 150.263 61.2014 148.804 61.6842L146.25 62.1872L142.803 62.1917C140.252 61.9268 137.614 61.114 135.467 59.6669C135.821 59.5786 135.913 59.4933 136.211 59.2359C137.012 58.5443 138.618 58.5698 139.557 58.6971C140.786 58.8627 141.836 58.9899 142.707 59.0786C144.937 59.3071 147.085 59.0807 149.152 58.3992C151.045 57.7751 152.599 56.4596 154.713 56.3025Z" fill="white"/>
<path d="M152.968 59.7378C151.722 60.6985 150.335 61.3475 148.805 61.6849C150.264 61.2018 151.652 60.5528 152.968 59.7378Z" fill="white"/>
<path d="M146.25 62.1875C145.106 62.3281 143.957 62.3296 142.803 62.1919L146.25 62.1875Z" fill="white"/>
</svg>
